SplineFontDB: 3.0
FontName: ArbutusSlab
FullName: ArbutusSlab
FamilyName: Arbutus Slab
Weight: Book
Copyright: Copyright (c) 2012 by Sorkin Type Co.. All rights reserved.
Version: 1.001; ttfautohint (v0.92) -l 10 -r 16 -G 200 -x 7 -w "GD"
ItalicAngle: 0
UnderlinePosition: -125
UnderlineWidth: 130
Ascent: 1638
Descent: 410
sfntRevision: 0x00010042
LayerCount: 2
Layer: 0 1 "Back"  1
Layer: 1 1 "Fore"  0
XUID: [1021 631 1661839179 5348971]
FSType: 0
OS2Version: 3
OS2_WeightWidthSlopeOnly: 0
OS2_UseTypoMetrics: 1
CreationTime: 1347352440
ModificationTime: 1347334803
PfmFamily: 17
TTFWeight: 400
TTFWidth: 5
LineGap: 0
VLineGap: 0
Panose: 2 0 0 0 0 0 0 0 0 0
OS2TypoAscent: 2010
OS2TypoAOffset: 0
OS2TypoDescent: -550
OS2TypoDOffset: 0
OS2TypoLinegap: 0
OS2WinAscent: 2010
OS2WinAOffset: 0
OS2WinDescent: 550
OS2WinDOffset: 0
HheadAscent: 2010
HheadAOffset: 0
HheadDescent: -550
HheadDOffset: 0
OS2SubXSize: 1434
OS2SubYSize: 1331
OS2SubXOff: 0
OS2SubYOff: 287
OS2SupXSize: 1434
OS2SupYSize: 1331
OS2SupXOff: 0
OS2SupYOff: 977
OS2StrikeYSize: 163
OS2StrikeYPos: 529
OS2Vendor: 'STC '
OS2CodePages: 20000093.00000000
OS2UnicodeRanges: a00000af.4000204a.00000000.00000000
DEI: 91125
TtTable: prep
MPPEM
PUSHW_1
 200
GT
IF
PUSHB_2
 1
 1
INSTCTRL
EIF
PUSHW_2
 2048
 2048
MUL
DUP
PUSHB_1
 1
SWAP
WCVTP
DUP
PUSHB_1
 3
SWAP
WCVTF
PUSHB_1
 20
RCVT
DUP
DUP
MPPEM
PUSHB_1
 7
LTEQ
MPPEM
PUSHB_1
 6
GTEQ
AND
IF
PUSHB_1
 52
ELSE
PUSHB_1
 40
EIF
ADD
FLOOR
DUP
ROLL
NEQ
IF
PUSHB_1
 2
CINDEX
SUB
PUSHB_1
 1
RCVT
MUL
SWAP
DIV
PUSHB_1
 2
SWAP
WCVTP
PUSHB_4
 10
 10
 5
 4
CALL
PUSHB_4
 11
 16
 5
 4
CALL
PUSHB_4
 17
 22
 5
 4
CALL
EIF
PUSHB_3
 4
 40
 8
RCVT
GT
WCVTP
PUSHB_4
 11
 16
 6
 4
CALL
PUSHB_2
 6
 1
WCVTP
PUSHB_2
 36
 1
GETINFO
LTEQ
IF
PUSHB_1
 64
GETINFO
IF
PUSHB_2
 6
 3
WCVTP
PUSHB_2
 38
 1
GETINFO
LTEQ
IF
PUSHW_1
 1024
GETINFO
IF
PUSHB_2
 6
 3
WCVTP
EIF
EIF
EIF
EIF
PUSHW_1
 511
SCANCTRL
PUSHB_1
 4
SCANTYPE
PUSHB_2
 5
 0
WCVTP
EndTTInstrs
TtTable: fpgm
PUSHB_1
 0
FDEF
PUSHB_1
 32
ADD
FLOOR
ENDF

StartChar: .notdef
Encoding: 65536 -1 0
Width: 2037
Flags: W
LayerCount: 2
Fore
SplineSet
1698 -8 m 1,0,-1
 1698 1470 l 1,1,-1
 1400 1470 l 1,2,-1
 1400 1557 l 1,3,-1
 1895 1557 l 1,4,-1
 1895 -95 l 1,5,-1
 1400 -95 l 1,6,-1
 1400 -8 l 1,7,-1
 1698 -8 l 1,0,-1
140 1557 m 1,8,-1
 635 1557 l 1,9,-1
 635 1470 l 1,10,-1
 337 1470 l 1,11,-1
 337 -8 l 1,12,-1
 635 -8 l 1,13,-1
 635 -95 l 1,14,-1
 140 -95 l 1,15,-1
 140 1557 l 1,8,-1
1009 1033 m 1,16,17
 880 1033 880 1033 974 926 c 1,18,-1
 1054 833 l 1,19,-1
 1133 926 l 2,20,21
 1223 1033 1223 1033 1113 1033 c 1,22,-1
 1113 1131 l 1,23,-1
 1480 1131 l 1,24,-1
 1480 1033 l 1,25,26
 1386 1033 1386 1033 1285 926 c 1,27,-1
 1120 755 l 1,28,-1
 1312 533 l 1,29,30
 1403 426 1403 426 1480 426 c 1,31,-1
 1480 318 l 1,32,-1
 1024 318 l 1,33,-1
 1024 426 l 1,34,35
 1164 426 1164 426 1070 533 c 1,36,-1
 977 635 l 1,37,-1
 890 533 l 2,38,39
 830 463 830 463 879 436 c 0,40,41
 896 426 896 426 930 426 c 1,42,-1
 930 318 l 1,43,-1
 542 318 l 1,44,-1
 542 426 l 1,45,46
 642 426 642 426 738 533 c 1,47,-1
 905 713 l 1,48,-1
 711 926 l 1,49,50
 615 1033 615 1033 542 1033 c 1,51,-1
 542 1131 l 1,52,-1
 1009 1131 l 1,53,-1
 1009 1033 l 1,16,17
EndSplineSet
EndChar

StartChar: exclam
Encoding: 33 33 26
Width: 585
GlyphClass: 2
Flags: W
LayerCount: 2
Fore
SplineSet
249 448 m 1,0,1
 236 573 236 573 220 699 c 0,2,3
 162 1175 162 1175 153 1448 c 0,4,5
 150 1520 150 1520 294 1520 c 0,6,7
 399 1520 399 1520 428 1488 c 0,8,9
 441 1473 441 1473 440 1448 c 0,10,11
 431 1168 431 1168 395.5 870.5 c 128,-1,12
 360 573 360 573 347 448 c 1,13,-1
 249 448 l 1,0,1
138 134 m 256,14,15
 138 198 138 198 183 243 c 128,-1,16
 228 288 228 288 292 288 c 256,17,18
 356 288 356 288 401 243 c 128,-1,19
 446 198 446 198 446 134 c 256,20,21
 446 70 446 70 401 25 c 128,-1,22
 356 -20 356 -20 292 -20 c 256,23,24
 228 -20 228 -20 183 25 c 128,-1,25
 138 70 138 70 138 134 c 256,14,15
EndSplineSet
EndChar

StartChar: numbersign
Encoding: 35 35 28
Width: 1703
GlyphClass: 2
Flags: W
LayerCount: 2
Fore
SplineSet
237 560 m 1,0,-1
 517 560 l 1,1,-1
 559 920 l 1,2,-1
 252 920 l 1,3,-1
 277 1110 l 1,4,-1
 581 1110 l 1,5,-1
 627 1500 l 1,6,-1
 771 1500 l 1,7,-1
 725 1110 l 1,8,-1
 1081 1110 l 1,9,-1
 1127 1500 l 1,10,-1
 1271 1500 l 1,11,-1
 1225 1110 l 1,12,-1
 1511 1110 l 1,13,-1
 1487 920 l 1,14,-1
 1203 920 l 1,15,-1
 1162 560 l 1,16,-1
 1471 560 l 1,17,-1
 1447 370 l 1,18,-1
 1140 370 l 1,19,-1
 1097 0 l 1,20,-1
 952 0 l 1,21,-1
 995 370 l 1,22,-1
 640 370 l 1,23,-1
 597 0 l 1,24,-1
 452 0 l 1,25,-1
 495 370 l 1,26,-1
 212 370 l 1,27,-1
 237 560 l 1,0,-1
1017 560 m 1,28,-1
 1059 920 l 1,29,-1
 703 920 l 1,30,-1
 662 560 l 1,31,-1
 1017 560 l 1,28,-1
EndSplineSet
EndChar

StartChar: dollar
Encoding: 36 36 29
Width: 1262
GlyphClass: 2
Flags: W
LayerCount: 2
Fore
SplineSet
636 -20 m 1,0,-1
 595 -19 l 1,1,-1
 559 -356 l 1,2,-1
 460 -356 l 1,3,-1
 497 -9 l 1,4,5
 330 16 330 16 229.5 98.5 c 128,-1,6
 129 181 129 181 129 286.5 c 128,-1,7
 129 392 129 392 220 432 c 0,8,9
 248 445 248 445 280 445 c 0,10,11
 344 445 344 445 384.5 403 c 128,-1,12
 425 361 425 361 425 296 c 128,-1,13
 425 231 425 231 366 187 c 1,14,15
 414 138 414 138 510 114 c 1,16,-1
 563 609 l 1,17,18
 384 709 384 709 318.5 774.5 c 128,-1,19
 253 840 253 840 219.5 906 c 128,-1,20
 186 972 186 972 186 1058 c 0,21,22
 186 1225 186 1225 321.5 1332.5 c 128,-1,23
 457 1440 457 1440 649 1440 c 2,24,-1
 652 1440 l 1,25,-1
 687 1772 l 1,26,-1
 786 1772 l 1,27,-1
 750 1433 l 1,28,29
 913 1409 913 1409 1010 1321.5 c 128,-1,30
 1107 1234 1107 1234 1107 1118 c 0,31,32
 1107 1052 1107 1052 1066.5 1007.5 c 128,-1,33
 1026 963 1026 963 964 963 c 0,34,35
 904 963 904 963 862.5 1003 c 128,-1,36
 821 1043 821 1043 821 1111.5 c 128,-1,37
 821 1180 821 1180 889 1222 c 1,38,39
 853 1295 853 1295 737 1314 c 1,40,-1
 686 834 l 1,41,-1
 710 822 l 1,42,43
 899 716 899 716 974 648.5 c 128,-1,44
 1049 581 1049 581 1088.5 513.5 c 128,-1,45
 1128 446 1128 446 1128 359 c 0,46,47
 1128 184 1128 184 990.5 82 c 128,-1,48
 853 -20 853 -20 636 -20 c 1,0,-1
639 1319 m 1,49,50
 485 1312 485 1312 428 1214 c 0,51,52
 408 1179 408 1179 408 1137 c 0,53,54
 408 1064 408 1064 457 1004 c 128,-1,55
 506 944 506 944 593 888 c 1,56,-1
 639 1319 l 1,49,50
608 101 m 1,57,58
 617 100 617 100 626 100 c 2,59,-1
 646 100 l 2,60,61
 820 100 820 100 882 204 c 0,62,63
 905 241 905 241 905 289 c 0,64,65
 905 372 905 372 842 432 c 128,-1,66
 779 492 779 492 657 559 c 1,67,-1
 608 101 l 1,57,58
EndSplineSet
EndChar

StartChar: percent
Encoding: 37 37 30
Width: 1850
GlyphClass: 2
Flags: W
LayerCount: 2
Fore
SplineSet
475 780 m 256,0,1
 327 780 327 780 223.5 882 c 128,-1,2
 120 984 120 984 120 1152.5 c 128,-1,3
 120 1321 120 1321 221.5 1420.5 c 128,-1,4
 323 1520 323 1520 475 1520 c 256,5,6
 627 1520 627 1520 728.5 1420.5 c 128,-1,7
 830 1321 830 1321 830 1152.5 c 128,-1,8
 830 984 830 984 726.5 882 c 128,-1,9
 623 780 623 780 475 780 c 256,0,1
1261 1500 m 1,10,-1
 1405 1500 l 1,11,-1
 581 0 l 1,12,-1
 436 0 l 1,13,-1
 1261 1500 l 1,10,-1
475 1414 m 0,14,15
 326 1414 326 1414 326 1152 c 0,16,17
 326 1010 326 1010 369.5 948 c 128,-1,18
 413 886 413 886 475 886 c 0,19,20
 574 886 574 886 610 1023 c 0,21,22
 624 1076 624 1076 624 1152 c 0,23,24
 624 1287 624 1287 582.5 1350.5 c 128,-1,25
 541 1414 541 1414 475 1414 c 0,14,15
1121.5 620.5 m 128,-1,27
 1223 720 1223 720 1375 720 c 256,28,29
 1527 720 1527 720 1628.5 620.5 c 128,-1,30
 1730 521 1730 521 1730 352.5 c 128,-1,31
 1730 184 1730 184 1626.5 82 c 128,-1,32
 1523 -20 1523 -20 1375 -20 c 256,33,34
 1227 -20 1227 -20 1123.5 82 c 128,-1,35
 1020 184 1020 184 1020 352.5 c 128,-1,26
 1020 521 1020 521 1121.5 620.5 c 128,-1,27
1226 352 m 0,36,37
 1226 210 1226 210 1269.5 148 c 128,-1,38
 1313 86 1313 86 1375 86 c 0,39,40
 1474 86 1474 86 1510 223 c 0,41,42
 1524 276 1524 276 1524 352 c 0,43,44
 1524 487 1524 487 1482.5 550.5 c 128,-1,45
 1441 614 1441 614 1375 614 c 0,46,47
 1226 614 1226 614 1226 352 c 0,36,37
EndSplineSet
EndChar

StartChar: ampersand
Encoding: 38 38 31
Width: 1675
GlyphClass: 2
Flags: W
LayerCount: 2
Fore
SplineSet
963 123 m 1,0,1
 805 -20 805 -20 589 -20 c 128,-1,2
 373 -20 373 -20 241.5 99.5 c 128,-1,3
 110 219 110 219 110 411 c 0,4,5
 110 540 110 540 205 654 c 128,-1,6
 300 768 300 768 458 829 c 1,7,8
 360 991 360 991 339.5 1063.5 c 128,-1,9
 319 1136 319 1136 319 1193 c 0,10,11
 319 1324 319 1324 415.5 1422 c 128,-1,12
 512 1520 512 1520 671 1520 c 0,13,14
 892 1520 892 1520 988 1382 c 0,15,16
 1027 1327 1027 1327 1027 1253 c 0,17,18
 1027 1028 1027 1028 708 814 c 1,19,20
 855 580 855 580 1020 365 c 1,21,22
 1117 506 1117 506 1164 678 c 0,23,24
 1170 699 1170 699 1170 726.5 c 128,-1,25
 1170 754 1170 754 1138.5 782.5 c 128,-1,26
 1107 811 1107 811 1023 815 c 1,27,-1
 1016 913 l 1,28,-1
 1533 913 l 1,29,-1
 1540 815 l 1,30,31
 1404 804 1404 804 1344 718 c 0,32,33
 1324 691 1324 691 1245.5 536 c 128,-1,34
 1167 381 1167 381 1094 275 c 1,35,36
 1209 142 1209 142 1282 107 c 0,37,38
 1314 92 1314 92 1352 92 c 0,39,40
 1432 92 1432 92 1472 146 c 1,41,42
 1427 154 1427 154 1400.5 187.5 c 128,-1,43
 1374 221 1374 221 1374 271.5 c 128,-1,44
 1374 322 1374 322 1416.5 362 c 128,-1,45
 1459 402 1459 402 1501.5 402 c 128,-1,46
 1544 402 1544 402 1569 390 c 0,47,48
 1643 355 1643 355 1643 276 c 0,49,50
 1643 135 1643 135 1549.5 57.5 c 128,-1,51
 1456 -20 1456 -20 1333 -20 c 0,52,53
 1111 -20 1111 -20 963 123 c 1,0,1
647 915 m 1,54,55
 748 996 748 996 791 1066.5 c 128,-1,56
 834 1137 834 1137 834 1225 c 0,57,58
 834 1311 834 1311 782 1363 c 128,-1,59
 730 1415 730 1415 661 1415 c 0,60,61
 591 1415 591 1415 558 1360.5 c 128,-1,62
 525 1306 525 1306 525 1227 c 128,-1,63
 525 1148 525 1148 571.5 1055.5 c 128,-1,64
 618 963 618 963 647 915 c 1,54,55
516 734 m 1,65,66
 340 625 340 625 340 427 c 0,67,68
 340 289 340 289 423 204 c 128,-1,69
 506 119 506 119 636 119 c 128,-1,70
 766 119 766 119 883 213 c 1,71,72
 696 446 696 446 516 734 c 1,65,66
EndSplineSet
EndChar

StartChar: quotesingle
Encoding: 39 39 32
Width: 706
GlyphClass: 2
Flags: W
LayerCount: 2
Fore
SplineSet
233 1321 m 2,0,1
 230 1348 230 1348 230 1369 c 0,2,3
 230 1433 230 1433 250 1468 c 0,4,5
 280 1520 280 1520 362.5 1520 c 128,-1,6
 445 1520 445 1520 478 1464 c 0,7,8
 496 1435 496 1435 496 1393.5 c 128,-1,9
 496 1352 496 1352 482 1301 c 2,10,-1
 378 895 l 1,11,12
 367 857 367 857 329 857 c 0,13,14
 310 857 310 857 296 870.5 c 128,-1,15
 282 884 282 884 280 905 c 2,16,-1
 233 1321 l 2,0,1
EndSplineSet
EndChar

StartChar: parenleft
Encoding: 40 40 33
Width: 822
GlyphClass: 2
Flags: W
LayerCount: 2
Fore
SplineSet
377 681 m 256,0,1
 377 14 377 14 743 -367 c 1,2,-1
 684 -447 l 1,3,4
 518 -350 518 -350 392 -154 c 0,5,6
 221 113 221 113 174 470 c 0,7,8
 159 579 159 579 159 681 c 0,9,10
 159 1007 159 1007 290 1321 c 0,11,12
 379 1532 379 1532 524 1682 c 0,13,14
 597 1758 597 1758 684 1809 c 1,15,-1
 743 1729 l 1,16,17
 377 1348 377 1348 377 681 c 256,0,1
EndSplineSet
EndChar

StartChar: asterisk
Encoding: 42 42 35
Width: 1030
GlyphClass: 2
Flags: W
LayerCount: 2
Fore
SplineSet
859 1029 m 1,0,-1
 706 1040 l 1,1,2
 675 1040 675 1040 644 1030 c 0,3,4
 589 1012 589 1012 617.5 966 c 128,-1,5
 646 920 646 920 701.5 890 c 128,-1,6
 757 860 757 860 786 842 c 0,7,8
 857 800 857 800 857 738.5 c 128,-1,9
 857 677 857 677 811.5 643.5 c 128,-1,10
 766 610 766 610 743 610 c 0,11,12
 642 610 642 610 614 716 c 0,13,14
 605 748 605 748 592 811 c 128,-1,15
 579 874 579 874 552 909 c 1,16,17
 510 955 510 955 479.5 912 c 128,-1,18
 449 869 449 869 432 781.5 c 128,-1,19
 415 694 415 694 385 652 c 128,-1,20
 355 610 355 610 310 610 c 128,-1,21
 265 610 265 610 235 632 c 0,22,23
 182 670 182 670 174.5 714.5 c 128,-1,24
 167 759 167 759 191 792 c 128,-1,25
 215 825 215 825 243 843 c 128,-1,26
 271 861 271 861 325.5 891 c 128,-1,27
 380 921 380 921 408 960 c 1,28,29
 439 1013 439 1013 386 1031 c 0,30,31
 357 1040 357 1040 327 1040 c 1,32,-1
 173 1028 l 1,33,34
 85 1028 85 1028 52 1091 c 0,35,36
 42 1112 42 1112 42 1136 c 128,-1,37
 42 1160 42 1160 50 1186 c 0,38,39
 68 1240 68 1240 108 1260 c 0,40,41
 176 1293 176 1293 249 1234 c 0,42,43
 275 1213 275 1213 322.5 1169.5 c 128,-1,44
 370 1126 370 1126 412 1113 c 1,45,46
 439 1108 439 1108 455.5 1115 c 128,-1,47
 472 1122 472 1122 472 1156 c 0,48,49
 472 1203 472 1203 433.5 1286.5 c 128,-1,50
 395 1370 395 1370 395 1414.5 c 128,-1,51
 395 1459 395 1459 426 1491 c 128,-1,52
 457 1523 457 1523 515 1523 c 256,53,54
 573 1523 573 1523 604 1491 c 128,-1,55
 635 1459 635 1459 635 1420 c 0,56,57
 635 1370 635 1370 596.5 1286.5 c 128,-1,58
 558 1203 558 1203 558 1156 c 1,59,60
 565 1094 565 1094 613 1110 c 128,-1,61
 661 1126 661 1126 708 1169.5 c 128,-1,62
 755 1213 755 1213 780.5 1234 c 128,-1,63
 806 1255 806 1255 833 1264 c 0,64,65
 883 1281 883 1281 922.5 1260 c 128,-1,66
 962 1239 962 1239 975 1199.5 c 128,-1,67
 988 1160 988 1160 988 1136 c 128,-1,68
 988 1112 988 1112 973 1082 c 0,69,70
 946 1029 946 1029 859 1029 c 1,0,-1
EndSplineSet
EndChar

StartChar: plus
Encoding: 43 43 36
Width: 1360
GlyphClass: 2
Flags: W
LayerCount: 2
Fore
SplineSet
596 598 m 1,0,-1
 127 598 l 1,1,-1
 127 761 l 1,2,-1
 596 761 l 1,3,-1
 596 1230 l 1,4,-1
 759 1230 l 1,5,-1
 759 761 l 1,6,-1
 1228 761 l 1,7,-1
 1228 598 l 1,8,-1
 759 598 l 1,9,-1
 759 129 l 1,10,-1
 596 129 l 1,11,-1
 596 598 l 1,0,-1
EndSplineSet
EndChar

StartChar: comma
Encoding: 44 44 37
Width: 683
GlyphClass: 2
Flags: W
LayerCount: 2
Fore
SplineSet
227.5 279 m 128,-1,1
 280 326 280 326 332 326 c 0,2,3
 425 326 425 326 475.5 269.5 c 128,-1,4
 526 213 526 213 526 122 c 0,5,6
 526 -64 526 -64 411 -211 c 128,-1,7
 296 -358 296 -358 119 -387 c 1,8,-1
 71 -318 l 1,9,10
 158 -289 158 -289 216 -243 c 0,11,12
 322 -158 322 -158 322 -69 c 0,13,14
 322 -14 322 -14 277 17 c 0,15,16
 255 33 255 33 236 46.5 c 128,-1,17
 217 60 217 60 204 76 c 1,18,19
 175 108 175 108 175 170 c 128,-1,0
 175 232 175 232 227.5 279 c 128,-1,1
EndSplineSet
EndChar

StartChar: hyphen
Encoding: 45 45 38
Width: 995
GlyphClass: 2
Flags: W
LayerCount: 2
Fore
SplineSet
120 611 m 1,0,-1
 875 611 l 1,1,-1
 875 448 l 1,2,-1
 120 448 l 1,3,-1
 120 611 l 1,0,-1
EndSplineSet
EndChar

StartChar: period
Encoding: 46 46 39
Width: 684
GlyphClass: 2
Flags: W
LayerCount: 2
Fore
SplineSet
192 130 m 0,0,1
 192 194 192 194 238 238.5 c 128,-1,2
 284 283 284 283 348 283 c 256,3,4
 412 283 412 283 458 238.5 c 128,-1,5
 504 194 504 194 504 130 c 0,6,7
 504 67 504 67 458.5 23.5 c 128,-1,8
 413 -20 413 -20 348 -20 c 256,9,10
 283 -20 283 -20 237.5 23.5 c 128,-1,11
 192 67 192 67 192 130 c 0,0,1
EndSplineSet
EndChar

StartChar: slash
Encoding: 47 47 40
Width: 1021
GlyphClass: 2
Flags: W
LayerCount: 2
Fore
SplineSet
757 1608 m 1,0,-1
 911 1608 l 1,1,-1
 287 -148 l 1,2,-1
 132 -148 l 1,3,-1
 757 1608 l 1,0,-1
EndSplineSet
EndChar

StartChar: zero
Encoding: 48 48 41
Width: 1458
GlyphClass: 2
Flags: W
LayerCount: 2
Fore
SplineSet
729 -20 m 256,0,1
 474 -20 474 -20 309 185.5 c 128,-1,2
 144 391 144 391 144 760 c 128,-1,3
 144 1129 144 1129 321 1336 c 0,4,5
 479 1520 479 1520 729 1520 c 256,6,7
 979 1520 979 1520 1137 1336 c 0,8,9
 1314 1129 1314 1129 1314 760 c 128,-1,10
 1314 391 1314 391 1149 185.5 c 128,-1,11
 984 -20 984 -20 729 -20 c 256,0,1
729 100 m 0,12,13
 856 100 856 100 941 227 c 0,14,15
 1048 388 1048 388 1048 737.5 c 128,-1,16
 1048 1087 1048 1087 959 1243.5 c 128,-1,17
 870 1400 870 1400 729 1400 c 0,18,19
 508 1400 508 1400 436 1056 c 0,20,21
 410 934 410 934 410 779.5 c 128,-1,22
 410 625 410 625 424 523.5 c 128,-1,23
 438 422 438 422 462 348 c 0,24,25
 504 214 504 214 576.5 157 c 128,-1,26
 649 100 649 100 729 100 c 0,12,13
EndSplineSet
EndChar

StartChar: one
Encoding: 49 49 42
Width: 816
GlyphClass: 2
Flags: W
LayerCount: 2
Fore
SplineSet
110 110 m 1,0,1
 226 110 226 110 259.5 128.5 c 128,-1,2
 293 147 293 147 302.5 167 c 128,-1,3
 312 187 312 187 312 217 c 2,4,-1
 312 1080 l 2,5,6
 312 1152 312 1152 299.5 1174 c 128,-1,7
 287 1196 287 1196 231 1196 c 2,8,-1
 100 1196 l 1,9,-1
 100 1306 l 1,10,11
 221 1306 221 1306 305 1369 c 128,-1,12
 389 1432 389 1432 389 1498 c 1,13,-1
 533 1500 l 1,14,-1
 532 217 l 2,15,16
 532 154 532 154 559 138 c 0,17,18
 604 110 604 110 733 110 c 1,19,-1
 733 0 l 1,20,-1
 110 0 l 1,21,-1
 110 110 l 1,0,1
EndSplineSet
EndChar

StartChar: two
Encoding: 50 50 43
Width: 1200
GlyphClass: 2
Flags: W
LayerCount: 2
Fore
SplineSet
344 1254 m 1,0,1
 417 1214 417 1214 417 1141 c 128,-1,2
 417 1068 417 1068 376 1027 c 128,-1,3
 335 986 335 986 290 986 c 0,4,5
 211 986 211 986 169.5 1033 c 128,-1,6
 128 1080 128 1080 128 1146 c 0,7,8
 128 1282 128 1282 274.5 1401 c 128,-1,9
 421 1520 421 1520 630 1520 c 128,-1,10
 839 1520 839 1520 960.5 1402.5 c 128,-1,11
 1082 1285 1082 1285 1082 1079.5 c 128,-1,12
 1082 874 1082 874 891 697 c 0,13,14
 806 618 806 618 692.5 536 c 128,-1,15
 579 454 579 454 519 405 c 0,16,17
 379 290 379 290 321 190 c 1,18,-1
 759 190 l 2,19,20
 904 190 904 190 950 235 c 0,21,22
 974 259 974 259 987 298 c 128,-1,23
 1000 337 1000 337 1016 394 c 1,24,-1
 1129 394 l 1,25,-1
 1079 0 l 1,26,-1
 144 0 l 1,27,-1
 144 120 l 2,28,29
 144 266 144 266 364 464 c 1,30,31
 530 615 530 615 605 690 c 0,32,33
 837 922 837 922 837 1143 c 0,34,35
 837 1271 837 1271 769.5 1337.5 c 128,-1,36
 702 1404 702 1404 589 1404 c 128,-1,37
 476 1404 476 1404 390 1322 c 0,38,39
 361 1293 361 1293 344 1254 c 1,0,1
EndSplineSet
EndChar

StartChar: three
Encoding: 51 51 44
Width: 1217
GlyphClass: 2
Flags: W
LayerCount: 2
Fore
SplineSet
398 1275 m 1,0,1
 463 1237 463 1237 463 1152.5 c 128,-1,2
 463 1068 463 1068 381 1034 c 0,3,4
 356 1023 356 1023 326 1023 c 0,5,6
 268 1023 268 1023 229.5 1067.5 c 128,-1,7
 191 1112 191 1112 191 1175 c 0,8,9
 191 1303 191 1303 320 1411.5 c 128,-1,10
 449 1520 449 1520 639.5 1520 c 128,-1,11
 830 1520 830 1520 962.5 1416 c 128,-1,12
 1095 1312 1095 1312 1095 1134 c 128,-1,13
 1095 956 1095 956 936 836 c 0,14,15
 892 803 892 803 847 780 c 1,16,17
 973 735 973 735 1054 636 c 128,-1,18
 1135 537 1135 537 1135 428 c 0,19,20
 1135 222 1135 222 983.5 101 c 128,-1,21
 832 -20 832 -20 622 -20 c 128,-1,22
 412 -20 412 -20 272 83 c 0,23,24
 210 128 210 128 176 184 c 128,-1,25
 142 240 142 240 142 284 c 0,26,27
 142 364 142 364 183 410.5 c 128,-1,28
 224 457 224 457 286 457 c 0,29,30
 377 457 377 457 412 374 c 0,31,32
 422 349 422 349 422 321 c 0,33,34
 422 250 422 250 363 208 c 1,35,36
 416 106 416 106 582 106 c 0,37,38
 707 106 707 106 798.5 186 c 128,-1,39
 890 266 890 266 890 417 c 0,40,41
 890 528 890 528 802 614 c 128,-1,42
 714 700 714 700 583 700 c 2,43,-1
 497 700 l 1,44,-1
 497 840 l 1,45,-1
 551 840 l 2,46,47
 683 840 683 840 766.5 925.5 c 128,-1,48
 850 1011 850 1011 850 1140.5 c 128,-1,49
 850 1270 850 1270 778 1332 c 128,-1,50
 706 1394 706 1394 600 1394 c 128,-1,51
 494 1394 494 1394 432 1328 c 0,52,53
 410 1306 410 1306 398 1275 c 1,0,1
EndSplineSet
EndChar

StartChar: four
Encoding: 52 52 45
Width: 1254
GlyphClass: 2
Flags: W
LayerCount: 2
Fore
SplineSet
75 552 m 1,0,-1
 778 1500 l 1,1,-1
 958 1500 l 1,2,-1
 958 610 l 2,3,4
 958 556 958 556 988 552 c 0,5,6
 999 550 999 550 1013 550 c 2,7,-1
 1171 550 l 1,8,-1
 1171 431 l 1,9,-1
 1008 431 l 2,10,11
 977 431 977 431 967.5 418.5 c 128,-1,12
 958 406 958 406 958 367 c 2,13,-1
 958 213 l 2,14,15
 958 150 958 150 984 135 c 0,16,17
 1028 108 1028 108 1148 108 c 1,18,-1
 1148 0 l 1,19,-1
 509 0 l 1,20,-1
 509 108 l 1,21,22
 664 108 664 108 694.5 123.5 c 128,-1,23
 725 139 725 139 731.5 161.5 c 128,-1,24
 738 184 738 184 738 222 c 2,25,-1
 738 431 l 1,26,-1
 148 431 l 1,27,-1
 75 552 l 1,0,-1
737 550 m 1,28,-1
 738 521 l 1,29,-1
 738 1207 l 1,30,-1
 259 550 l 1,31,-1
 737 550 l 1,28,-1
EndSplineSet
EndChar

StartChar: five
Encoding: 53 53 46
Width: 1239
GlyphClass: 2
Flags: W
LayerCount: 2
Fore
SplineSet
338 683 m 1,0,-1
 172 687 l 1,1,-1
 252 1500 l 1,2,-1
 1119 1500 l 1,3,4
 1120 1489 1120 1489 1120 1462 c 128,-1,5
 1120 1435 1120 1435 1105 1408 c 0,6,7
 1074 1355 1074 1355 1018 1327.5 c 128,-1,8
 962 1300 962 1300 862 1300 c 2,9,-1
 385 1300 l 1,10,-1
 331 844 l 1,11,12
 418 944 418 944 564 978 c 0,13,14
 612 990 612 990 663 990 c 0,15,16
 887 990 887 990 1005 849 c 128,-1,17
 1123 708 1123 708 1123 504 c 0,18,19
 1123 257 1123 257 966.5 118.5 c 128,-1,20
 810 -20 810 -20 600.5 -20 c 128,-1,21
 391 -20 391 -20 260.5 78 c 128,-1,22
 130 176 130 176 130 289.5 c 128,-1,23
 130 403 130 403 216 444 c 0,24,25
 242 457 242 457 272 457 c 0,26,27
 333 457 333 457 371.5 417 c 128,-1,28
 410 377 410 377 410 312 c 128,-1,29
 410 247 410 247 350 207 c 1,30,31
 404 96 404 96 570 96 c 0,32,33
 694 96 694 96 781 195.5 c 128,-1,34
 868 295 868 295 868 464 c 128,-1,35
 868 633 868 633 797.5 731.5 c 128,-1,36
 727 830 727 830 582.5 830 c 128,-1,37
 438 830 438 830 338 683 c 1,0,-1
EndSplineSet
EndChar

StartChar: six
Encoding: 54 54 47
Width: 1273
GlyphClass: 2
Flags: W
LayerCount: 2
Fore
SplineSet
382 758 m 1,0,1
 506 932 506 932 740 932 c 0,2,3
 815 932 815 932 896.5 899 c 128,-1,4
 978 866 978 866 1040 807 c 0,5,6
 1173 679 1173 679 1173 479 c 128,-1,7
 1173 279 1173 279 1039.5 129.5 c 128,-1,8
 906 -20 906 -20 690 -20 c 0,9,10
 405 -20 405 -20 261 206 c 0,11,12
 139 397 139 397 139 686 c 0,13,14
 139 1079 139 1079 305 1299.5 c 128,-1,15
 471 1520 471 1520 722 1520 c 0,16,17
 900 1520 900 1520 1011 1432.5 c 128,-1,18
 1122 1345 1122 1345 1122 1230.5 c 128,-1,19
 1122 1116 1122 1116 1036 1076 c 0,20,21
 1009 1063 1009 1063 979 1063 c 0,22,23
 919 1063 919 1063 880.5 1103 c 128,-1,24
 842 1143 842 1143 842 1199 c 0,25,26
 842 1284 842 1284 918 1321 c 1,27,28
 876 1394 876 1394 752 1394 c 0,29,30
 594 1394 594 1394 485.5 1256 c 128,-1,31
 377 1118 377 1118 377 889 c 0,32,33
 377 843 377 843 382 758 c 1,0,1
415 475 m 0,34,35
 415 400 415 400 443 319 c 128,-1,36
 471 238 471 238 504 194 c 0,37,38
 572 105 572 105 672 105 c 0,39,40
 777 105 777 105 853 203.5 c 128,-1,41
 929 302 929 302 929 462 c 128,-1,42
 929 622 929 622 859 712.5 c 128,-1,43
 789 803 789 803 675.5 803 c 128,-1,44
 562 803 562 803 488.5 713.5 c 128,-1,45
 415 624 415 624 415 475 c 0,34,35
EndSplineSet
EndChar

StartChar: seven
Encoding: 55 55 48
Width: 1151
GlyphClass: 2
Flags: W
LayerCount: 2
Fore
SplineSet
414.5 77 m 128,-1,1
 403 114 403 114 403 186.5 c 128,-1,2
 403 259 403 259 424 353 c 128,-1,3
 445 447 445 447 481 543.5 c 128,-1,4
 517 640 517 640 565 737 c 128,-1,5
 613 834 613 834 666 929.5 c 128,-1,6
 719 1025 719 1025 774.5 1118.5 c 128,-1,7
 830 1212 830 1212 881 1300 c 1,8,-1
 479 1300 l 2,9,10
 298 1300 298 1300 253 1198 c 0,11,12
 238 1164 238 1164 230 1118 c 2,13,-1
 220 1055 l 1,14,-1
 93 1053 l 1,15,-1
 162 1500 l 1,16,-1
 1029 1500 l 1,17,-1
 1085 1371 l 1,18,19
 795 958 795 958 707 554 c 0,20,21
 672 393 672 393 657.5 258.5 c 128,-1,22
 643 124 643 124 630 76.5 c 128,-1,23
 617 29 617 29 593 4.5 c 128,-1,24
 569 -20 569 -20 536.5 -20 c 128,-1,25
 504 -20 504 -20 483 -11.5 c 128,-1,26
 462 -3 462 -3 444 18.5 c 128,-1,0
 426 40 426 40 414.5 77 c 128,-1,1
EndSplineSet
EndChar

StartChar: eight
Encoding: 56 56 49
Width: 1250
GlyphClass: 2
Flags: W
LayerCount: 2
Fore
SplineSet
409 794 m 1,0,1
 196 945 196 945 196 1129.5 c 128,-1,2
 196 1314 196 1314 327.5 1417 c 128,-1,3
 459 1520 459 1520 638.5 1520 c 128,-1,4
 818 1520 818 1520 940.5 1420.5 c 128,-1,5
 1063 1321 1063 1321 1063 1148 c 0,6,7
 1063 1044 1063 1044 1002.5 944.5 c 128,-1,8
 942 845 942 845 842 796 c 1,9,10
 980 715 980 715 1033.5 651 c 128,-1,11
 1087 587 1087 587 1111 527.5 c 128,-1,12
 1135 468 1135 468 1135 390 c 0,13,14
 1135 223 1135 223 996.5 101.5 c 128,-1,15
 858 -20 858 -20 625.5 -20 c 128,-1,16
 393 -20 393 -20 257.5 88 c 128,-1,17
 122 196 122 196 122 401 c 128,-1,18
 122 606 122 606 299 732 c 0,19,20
 351 769 351 769 409 794 c 1,0,1
733 857 m 1,21,22
 877 934 877 934 877 1147 c 0,23,24
 877 1327 877 1327 743 1386 c 0,25,26
 700 1405 700 1405 650 1405 c 0,27,28
 550 1405 550 1405 486.5 1347 c 128,-1,29
 423 1289 423 1289 423 1212 c 128,-1,30
 423 1135 423 1135 449 1087 c 128,-1,31
 475 1039 475 1039 527.5 990 c 128,-1,32
 580 941 580 941 733 857 c 1,21,22
517 724 m 1,33,34
 330 650 330 650 330 383 c 0,35,36
 330 271 330 271 407.5 188 c 128,-1,37
 485 105 485 105 610.5 105 c 128,-1,38
 736 105 736 105 813.5 168 c 128,-1,39
 891 231 891 231 891 343 c 0,40,41
 891 497 891 497 652 642 c 0,42,43
 585 682 585 682 517 724 c 1,33,34
EndSplineSet
EndChar

StartChar: nine
Encoding: 57 57 50
Width: 1273
GlyphClass: 2
Flags: W
LayerCount: 2
Fore
SplineSet
906 741 m 1,0,1
 777 568 777 568 563 568 c 0,2,3
 379 568 379 568 247 694.5 c 128,-1,4
 115 821 115 821 115 1021 c 128,-1,5
 115 1221 115 1221 248.5 1370.5 c 128,-1,6
 382 1520 382 1520 598 1520 c 0,7,8
 883 1520 883 1520 1027 1294 c 0,9,10
 1149 1103 1149 1103 1149 814 c 0,11,12
 1149 421 1149 421 983 200.5 c 128,-1,13
 817 -20 817 -20 566 -20 c 0,14,15
 389 -20 389 -20 277.5 63.5 c 128,-1,16
 166 147 166 147 166 255 c 128,-1,17
 166 363 166 363 252 404 c 0,18,19
 278 417 278 417 308 417 c 0,20,21
 369 417 369 417 407.5 377 c 128,-1,22
 446 337 446 337 446 281 c 0,23,24
 446 198 446 198 376 161 c 1,25,26
 423 106 423 106 522 106 c 0,27,28
 706 106 706 106 808.5 242 c 128,-1,29
 911 378 911 378 911 611 c 0,30,31
 911 658 911 658 906 741 c 1,0,1
796 793 m 128,-1,33
 870 889 870 889 870 1050 c 128,-1,34
 870 1211 870 1211 794.5 1303 c 128,-1,35
 719 1395 719 1395 615 1395 c 128,-1,36
 511 1395 511 1395 435 1296.5 c 128,-1,37
 359 1198 359 1198 359 1038 c 128,-1,38
 359 878 359 878 429 787.5 c 128,-1,39
 499 697 499 697 610.5 697 c 128,-1,32
 722 697 722 697 796 793 c 128,-1,33
EndSplineSet
EndChar

StartChar: less
Encoding: 60 60 53
Width: 1536
GlyphClass: 2
Flags: W
LayerCount: 2
Fore
SplineSet
119 682 m 1,0,-1
 1230 1263 l 1,1,-1
 1230 1089 l 1,2,-1
 422 659 l 1,3,-1
 1230 230 l 1,4,-1
 1230 56 l 1,5,-1
 119 637 l 1,6,-1
 119 682 l 1,0,-1
EndSplineSet
EndChar

StartChar: equal
Encoding: 61 61 54
Width: 1360
GlyphClass: 2
Flags: W
LayerCount: 2
Fore
SplineSet
127 984 m 1,0,-1
 1228 984 l 1,1,-1
 1228 821 l 1,2,-1
 127 821 l 1,3,-1
 127 984 l 1,0,-1
127 537 m 1,4,-1
 1228 537 l 1,5,-1
 1228 374 l 1,6,-1
 127 374 l 1,7,-1
 127 537 l 1,4,-1
EndSplineSet
EndChar

StartChar: question
Encoding: 63 63 56
Width: 1045
GlyphClass: 2
Flags: W
LayerCount: 2
Fore
SplineSet
415 495 m 2,0,1
 415 622 415 622 494 729 c 0,2,3
 528 775 528 775 567 817 c 0,4,5
 719 981 719 981 719 1179 c 0,6,7
 719 1338 719 1338 587 1382 c 0,8,9
 548 1395 548 1395 508 1395 c 0,10,11
 426 1395 426 1395 358 1362 c 128,-1,12
 290 1329 290 1329 263 1264 c 1,13,14
 312 1250 312 1250 341.5 1210 c 128,-1,15
 371 1170 371 1170 371 1108.5 c 128,-1,16
 371 1047 371 1047 332.5 1003 c 128,-1,17
 294 959 294 959 217 959 c 0,18,19
 109 959 109 959 67 1058 c 0,20,21
 51 1094 51 1094 51 1150.5 c 128,-1,22
 51 1207 51 1207 79.5 1273.5 c 128,-1,23
 108 1340 108 1340 169 1396 c 0,24,25
 306 1520 306 1520 504 1520 c 128,-1,26
 702 1520 702 1520 826 1412 c 128,-1,27
 950 1304 950 1304 950 1129 c 128,-1,28
 950 954 950 954 750 767 c 0,29,30
 625 650 625 650 582 581.5 c 128,-1,31
 539 513 539 513 534 450 c 1,32,-1
 415 450 l 1,33,-1
 415 495 l 2,0,1
333 134 m 256,34,35
 333 198 333 198 378 243 c 128,-1,36
 423 288 423 288 487 288 c 256,37,38
 551 288 551 288 596 243 c 128,-1,39
 641 198 641 198 641 134 c 256,40,41
 641 70 641 70 596 25 c 128,-1,42
 551 -20 551 -20 487 -20 c 256,43,44
 423 -20 423 -20 378 25 c 128,-1,45
 333 70 333 70 333 134 c 256,34,35
EndSplineSet
EndChar

StartChar: at
Encoding: 64 64 57
Width: 1989
GlyphClass: 2
Flags: W
LayerCount: 2
Fore
SplineSet
1631 -86 m 1,0,1
 1412 -280 1412 -280 1084 -280 c 0,2,3
 671 -280 671 -280 414.5 -46 c 128,-1,4
 158 188 158 188 158 567 c 0,5,6
 158 851 158 851 281.5 1067.5 c 128,-1,7
 405 1284 405 1284 621.5 1401 c 128,-1,8
 838 1518 838 1518 1101 1518 c 0,9,10
 1469 1518 1469 1518 1669 1307 c 0,11,12
 1849 1117 1849 1117 1849 816 c 1,13,14
 1848 575 1848 575 1725 390 c 128,-1,15
 1602 205 1602 205 1388 205 c 0,16,17
 1258 205 1258 205 1202 301 c 0,18,19
 1184 332 1184 332 1180 373 c 1,20,21
 1127 295 1127 295 1052 250 c 128,-1,22
 977 205 977 205 900 205 c 0,23,24
 766 205 766 205 703.5 295 c 128,-1,25
 641 385 641 385 641 479.5 c 128,-1,26
 641 574 641 574 657.5 645 c 128,-1,27
 674 716 674 716 703 778 c 0,28,29
 762 905 762 905 865 984 c 128,-1,30
 968 1063 968 1063 1079.5 1063 c 128,-1,31
 1191 1063 1191 1063 1257 994 c 1,32,-1
 1271 1054 l 1,33,-1
 1463 1054 l 1,34,-1
 1341 535 l 1,35,36
 1329 476 1329 476 1329 432 c 0,37,38
 1329 315 1329 315 1424 315 c 0,39,40
 1545 315 1545 315 1628.5 463.5 c 128,-1,41
 1712 612 1712 612 1712 786 c 0,42,43
 1712 1103 1712 1103 1553.5 1249 c 128,-1,44
 1395 1395 1395 1395 1115 1395 c 0,45,46
 789 1395 789 1395 586.5 1161 c 128,-1,47
 384 927 384 927 384 561 c 0,48,49
 384 256 384 256 578.5 51 c 128,-1,50
 773 -154 773 -154 1102 -154 c 0,51,52
 1334 -154 1334 -154 1506 -50 c 0,53,54
 1555 -21 1555 -21 1586 11 c 1,55,-1
 1631 -86 l 1,0,1
1236 910 m 1,56,57
 1195 957 1195 957 1131 957 c 0,58,59
 1015 957 1015 957 934.5 805 c 128,-1,60
 854 653 854 653 854 494 c 128,-1,61
 854 335 854 335 956 335 c 0,62,63
 1131 335 1131 335 1236 910 c 1,56,57
EndSplineSet
EndChar

StartChar: A
Encoding: 65 65 58
Width: 1581
GlyphClass: 2
Flags: W
LayerCount: 2
Fore
SplineSet
-11 110 m 1,0,1
 72 110 72 110 114.5 135.5 c 128,-1,2
 157 161 157 161 180 219 c 1,3,-1
 720 1500 l 1,4,-1
 891 1500 l 1,5,-1
 1385 219 l 1,6,7
 1412 155 1412 155 1445 132.5 c 128,-1,8
 1478 110 1478 110 1574 110 c 1,9,-1
 1574 0 l 1,10,-1
 957 0 l 1,11,-1
 957 110 l 1,12,13
 1089 110 1089 110 1113.5 128 c 128,-1,14
 1138 146 1138 146 1136.5 167 c 128,-1,15
 1135 188 1135 188 1123 219 c 2,16,-1
 1033 470 l 1,17,-1
 452 470 l 1,18,-1
 349 219 l 1,19,20
 326 159 326 159 363 134.5 c 128,-1,21
 400 110 400 110 536 110 c 1,22,-1
 536 0 l 1,23,-1
 -11 0 l 1,24,-1
 -11 110 l 1,0,1
994 580 m 1,25,-1
 762 1228 l 1,26,-1
 497 580 l 1,27,-1
 994 580 l 1,25,-1
EndSplineSet
EndChar

StartChar: B
Encoding: 66 66 59
Width: 1363
GlyphClass: 2
Flags: W
LayerCount: 2
Fore
SplineSet
959 790 m 1,0,1
 1291 703 1291 703 1291 421 c 0,2,3
 1291 304 1291 304 1255.5 238.5 c 128,-1,4
 1220 173 1220 173 1176 133 c 0,5,6
 1032 0 1032 0 680 0 c 2,7,-1
 73 0 l 1,8,-1
 73 110 l 1,9,10
 178 110 178 110 204 128.5 c 128,-1,11
 230 147 230 147 235 168 c 128,-1,12
 240 189 240 189 240 219 c 2,13,-1
 240 1281 l 2,14,15
 240 1346 240 1346 218 1362 c 0,16,17
 178 1390 178 1390 72 1390 c 1,18,-1
 72 1500 l 1,19,-1
 629 1500 l 2,20,21
 1034 1500 1034 1500 1160 1308 c 0,22,23
 1210 1232 1210 1232 1210 1131 c 0,24,25
 1210 893 1210 893 959 790 c 1,0,1
601 822 m 1,26,27
 881 828 881 828 942 986 c 0,28,29
 962 1038 962 1038 962 1102 c 0,30,31
 962 1237 962 1237 882.5 1313.5 c 128,-1,32
 803 1390 803 1390 610 1390 c 2,33,-1
 465 1390 l 1,34,-1
 465 822 l 1,35,-1
 601 822 l 1,26,27
661 110 m 2,36,37
 959 110 959 110 1023 304 c 0,38,39
 1042 361 1042 361 1042 428 c 0,40,41
 1042 566 1042 566 937.5 647 c 128,-1,42
 833 728 833 728 651 732 c 0,43,44
 630 732 630 732 608 732 c 128,-1,45
 586 732 586 732 563 732 c 2,46,-1
 465 732 l 1,47,-1
 465 110 l 1,48,-1
 661 110 l 2,36,37
EndSplineSet
EndChar

StartChar: C
Encoding: 67 67 60
Width: 1491
GlyphClass: 2
Flags: W
LayerCount: 2
Fore
SplineSet
798 110 m 0,0,1
 1113 110 1113 110 1196 400 c 1,2,-1
 1340 400 l 1,3,4
 1340 322 1340 322 1298 246.5 c 128,-1,5
 1256 171 1256 171 1180 112 c 0,6,7
 1012 -20 1012 -20 748 -20 c 128,-1,8
 484 -20 484 -20 296 156 c 0,9,10
 78 359 78 359 78 750 c 0,11,12
 78 1062 78 1062 246 1276 c 0,13,14
 365 1429 365 1429 563 1489 c 0,15,16
 665 1520 665 1520 787 1520 c 0,17,18
 1028 1520 1028 1520 1183 1409.5 c 128,-1,19
 1338 1299 1338 1299 1338 1132 c 0,20,21
 1338 1007 1338 1007 1240 964 c 0,22,23
 1211 951 1211 951 1177 951 c 0,24,25
 1072 951 1072 951 1036 1040 c 0,26,27
 1025 1068 1025 1068 1025 1106.5 c 128,-1,28
 1025 1145 1025 1145 1047 1182.5 c 128,-1,29
 1069 1220 1069 1220 1105 1240 c 1,30,31
 1024 1395 1024 1395 815 1395 c 128,-1,32
 606 1395 606 1395 475 1236.5 c 128,-1,33
 344 1078 344 1078 344 760.5 c 128,-1,34
 344 443 344 443 477 276.5 c 128,-1,35
 610 110 610 110 798 110 c 0,0,1
EndSplineSet
EndChar

StartChar: D
Encoding: 68 68 61
Width: 1504
GlyphClass: 2
Flags: W
LayerCount: 2
Fore
SplineSet
72 110 m 1,0,1
 178 110 178 110 204 128.5 c 128,-1,2
 230 147 230 147 235 168 c 128,-1,3
 240 189 240 189 240 219 c 2,4,-1
 240 1281 l 2,5,6
 240 1346 240 1346 218 1362 c 0,7,8
 178 1390 178 1390 72 1390 c 1,9,-1
 72 1500 l 1,10,-1
 609 1500 l 2,11,12
 1255 1500 1255 1500 1386 1076 c 0,13,14
 1426 944 1426 944 1426 792.5 c 128,-1,15
 1426 641 1426 641 1396 526.5 c 128,-1,16
 1366 412 1366 412 1312 324 c 0,17,18
 1209 157 1209 157 1029.5 78.5 c 128,-1,19
 850 0 850 0 629 0 c 2,20,-1
 72 0 l 1,21,-1
 72 110 l 1,0,1
651 111 m 2,22,23
 1165 111 1165 111 1165 781 c 0,24,25
 1165 1067 1165 1067 1023 1233.5 c 128,-1,26
 881 1400 881 1400 600 1400 c 2,27,-1
 465 1400 l 1,28,-1
 465 111 l 1,29,-1
 651 111 l 2,22,23
EndSplineSet
EndChar

StartChar: E
Encoding: 69 69 62
Width: 1337
GlyphClass: 2
Flags: W
LayerCount: 2
Fore
SplineSet
71 110 m 1,0,1
 168 110 168 110 196 128 c 128,-1,2
 224 146 224 146 232 166.5 c 128,-1,3
 240 187 240 187 240 217 c 2,4,-1
 240 1281 l 2,5,6
 240 1343 240 1343 203 1366.5 c 128,-1,7
 166 1390 166 1390 72 1390 c 1,8,-1
 72 1500 l 1,9,-1
 1160 1500 l 1,10,-1
 1199 1137 l 1,11,-1
 1054 1136 l 1,12,-1
 1027 1249 l 2,13,14
 1007 1330 1007 1330 986 1351 c 0,15,16
 949 1388 949 1388 861 1388 c 2,17,-1
 465 1388 l 1,18,-1
 465 806 l 1,19,-1
 659 806 l 2,20,21
 772 806 772 806 797.5 821 c 128,-1,22
 823 836 823 836 832.5 864 c 128,-1,23
 842 892 842 892 842 945 c 1,24,-1
 972 945 l 1,25,-1
 972 558 l 1,26,-1
 842 558 l 1,27,28
 842 651 842 651 805.5 673.5 c 128,-1,29
 769 696 769 696 659 696 c 2,30,-1
 465 696 l 1,31,-1
 465 110 l 1,32,-1
 890 110 l 2,33,34
 1006 110 1006 110 1044 188 c 0,35,36
 1056 212 1056 212 1068 238 c 1,37,-1
 1113 361 l 1,38,-1
 1258 361 l 1,39,-1
 1219 0 l 1,40,-1
 71 0 l 1,41,-1
 71 110 l 1,0,1
EndSplineSet
EndChar

StartChar: F
Encoding: 70 70 63
Width: 1272
GlyphClass: 2
Flags: W
LayerCount: 2
Fore
SplineSet
72 110 m 1,0,1
 178 110 178 110 204 128.5 c 128,-1,2
 230 147 230 147 235 168 c 128,-1,3
 240 189 240 189 240 219 c 2,4,-1
 240 1281 l 2,5,6
 240 1343 240 1343 203 1366.5 c 128,-1,7
 166 1390 166 1390 72 1390 c 1,8,-1
 72 1500 l 1,9,-1
 1140 1500 l 1,10,-1
 1179 1137 l 1,11,-1
 1034 1136 l 1,12,-1
 1007 1249 l 2,13,14
 987 1330 987 1330 966 1351 c 0,15,16
 929 1388 929 1388 841 1388 c 2,17,-1
 465 1388 l 1,18,-1
 465 806 l 1,19,-1
 649 806 l 2,20,21
 762 806 762 806 787.5 821 c 128,-1,22
 813 836 813 836 822.5 864 c 128,-1,23
 832 892 832 892 832 945 c 1,24,-1
 962 945 l 1,25,-1
 962 558 l 1,26,-1
 832 558 l 1,27,28
 832 651 832 651 795.5 673.5 c 128,-1,29
 759 696 759 696 649 696 c 2,30,-1
 465 696 l 1,31,-1
 465 269 l 2,32,33
 465 218 465 218 472.5 187 c 128,-1,34
 480 156 480 156 522.5 133 c 128,-1,35
 565 110 565 110 779 110 c 1,36,-1
 779 0 l 1,37,-1
 72 0 l 1,38,-1
 72 110 l 1,0,1
EndSplineSet
EndChar

StartChar: G
Encoding: 71 71 64
Width: 1546
GlyphClass: 2
Flags: W
LayerCount: 2
Fore
SplineSet
106 499.5 m 128,-1,1
 78 611 78 611 78 727.5 c 128,-1,2
 78 844 78 844 96.5 938 c 128,-1,3
 115 1032 115 1032 153 1118 c 0,4,5
 234 1301 234 1301 400 1410.5 c 128,-1,6
 566 1520 566 1520 808 1520 c 128,-1,7
 1050 1520 1050 1520 1211 1400 c 128,-1,8
 1372 1280 1372 1280 1372 1107 c 0,9,10
 1372 989 1372 989 1278 948 c 0,11,12
 1249 935 1249 935 1216 935 c 0,13,14
 1152 935 1152 935 1112 975 c 128,-1,15
 1072 1015 1072 1015 1072 1068 c 0,16,17
 1072 1174 1072 1174 1157 1214 c 1,18,19
 1117 1298 1117 1298 1021 1346.5 c 128,-1,20
 925 1395 925 1395 824 1395 c 0,21,22
 611 1395 611 1395 476.5 1236 c 128,-1,23
 342 1077 342 1077 342 759.5 c 128,-1,24
 342 442 342 442 482 276 c 128,-1,25
 622 110 622 110 822 110 c 0,26,27
 985 110 985 110 1074.5 192 c 128,-1,28
 1164 274 1164 274 1164 372.5 c 128,-1,29
 1164 471 1164 471 1119 496.5 c 128,-1,30
 1074 522 1074 522 913 522 c 1,31,-1
 913 655 l 1,32,-1
 1371 655 l 1,33,-1
 1371 0 l 1,34,-1
 1237 0 l 1,35,-1
 1200 120 l 1,36,37
 1114 30 1114 30 934 -6 c 0,38,39
 868 -20 868 -20 784 -20 c 128,-1,40
 700 -20 700 -20 613.5 -1.5 c 128,-1,41
 527 17 527 17 448 56 c 128,-1,42
 369 95 369 95 301.5 156 c 128,-1,43
 234 217 234 217 184 302.5 c 128,-1,0
 134 388 134 388 106 499.5 c 128,-1,1
EndSplineSet
EndChar

StartChar: H
Encoding: 72 72 65
Width: 1675
GlyphClass: 2
Flags: W
LayerCount: 2
Fore
SplineSet
72 110 m 1,0,1
 167 110 167 110 196 128.5 c 128,-1,2
 225 147 225 147 233 168 c 128,-1,3
 241 189 241 189 241 219 c 2,4,-1
 240 1281 l 2,5,6
 240 1346 240 1346 218 1362 c 0,7,8
 178 1390 178 1390 72 1390 c 1,9,-1
 72 1500 l 1,10,-1
 634 1500 l 1,11,-1
 634 1390 l 1,12,13
 539 1390 539 1390 510 1371.5 c 128,-1,14
 481 1353 481 1353 473 1332 c 128,-1,15
 465 1311 465 1311 465 1281 c 2,16,-1
 465 834 l 1,17,-1
 1210 834 l 1,18,-1
 1210 1281 l 2,19,20
 1210 1346 1210 1346 1188 1362 c 0,21,22
 1148 1390 1148 1390 1042 1390 c 1,23,-1
 1042 1500 l 1,24,-1
 1604 1500 l 1,25,-1
 1604 1390 l 1,26,27
 1509 1390 1509 1390 1480 1371.5 c 128,-1,28
 1451 1353 1451 1353 1443 1332 c 128,-1,29
 1435 1311 1435 1311 1435 1281 c 2,30,-1
 1436 219 l 2,31,32
 1436 154 1436 154 1458 138 c 0,33,34
 1498 110 1498 110 1604 110 c 1,35,-1
 1604 0 l 1,36,-1
 1042 0 l 1,37,-1
 1042 110 l 1,38,39
 1137 110 1137 110 1166 128.5 c 128,-1,40
 1195 147 1195 147 1203 168 c 128,-1,41
 1211 189 1211 189 1211 219 c 2,42,-1
 1210 704 l 1,43,-1
 465 704 l 1,44,-1
 466 219 l 2,45,46
 466 154 466 154 488 138 c 0,47,48
 528 110 528 110 634 110 c 1,49,-1
 634 0 l 1,50,-1
 72 0 l 1,51,-1
 72 110 l 1,0,1
EndSplineSet
EndChar

StartChar: I
Encoding: 73 73 66
Width: 722
GlyphClass: 2
Flags: W
LayerCount: 2
Fore
SplineSet
81 110 m 1,0,1
 176 110 176 110 205 128.5 c 128,-1,2
 234 147 234 147 242 168 c 128,-1,3
 250 189 250 189 250 219 c 2,4,-1
 249 1281 l 2,5,6
 249 1346 249 1346 226 1362 c 0,7,8
 187 1390 187 1390 81 1390 c 1,9,-1
 81 1500 l 1,10,-1
 643 1500 l 1,11,-1
 643 1390 l 1,12,13
 548 1390 548 1390 519 1371.5 c 128,-1,14
 490 1353 490 1353 482 1332 c 128,-1,15
 474 1311 474 1311 474 1281 c 2,16,-1
 475 219 l 2,17,18
 475 154 475 154 498 138 c 0,19,20
 537 110 537 110 643 110 c 1,21,-1
 643 0 l 1,22,-1
 81 0 l 1,23,-1
 81 110 l 1,0,1
EndSplineSet
EndChar

StartChar: J
Encoding: 74 74 67
Width: 1278
GlyphClass: 2
Flags: W
LayerCount: 2
Fore
SplineSet
522 107 m 0,0,1
 799 107 799 107 799 515 c 2,2,-1
 799 1281 l 2,3,4
 799 1346 799 1346 772 1362 c 0,5,6
 723 1390 723 1390 592 1390 c 1,7,-1
 592 1500 l 1,8,-1
 1192 1500 l 1,9,-1
 1192 1390 l 1,10,11
 1097 1390 1097 1390 1068 1371.5 c 128,-1,12
 1039 1353 1039 1353 1031 1332 c 128,-1,13
 1023 1311 1023 1311 1023 1281 c 2,14,-1
 1024 514 l 2,15,16
 1024 119 1024 119 747 14 c 0,17,18
 657 -20 657 -20 548 -20 c 0,19,20
 342 -20 342 -20 212.5 86 c 128,-1,21
 83 192 83 192 83 347 c 0,22,23
 83 430 83 430 130 482.5 c 128,-1,24
 177 535 177 535 246 535 c 128,-1,25
 315 535 315 535 358 490 c 128,-1,26
 401 445 401 445 401 387.5 c 128,-1,27
 401 330 401 330 373 290 c 128,-1,28
 345 250 345 250 301 232 c 1,29,30
 325 174 325 174 386.5 140.5 c 128,-1,31
 448 107 448 107 522 107 c 0,0,1
EndSplineSet
EndChar

StartChar: K
Encoding: 75 75 68
Width: 1562
GlyphClass: 2
Flags: W
LayerCount: 2
Fore
SplineSet
896 110 m 1,0,1
 1113 115 1113 115 1018 261 c 1,2,-1
 711 752 l 1,3,-1
 465 513 l 1,4,-1
 466 219 l 2,5,6
 466 154 466 154 488 138 c 0,7,8
 526 110 526 110 632 110 c 1,9,-1
 632 0 l 1,10,-1
 72 0 l 1,11,-1
 72 110 l 1,12,13
 167 110 167 110 196 128.5 c 128,-1,14
 225 147 225 147 233 168 c 128,-1,15
 241 189 241 189 241 219 c 2,16,-1
 240 1281 l 2,17,18
 240 1346 240 1346 218 1362 c 0,19,20
 178 1390 178 1390 72 1390 c 1,21,-1
 72 1500 l 1,22,-1
 632 1500 l 1,23,-1
 632 1390 l 1,24,25
 537 1390 537 1390 509 1371.5 c 128,-1,26
 481 1353 481 1353 473 1332 c 128,-1,27
 465 1311 465 1311 465 1281 c 2,28,-1
 465 683 l 1,29,-1
 1060 1279 l 1,30,31
 1115 1332 1115 1332 1074 1361 c 128,-1,32
 1033 1390 1033 1390 938 1390 c 1,33,-1
 938 1500 l 1,34,-1
 1473 1500 l 1,35,-1
 1473 1390 l 1,36,37
 1406 1386 1406 1386 1362.5 1364.5 c 128,-1,38
 1319 1343 1319 1343 1269 1293 c 1,39,-1
 858 894 l 1,40,-1
 1272 259 l 1,41,42
 1322 179 1322 179 1378.5 144.5 c 128,-1,43
 1435 110 1435 110 1510 110 c 0,44,45
 1517 110 1517 110 1523 110 c 1,46,-1
 1523 0 l 1,47,-1
 896 0 l 1,48,-1
 896 110 l 1,0,1
EndSplineSet
EndChar

StartChar: L
Encoding: 76 76 69
Width: 1276
GlyphClass: 2
Flags: W
LayerCount: 2
Fore
SplineSet
72 110 m 1,0,1
 167 110 167 110 196 128.5 c 128,-1,2
 225 147 225 147 233 168 c 128,-1,3
 241 189 241 189 241 219 c 2,4,-1
 240 1281 l 2,5,6
 240 1346 240 1346 218 1362 c 0,7,8
 178 1390 178 1390 72 1390 c 1,9,-1
 72 1500 l 1,10,-1
 635 1500 l 1,11,-1
 635 1390 l 1,12,13
 540 1390 540 1390 511 1371.5 c 128,-1,14
 482 1353 482 1353 474 1332 c 128,-1,15
 466 1311 466 1311 466 1281 c 2,16,-1
 466 116 l 1,17,-1
 811 116 l 2,18,19
 971 116 971 116 1031 291 c 1,20,-1
 1071 404 l 1,21,-1
 1209 403 l 1,22,-1
 1140 0 l 1,23,-1
 72 0 l 1,24,-1
 72 110 l 1,0,1
EndSplineSet
EndChar

StartChar: M
Encoding: 77 77 70
Width: 1970
GlyphClass: 2
Flags: W
LayerCount: 2
Fore
SplineSet
82 110 m 1,0,1
 176 110 176 110 205 128.5 c 128,-1,2
 234 147 234 147 242 168 c 128,-1,3
 250 189 250 189 250 219 c 2,4,-1
 250 1281 l 2,5,6
 250 1346 250 1346 228 1362 c 0,7,8
 188 1390 188 1390 82 1390 c 1,9,-1
 82 1500 l 1,10,-1
 554 1500 l 1,11,-1
 997 343 l 1,12,-1
 1422 1500 l 1,13,-1
 1889 1500 l 1,14,-1
 1889 1390 l 1,15,16
 1794 1390 1794 1390 1765 1371.5 c 128,-1,17
 1736 1353 1736 1353 1728 1332 c 128,-1,18
 1720 1311 1720 1311 1720 1281 c 2,19,-1
 1720 219 l 2,20,21
 1720 155 1720 155 1743 138 c 0,22,23
 1783 110 1783 110 1889 110 c 1,24,-1
 1889 0 l 1,25,-1
 1334 0 l 1,26,-1
 1334 110 l 1,27,28
 1428 110 1428 110 1455.5 128.5 c 128,-1,29
 1483 147 1483 147 1490 168 c 128,-1,30
 1497 189 1497 189 1497 219 c 2,31,-1
 1497 1286 l 1,32,-1
 1033 0 l 1,33,-1
 922 0 l 1,34,-1
 410 1287 l 1,35,-1
 410 219 l 2,36,37
 410 154 410 154 432 138 c 0,38,39
 472 110 472 110 578 110 c 1,40,-1
 578 0 l 1,41,-1
 82 0 l 1,42,-1
 82 110 l 1,0,1
EndSplineSet
EndChar

StartChar: N
Encoding: 78 78 71
Width: 1650
GlyphClass: 2
Flags: W
LayerCount: 2
Fore
SplineSet
67 112 m 1,0,1
 165 112 165 112 194 131 c 128,-1,2
 223 150 223 150 231.5 171.5 c 128,-1,3
 240 193 240 193 240 223 c 2,4,-1
 240 1277 l 2,5,6
 240 1342 240 1342 216 1359 c 0,7,8
 176 1388 176 1388 67 1388 c 1,9,-1
 67 1500 l 1,10,-1
 412 1500 l 1,11,-1
 1270 411 l 1,12,-1
 1270 1277 l 2,13,14
 1270 1343 1270 1343 1247 1359 c 0,15,16
 1207 1388 1207 1388 1099 1388 c 1,17,-1
 1099 1500 l 1,18,-1
 1603 1500 l 1,19,-1
 1603 1388 l 1,20,21
 1505 1388 1505 1388 1476 1369 c 128,-1,22
 1447 1350 1447 1350 1438.5 1328.5 c 128,-1,23
 1430 1307 1430 1307 1430 1277 c 2,24,-1
 1430 0 l 1,25,-1
 1307 0 l 1,26,-1
 400 1151 l 1,27,-1
 400 223 l 2,28,29
 400 158 400 158 424 141 c 0,30,31
 464 112 464 112 574 112 c 1,32,-1
 574 0 l 1,33,-1
 67 0 l 1,34,-1
 67 112 l 1,0,1
EndSplineSet
EndChar

StartChar: O
Encoding: 79 79 72
Width: 1570
GlyphClass: 2
Flags: W
LayerCount: 2
Fore
SplineSet
78 750 m 0,0,1
 78 940 78 940 136 1087.5 c 128,-1,2
 194 1235 194 1235 292 1331 c 0,3,4
 485 1520 485 1520 785 1520 c 128,-1,5
 1085 1520 1085 1520 1278 1334 c 0,6,7
 1492 1129 1492 1129 1492 755 c 128,-1,8
 1492 381 1492 381 1295.5 180.5 c 128,-1,9
 1099 -20 1099 -20 785 -20 c 0,10,11
 472 -20 472 -20 275 183 c 128,-1,12
 78 386 78 386 78 750 c 0,0,1
788 110 m 0,13,14
 963 110 963 110 1082 240 c 0,15,16
 1232 404 1232 404 1232 739 c 128,-1,17
 1232 1074 1232 1074 1104 1232 c 128,-1,18
 976 1390 976 1390 782 1390 c 0,19,20
 589 1390 589 1390 463.5 1232.5 c 128,-1,21
 338 1075 338 1075 338 760 c 0,22,23
 338 307 338 307 586 163 c 0,24,25
 677 110 677 110 788 110 c 0,13,14
EndSplineSet
EndChar

StartChar: P
Encoding: 80 80 73
Width: 1270
GlyphClass: 2
Flags: W
LayerCount: 2
Fore
SplineSet
73 110 m 1,0,1
 178 110 178 110 204 128.5 c 128,-1,2
 230 147 230 147 235 168 c 128,-1,3
 240 189 240 189 240 219 c 2,4,-1
 240 1281 l 2,5,6
 240 1346 240 1346 218 1362 c 0,7,8
 178 1390 178 1390 72 1390 c 1,9,-1
 72 1500 l 1,10,-1
 619 1500 l 2,11,12
 1029 1500 1029 1500 1152 1272 c 0,13,14
 1201 1182 1201 1182 1201 1054.5 c 128,-1,15
 1201 927 1201 927 1150 834 c 0,16,17
 1011 584 1011 584 596 584 c 0,18,19
 577 584 577 584 558 585 c 1,20,-1
 465 585 l 1,21,-1
 465 269 l 2,22,23
 465 218 465 218 470.5 187 c 128,-1,24
 476 156 476 156 510 133 c 128,-1,25
 544 110 544 110 720 110 c 1,26,-1
 720 0 l 1,27,-1
 73 0 l 1,28,-1
 73 110 l 1,0,1
576 685 m 2,29,30
 762 685 762 685 861 777.5 c 128,-1,31
 960 870 960 870 960 1057 c 0,32,33
 960 1285 960 1285 770 1362 c 0,34,35
 702 1390 702 1390 605 1390 c 2,36,-1
 465 1390 l 1,37,-1
 465 685 l 1,38,-1
 576 685 l 2,29,30
EndSplineSet
EndChar

StartChar: Q
Encoding: 81 81 74
Width: 1570
GlyphClass: 2
Flags: W
LayerCount: 2
Fore
SplineSet
935 -6 m 1,0,1
 863 -20 863 -20 785 -20 c 0,2,3
 471 -20 471 -20 274.5 182.5 c 128,-1,4
 78 385 78 385 78 755 c 128,-1,5
 78 1125 78 1125 292 1334 c 0,6,7
 483 1520 483 1520 783 1520 c 128,-1,8
 1083 1520 1083 1520 1278 1336 c 0,9,10
 1492 1133 1492 1133 1492 757 c 128,-1,11
 1492 381 1492 381 1284 174 c 0,12,13
 1219 108 1219 108 1138 64 c 1,14,15
 1185 -126 1185 -126 1244 -178 c 0,16,17
 1268 -199 1268 -199 1300 -199 c 0,18,19
 1360 -199 1360 -199 1392 -150.5 c 128,-1,20
 1424 -102 1424 -102 1424 -39 c 1,21,-1
 1522 -39 l 1,22,23
 1531 -67 1531 -67 1531 -100 c 128,-1,24
 1531 -133 1531 -133 1522 -165 c 0,25,26
 1502 -240 1502 -240 1441.5 -291.5 c 128,-1,27
 1381 -343 1381 -343 1290 -343 c 0,28,29
 1134 -343 1134 -343 1048 -238 c 0,30,31
 987 -164 987 -164 935 -6 c 1,0,1
1084 248 m 1,32,33
 1232 424 1232 424 1232 754 c 128,-1,34
 1232 1084 1232 1084 1105 1237 c 128,-1,35
 978 1390 978 1390 785 1390 c 256,36,37
 592 1390 592 1390 465 1232 c 128,-1,38
 338 1074 338 1074 338 760 c 0,39,40
 338 390 338 390 507 221 c 1,41,42
 523 327 523 327 595 412.5 c 128,-1,43
 667 498 667 498 783 498 c 0,44,45
 950 498 950 498 1038 344 c 0,46,47
 1064 299 1064 299 1084 248 c 1,32,33
612 148 m 1,48,49
 754 80 754 80 909 129 c 1,50,51
 861 360 861 360 748 360 c 0,52,53
 686 360 686 360 651 303.5 c 128,-1,54
 616 247 616 247 612 148 c 1,48,49
EndSplineSet
EndChar

StartChar: R
Encoding: 82 82 75
Width: 1475
GlyphClass: 2
Flags: W
LayerCount: 2
Fore
SplineSet
1286 124 m 0,0,1
 1364 124 1364 124 1364 304 c 1,2,-1
 1460 304 l 1,3,4
 1471 268 1471 268 1471 241 c 128,-1,5
 1471 214 1471 214 1470 182.5 c 128,-1,6
 1469 151 1469 151 1446 100 c 0,7,8
 1391 -20 1391 -20 1240 -20 c 128,-1,9
 1089 -20 1089 -20 1027.5 56 c 128,-1,10
 966 132 966 132 940 210.5 c 128,-1,11
 914 289 914 289 898 348 c 0,12,13
 852 509 852 509 824 558 c 1,14,15
 773 652 773 652 685 652 c 2,16,-1
 465 652 l 1,17,-1
 465 269 l 2,18,19
 465 218 465 218 470 187 c 128,-1,20
 475 156 475 156 505.5 133 c 128,-1,21
 536 110 536 110 692 110 c 1,22,-1
 692 0 l 1,23,-1
 73 0 l 1,24,-1
 73 110 l 1,25,26
 178 110 178 110 204 128.5 c 128,-1,27
 230 147 230 147 235 168 c 128,-1,28
 240 189 240 189 240 219 c 2,29,-1
 240 1281 l 2,30,31
 240 1346 240 1346 218 1362 c 0,32,33
 178 1390 178 1390 72 1390 c 1,34,-1
 72 1500 l 1,35,-1
 686 1500 l 2,36,37
 1178 1500 1178 1500 1233 1196 c 0,38,39
 1242 1146 1242 1146 1242 1079 c 0,40,41
 1242 935 1242 935 1151.5 833.5 c 128,-1,42
 1061 732 1061 732 905 687 c 1,43,44
 1040 646 1040 646 1106 471 c 0,45,46
 1128 414 1128 414 1154 324 c 128,-1,47
 1180 234 1180 234 1196 200 c 0,48,49
 1231 124 1231 124 1286 124 c 0,0,1
688 752 m 2,50,51
 859 752 859 752 930 834.5 c 128,-1,52
 1001 917 1001 917 1001 1072.5 c 128,-1,53
 1001 1228 1001 1228 918 1309 c 128,-1,54
 835 1390 835 1390 627 1390 c 2,55,-1
 465 1390 l 1,56,-1
 465 752 l 1,57,-1
 688 752 l 2,50,51
EndSplineSet
EndChar

StartChar: S
Encoding: 83 83 76
Width: 1187
GlyphClass: 2
Flags: W
LayerCount: 2
Fore
SplineSet
840 1330 m 1,0,1
 788 1400 788 1400 617.5 1400 c 128,-1,2
 447 1400 447 1400 382 1286 c 0,3,4
 360 1247 360 1247 360 1190 c 0,5,6
 360 1085 360 1085 454 998 c 0,7,8
 516 940 516 940 625.5 879 c 128,-1,9
 735 818 735 818 810 770 c 0,10,11
 1093 590 1093 590 1093 376 c 0,12,13
 1093 186 1093 186 953.5 83 c 128,-1,14
 814 -20 814 -20 592.5 -20 c 128,-1,15
 371 -20 371 -20 237.5 67.5 c 128,-1,16
 104 155 104 155 104 268.5 c 128,-1,17
 104 382 104 382 195 422 c 0,18,19
 223 435 223 435 256 435 c 0,20,21
 319 435 319 435 359.5 393 c 128,-1,22
 400 351 400 351 400 287 c 128,-1,23
 400 223 400 223 342 178 c 1,24,25
 420 100 420 100 600.5 100 c 128,-1,26
 781 100 781 100 848 222 c 0,27,28
 872 264 872 264 872 320 c 0,29,30
 872 417 872 417 772 500 c 0,31,32
 720 543 720 543 596.5 611.5 c 128,-1,33
 473 680 473 680 402 726 c 0,34,35
 141 894 141 894 141 1122 c 0,36,37
 141 1300 141 1300 275.5 1410 c 128,-1,38
 410 1520 410 1520 608.5 1520 c 128,-1,39
 807 1520 807 1520 934.5 1435 c 128,-1,40
 1062 1350 1062 1350 1062 1228 c 0,41,42
 1062 1162 1062 1162 1021.5 1117.5 c 128,-1,43
 981 1073 981 1073 919 1073 c 0,44,45
 824 1073 824 1073 787 1156 c 0,46,47
 776 1181 776 1181 776 1209 c 0,48,49
 776 1286 776 1286 840 1330 c 1,0,1
EndSplineSet
EndChar

StartChar: T
Encoding: 84 84 77
Width: 1377
GlyphClass: 2
Flags: W
LayerCount: 2
Fore
SplineSet
367 110 m 1,0,1
 480 110 480 110 517 128.5 c 128,-1,2
 554 147 554 147 565 168 c 128,-1,3
 576 189 576 189 576 219 c 2,4,-1
 576 1384 l 1,5,-1
 371 1384 l 2,6,7
 206 1384 206 1384 182 1209 c 2,8,-1
 153 1006 l 1,9,-1
 8 1007 l 1,10,-1
 52 1500 l 1,11,-1
 1325 1500 l 1,12,-1
 1369 1007 l 1,13,-1
 1224 1006 l 1,14,-1
 1195 1209 l 2,15,16
 1184 1290 1184 1290 1152 1324 c 0,17,18
 1094 1384 1094 1384 1006 1384 c 2,19,-1
 801 1384 l 1,20,-1
 801 219 l 2,21,22
 801 156 801 156 842.5 133 c 128,-1,23
 884 110 884 110 1010 110 c 1,24,-1
 1010 0 l 1,25,-1
 367 0 l 1,26,-1
 367 110 l 1,0,1
EndSplineSet
EndChar

StartChar: U
Encoding: 85 85 78
Width: 1603
GlyphClass: 2
Flags: W
LayerCount: 2
Fore
SplineSet
815 126 m 0,0,1
 1212 126 1212 126 1212 619 c 2,2,-1
 1212 1281 l 2,3,4
 1212 1346 1212 1346 1190 1362 c 0,5,6
 1150 1390 1150 1390 1044 1390 c 1,7,-1
 1044 1500 l 1,8,-1
 1552 1500 l 1,9,-1
 1552 1390 l 1,10,11
 1457 1390 1457 1390 1428 1371.5 c 128,-1,12
 1399 1353 1399 1353 1391 1332 c 128,-1,13
 1383 1311 1383 1311 1383 1281 c 2,14,-1
 1384 630 l 2,15,16
 1384 139 1384 139 1036 18 c 0,17,18
 925 -20 925 -20 822 -20 c 128,-1,19
 719 -20 719 -20 649.5 -5.5 c 128,-1,20
 580 9 580 9 516 41 c 0,21,22
 376 111 376 111 293 253 c 128,-1,23
 210 395 210 395 210 620 c 2,24,-1
 210 1281 l 2,25,26
 210 1345 210 1345 188 1362 c 0,27,28
 151 1390 151 1390 52 1390 c 1,29,-1
 52 1500 l 1,30,-1
 612 1500 l 1,31,-1
 612 1390 l 1,32,33
 511 1390 511 1390 480.5 1371.5 c 128,-1,34
 450 1353 450 1353 441.5 1332 c 128,-1,35
 433 1311 433 1311 433 1281 c 2,36,-1
 433 599 l 2,37,38
 433 358 433 358 542 242 c 128,-1,39
 651 126 651 126 815 126 c 0,0,1
EndSplineSet
EndChar

StartChar: V
Encoding: 86 86 79
Width: 1485
GlyphClass: 2
Flags: W
LayerCount: 2
Fore
SplineSet
144 1281 m 2,0,1
 117 1345 117 1345 84 1367.5 c 128,-1,2
 51 1390 51 1390 -45 1390 c 1,3,-1
 -45 1500 l 1,4,-1
 583 1500 l 1,5,-1
 583 1390 l 1,6,7
 450 1390 450 1390 426 1371.5 c 128,-1,8
 402 1353 402 1353 403.5 1332.5 c 128,-1,9
 405 1312 405 1312 417 1281 c 2,10,-1
 792 294 l 1,11,-1
 1170 1281 l 2,12,13
 1193 1341 1193 1341 1156 1365.5 c 128,-1,14
 1119 1390 1119 1390 983 1390 c 1,15,-1
 983 1500 l 1,16,-1
 1530 1500 l 1,17,-1
 1530 1390 l 1,18,19
 1447 1390 1447 1390 1405 1365 c 128,-1,20
 1363 1340 1363 1340 1339 1281 c 2,21,-1
 819 0 l 1,22,-1
 688 0 l 1,23,-1
 144 1281 l 2,0,1
EndSplineSet
EndChar

StartChar: W
Encoding: 87 87 80
Width: 2081
GlyphClass: 2
Flags: W
LayerCount: 2
Fore
SplineSet
122 1281 m 2,0,1
 99 1344 99 1344 67.5 1367 c 128,-1,2
 36 1390 36 1390 -45 1390 c 1,3,-1
 -45 1500 l 1,4,-1
 540 1500 l 1,5,-1
 540 1390 l 1,6,7
 408 1390 408 1390 385 1372 c 128,-1,8
 362 1354 362 1354 363 1333 c 128,-1,9
 364 1312 364 1312 374 1281 c 2,10,-1
 656 356 l 1,11,-1
 1018 1500 l 1,12,-1
 1149 1500 l 1,13,-1
 1518 360 l 1,14,-1
 1793 1281 l 2,15,16
 1798 1299 1798 1299 1798 1323.5 c 128,-1,17
 1798 1348 1798 1348 1761.5 1369 c 128,-1,18
 1725 1390 1725 1390 1609 1390 c 1,19,-1
 1609 1500 l 1,20,-1
 2126 1500 l 1,21,-1
 2126 1390 l 1,22,23
 2051 1390 2051 1390 2011 1365.5 c 128,-1,24
 1971 1341 1971 1341 1952 1281 c 2,25,-1
 1542 0 l 1,26,-1
 1412 0 l 1,27,-1
 1042 1095 l 1,28,-1
 686 0 l 1,29,-1
 569 0 l 1,30,-1
 122 1281 l 2,0,1
EndSplineSet
EndChar

StartChar: X
Encoding: 88 88 81
Width: 1577
GlyphClass: 2
Flags: W
LayerCount: 2
Fore
SplineSet
70 110 m 1,0,1
 213 110 213 110 291 219 c 1,2,-1
 674 742 l 1,3,-1
 329 1281 l 2,4,5
 293 1337 293 1337 240 1363.5 c 128,-1,6
 187 1390 187 1390 90 1390 c 1,7,-1
 90 1500 l 1,8,-1
 695 1500 l 1,9,-1
 695 1390 l 1,10,11
 593 1390 593 1390 576.5 1365 c 128,-1,12
 560 1340 560 1340 597 1281 c 2,13,-1
 843 895 l 1,14,-1
 1095 1281 l 2,15,16
 1132 1337 1132 1337 1104 1363.5 c 128,-1,17
 1076 1390 1076 1390 958 1390 c 1,18,-1
 958 1500 l 1,19,-1
 1485 1500 l 1,20,-1
 1485 1390 l 1,21,22
 1335 1390 1335 1390 1264 1281 c 2,23,-1
 925 767 l 1,24,-1
 1276 219 l 1,25,26
 1309 165 1309 165 1363 137.5 c 128,-1,27
 1417 110 1417 110 1515 110 c 1,28,-1
 1515 0 l 1,29,-1
 910 0 l 1,30,-1
 910 110 l 1,31,32
 1012 110 1012 110 1029 134.5 c 128,-1,33
 1046 159 1046 159 1008 219 c 2,34,-1
 755 614 l 1,35,-1
 460 219 l 2,36,37
 399 138 399 138 499 118 c 0,38,39
 535 110 535 110 597 110 c 1,40,-1
 597 0 l 1,41,-1
 70 0 l 1,42,-1
 70 110 l 1,0,1
EndSplineSet
EndChar

StartChar: Y
Encoding: 89 89 82
Width: 1365
GlyphClass: 2
Flags: W
LayerCount: 2
Fore
SplineSet
386 110 m 1,0,1
 499 110 499 110 535.5 128.5 c 128,-1,2
 572 147 572 147 582.5 168 c 128,-1,3
 593 189 593 189 593 219 c 2,4,-1
 592 503 l 1,5,-1
 174 1281 l 1,6,7
 140 1342 140 1342 105 1360 c 0,8,9
 46 1390 46 1390 -45 1390 c 1,10,-1
 -45 1500 l 1,11,-1
 534 1500 l 1,12,-1
 534 1390 l 1,13,14
 438 1390 438 1390 421.5 1366 c 128,-1,15
 405 1342 405 1342 436 1281 c 1,16,-1
 733 671 l 1,17,-1
 1045 1281 l 2,18,19
 1077 1342 1077 1342 1058 1359 c 0,20,21
 1024 1390 1024 1390 893 1390 c 1,22,-1
 893 1500 l 1,23,-1
 1410 1500 l 1,24,-1
 1410 1390 l 1,25,26
 1336 1390 1336 1390 1288.5 1365 c 128,-1,27
 1241 1340 1241 1340 1209 1281 c 2,28,-1
 807 542 l 1,29,-1
 807 219 l 2,30,31
 807 156 807 156 847 133 c 128,-1,32
 887 110 887 110 1013 110 c 1,33,-1
 1013 0 l 1,34,-1
 386 0 l 1,35,-1
 386 110 l 1,0,1
EndSplineSet
EndChar

StartChar: Z
Encoding: 90 90 83
Width: 1312
GlyphClass: 2
Flags: W
LayerCount: 2
Fore
SplineSet
98 120 m 1,0,-1
 947 1378 l 1,1,-1
 474 1378 l 2,2,3
 369 1378 369 1378 323 1312 c 128,-1,4
 277 1246 277 1246 277 1089 c 1,5,-1
 127 1090 l 1,6,-1
 147 1500 l 1,7,-1
 1211 1500 l 1,8,-1
 1211 1380 l 1,9,-1
 362 122 l 1,10,-1
 863 122 l 2,11,12
 1090 122 1090 122 1090 444 c 1,13,-1
 1243 444 l 1,14,-1
 1193 0 l 1,15,-1
 98 0 l 1,16,-1
 98 120 l 1,0,-1
EndSplineSet
EndChar

StartChar: bracketleft
Encoding: 91 91 84
Width: 814
GlyphClass: 2
Flags: W
LayerCount: 2
Fore
SplineSet
240 1760 m 1,0,-1
 735 1760 l 1,1,-1
 735 1650 l 1,2,-1
 437 1650 l 1,3,-1
 437 -290 l 1,4,-1
 735 -290 l 1,5,-1
 735 -400 l 1,6,-1
 240 -400 l 1,7,-1
 240 1760 l 1,0,-1
EndSplineSet
EndChar

StartChar: asciicircum
Encoding: 94 94 87
Width: 1529
GlyphClass: 2
Flags: W
LayerCount: 2
Fore
SplineSet
704 1608 m 1,0,-1
 824 1608 l 1,1,-1
 1286 605 l 1,2,-1
 1132 542 l 1,3,-1
 764 1358 l 1,4,-1
 396 542 l 1,5,-1
 242 605 l 1,6,-1
 704 1608 l 1,0,-1
EndSplineSet
EndChar

StartChar: underscore
Encoding: 95 95 88
Width: 1429
GlyphClass: 2
Flags: W
LayerCount: 2
Fore
SplineSet
1431 -190 m 1,0,-1
 1431 -320 l 1,1,-1
 -18 -320 l 1,2,-1
 -18 -190 l 1,3,-1
 1431 -190 l 1,0,-1
EndSplineSet
EndChar

StartChar: grave
Encoding: 96 96 89
Width: 0
GlyphClass: 2
Flags: W
LayerCount: 2
Fore
SplineSet
92 1265 m 2,0,1
 95 1254 95 1254 95 1239.5 c 128,-1,2
 95 1225 95 1225 81.5 1209.5 c 128,-1,3
 68 1194 68 1194 44 1194 c 0,4,5
 -8 1194 -8 1194 -45 1255 c 2,6,-1
 -175 1471 l 2,7,8
 -216 1540 -216 1540 -216 1590 c 0,9,10
 -216 1690 -216 1690 -101 1690 c 0,11,12
 -37 1690 -37 1690 -8.5 1647 c 128,-1,13
 20 1604 20 1604 42 1501 c 2,14,-1
 92 1265 l 2,0,1
EndSplineSet
EndChar

StartChar: a
Encoding: 97 97 90
Width: 1172
GlyphClass: 2
Flags: W
LayerCount: 2
Fore
SplineSet
955 239 m 2,0,1
 955 120 955 120 1002 120 c 0,2,3
 1047 120 1047 120 1068 150.5 c 128,-1,4
 1089 181 1089 181 1089 261 c 1,5,-1
 1194 261 l 1,6,7
 1195 248 1195 248 1195 220 c 0,8,9
 1195 130 1195 130 1150 64 c 1,10,11
 1095 -20 1095 -20 975 -20 c 0,12,13
 897 -20 897 -20 842 24 c 128,-1,14
 787 68 787 68 766 140 c 1,15,16
 621 -20 621 -20 399 -20 c 0,17,18
 277 -20 277 -20 186.5 51.5 c 128,-1,19
 96 123 96 123 96 251 c 0,20,21
 96 473 96 473 424 579 c 1,22,23
 632 645 632 645 673 670.5 c 128,-1,24
 714 696 714 696 726.5 722.5 c 128,-1,25
 739 749 739 749 739 782 c 0,26,27
 739 841 739 841 681 880.5 c 128,-1,28
 623 920 623 920 530 920 c 128,-1,29
 437 920 437 920 366 870 c 1,30,31
 416 833 416 833 416 775 c 128,-1,32
 416 717 416 717 377.5 682 c 128,-1,33
 339 647 339 647 284.5 647 c 128,-1,34
 230 647 230 647 194.5 680 c 128,-1,35
 159 713 159 713 159 772 c 0,36,37
 159 889 159 889 277 961.5 c 128,-1,38
 395 1034 395 1034 564 1034 c 0,39,40
 866 1034 866 1034 933 838 c 0,41,42
 955 773 955 773 955 688 c 2,43,-1
 955 239 l 2,0,1
382 390.5 m 128,-1,45
 338 331 338 331 338 261 c 128,-1,46
 338 191 338 191 376 155 c 128,-1,47
 414 119 414 119 471 119 c 0,48,49
 587 119 587 119 663 200.5 c 128,-1,50
 739 282 739 282 739 428 c 2,51,-1
 739 582 l 1,52,53
 675 549 675 549 603.5 522 c 128,-1,54
 532 495 532 495 514 488 c 0,55,44
 426 450 426 450 382 390.5 c 128,-1,45
EndSplineSet
EndChar

StartChar: b
Encoding: 98 98 91
Width: 1234
GlyphClass: 2
Flags: W
LayerCount: 2
Fore
SplineSet
381 117 m 1,0,1
 338 76 338 76 338 0 c 1,2,-1
 190 0 l 1,3,-1
 190 1291 l 2,4,5
 190 1363 190 1363 177.5 1385 c 128,-1,6
 165 1407 165 1407 109 1407 c 2,7,-1
 38 1407 l 1,8,-1
 38 1517 l 1,9,10
 135 1517 135 1517 190.5 1531.5 c 128,-1,11
 246 1546 246 1546 269.5 1552.5 c 128,-1,12
 293 1559 293 1559 320 1559 c 0,13,14
 373 1559 373 1559 389.5 1528.5 c 128,-1,15
 406 1498 406 1498 406 1431 c 2,16,-1
 406 895 l 1,17,18
 513 1034 513 1034 712.5 1034 c 128,-1,19
 912 1034 912 1034 1029.5 906.5 c 128,-1,20
 1147 779 1147 779 1147 531 c 128,-1,21
 1147 283 1147 283 1024.5 131.5 c 128,-1,22
 902 -20 902 -20 682 -20 c 0,23,24
 501 -20 501 -20 381 117 c 1,0,1
470.5 206 m 128,-1,26
 540 100 540 100 659 100 c 0,27,28
 777 100 777 100 845.5 209 c 128,-1,29
 914 318 914 318 914 498 c 0,30,31
 914 785 914 785 778 880 c 1,32,33
 729 913 729 913 662.5 913 c 128,-1,34
 596 913 596 913 548 881 c 128,-1,35
 500 849 500 849 468 793 c 0,36,37
 401 678 401 678 401 495 c 128,-1,25
 401 312 401 312 470.5 206 c 128,-1,26
EndSplineSet
EndChar

StartChar: c
Encoding: 99 99 92
Width: 1053
GlyphClass: 2
Flags: W
LayerCount: 2
Fore
SplineSet
766 849 m 1,0,1
 708 919 708 919 604 919 c 0,2,3
 409 919 409 919 350 697 c 0,4,5
 330 619 330 619 330 510 c 0,6,7
 330 307 330 307 408 204 c 128,-1,8
 486 101 486 101 603 101 c 0,9,10
 689 101 689 101 749 151 c 128,-1,11
 809 201 809 201 832 294 c 1,12,-1
 969 294 l 1,13,14
 969 170 969 170 859.5 75 c 128,-1,15
 750 -20 750 -20 562.5 -20 c 128,-1,16
 375 -20 375 -20 244 97 c 0,17,18
 90 234 90 234 90 500 c 0,19,20
 90 717 90 717 218.5 875.5 c 128,-1,21
 347 1034 347 1034 596 1034 c 0,22,23
 759 1034 759 1034 868 955 c 128,-1,24
 977 876 977 876 977 751 c 0,25,26
 977 690 977 690 937.5 648.5 c 128,-1,27
 898 607 898 607 837 607 c 0,28,29
 750 607 750 607 717 688 c 0,30,31
 707 712 707 712 707 741 c 0,32,33
 707 810 707 810 766 849 c 1,0,1
EndSplineSet
EndChar

StartChar: d
Encoding: 100 100 93
Width: 1218
GlyphClass: 2
Flags: W
LayerCount: 2
Fore
SplineSet
857 158 m 1,0,1
 738 -20 738 -20 533 -20 c 128,-1,2
 328 -20 328 -20 207.5 115 c 128,-1,3
 87 250 87 250 87 478 c 0,4,5
 87 758 87 758 210.5 896 c 128,-1,6
 334 1034 334 1034 549 1034 c 0,7,8
 712 1034 712 1034 828 922 c 1,9,-1
 828 1291 l 2,10,11
 828 1362 828 1362 813.5 1384.5 c 128,-1,12
 799 1407 799 1407 743 1407 c 2,13,-1
 672 1407 l 1,14,-1
 672 1517 l 1,15,16
 771 1517 771 1517 827 1531.5 c 128,-1,17
 883 1546 883 1546 907 1552.5 c 128,-1,18
 931 1559 931 1559 958 1559 c 0,19,20
 1011 1559 1011 1559 1027.5 1528.5 c 128,-1,21
 1044 1498 1044 1498 1044 1431 c 2,22,-1
 1044 266 l 2,23,24
 1044 169 1044 169 1052 146 c 0,25,26
 1069 102 1069 102 1134 102 c 0,27,28
 1167 102 1167 102 1191 113 c 1,29,-1
 1191 16 l 1,30,31
 1143 -20 1143 -20 1061 -20 c 0,32,33
 897 -20 897 -20 857 158 c 1,0,1
454 134 m 0,34,35
 502 100 502 100 570 100 c 0,36,37
 702 100 702 100 767.5 210.5 c 128,-1,38
 833 321 833 321 833 516 c 0,39,40
 833 806 833 806 680 888 c 0,41,42
 631 914 631 914 572 914 c 0,43,44
 454 914 454 914 387 805.5 c 128,-1,45
 320 697 320 697 320 516 c 0,46,47
 320 227 320 227 454 134 c 0,34,35
EndSplineSet
EndChar

StartChar: e
Encoding: 101 101 94
Width: 1116
GlyphClass: 2
Flags: W
LayerCount: 2
Fore
SplineSet
1023 461 m 1,0,-1
 329 461 l 1,1,2
 329 289 329 289 410.5 195 c 128,-1,3
 492 101 492 101 612 101 c 0,4,5
 773 101 773 101 843 234 c 1,6,-1
 992 235 l 1,7,8
 969 128 969 128 860.5 54 c 128,-1,9
 752 -20 752 -20 568 -20 c 128,-1,10
 384 -20 384 -20 250 94 c 0,11,12
 90 231 90 231 90 480 c 128,-1,13
 90 729 90 729 217.5 881.5 c 128,-1,14
 345 1034 345 1034 583 1034 c 0,15,16
 896 1034 896 1034 988 782 c 0,17,18
 1025 681 1025 681 1025 591 c 128,-1,19
 1025 501 1025 501 1023 461 c 1,0,-1
792 611 m 0,20,21
 792 917 792 917 584 917 c 0,22,23
 467 917 467 917 401.5 826 c 128,-1,24
 336 735 336 735 330 574 c 1,25,-1
 791 574 l 1,26,27
 792 593 792 593 792 611 c 0,20,21
EndSplineSet
EndChar

StartChar: f
Encoding: 102 102 95
Width: 815
GlyphClass: 2
Flags: W
LayerCount: 2
Fore
SplineSet
106 110 m 1,0,1
 193 110 193 110 215 127.5 c 128,-1,2
 237 145 237 145 241.5 165 c 128,-1,3
 246 185 246 185 246 215 c 2,4,-1
 246 830 l 2,5,6
 246 869 246 869 236.5 881.5 c 128,-1,7
 227 894 227 894 196 894 c 2,8,-1
 83 894 l 1,9,-1
 83 1014 l 1,10,-1
 246 1014 l 1,11,-1
 246 1114 l 2,12,13
 246 1347 246 1347 357.5 1483.5 c 128,-1,14
 469 1620 469 1620 655 1620 c 0,15,16
 782 1620 782 1620 857.5 1542.5 c 128,-1,17
 933 1465 933 1465 933 1364 c 128,-1,18
 933 1263 933 1263 858 1229 c 0,19,20
 833 1218 833 1218 806 1218 c 0,21,22
 753 1218 753 1218 713.5 1254 c 128,-1,23
 674 1290 674 1290 674 1334 c 0,24,25
 674 1418 674 1418 748 1443 c 1,26,27
 733 1478 733 1478 705 1495 c 128,-1,28
 677 1512 677 1512 654.5 1512 c 128,-1,29
 632 1512 632 1512 610 1508.5 c 128,-1,30
 588 1505 588 1505 567 1492 c 0,31,32
 464 1431 464 1431 464 1128 c 2,33,-1
 464 1014 l 1,34,-1
 766 1014 l 1,35,-1
 766 894 l 1,36,-1
 464 894 l 1,37,-1
 464 224 l 2,38,39
 464 148 464 148 498.5 129 c 128,-1,40
 533 110 533 110 675 110 c 1,41,-1
 675 0 l 1,42,-1
 106 0 l 1,43,-1
 106 110 l 1,0,1
EndSplineSet
EndChar

StartChar: g
Encoding: 103 103 96
Width: 1171
GlyphClass: 2
Flags: W
LayerCount: 2
Fore
SplineSet
826 956 m 1,0,1
 915 1061 915 1061 1057 1061 c 0,2,3
 1105 1061 1105 1061 1141.5 1025.5 c 128,-1,4
 1178 990 1178 990 1178 937.5 c 128,-1,5
 1178 885 1178 885 1146.5 854.5 c 128,-1,6
 1115 824 1115 824 1071 824 c 128,-1,7
 1027 824 1027 824 996.5 849 c 128,-1,8
 966 874 966 874 963 926 c 1,9,10
 927 912 927 912 897 884 c 1,11,12
 957 797 957 797 957 687.5 c 128,-1,13
 957 578 957 578 923.5 509.5 c 128,-1,14
 890 441 890 441 832.5 392.5 c 128,-1,15
 775 344 775 344 699 318 c 128,-1,16
 623 292 623 292 562.5 292 c 128,-1,17
 502 292 502 292 471 295 c 1,18,19
 399 279 399 279 374 234 c 0,20,21
 367 223 367 223 367 209 c 0,22,23
 367 179 367 179 421 166 c 128,-1,24
 475 153 475 153 601.5 142.5 c 128,-1,25
 728 132 728 132 810.5 117.5 c 128,-1,26
 893 103 893 103 953 72 c 0,27,28
 1080 5 1080 5 1080 -156 c 128,-1,29
 1080 -317 1080 -317 923 -413.5 c 128,-1,30
 766 -510 766 -510 539 -510 c 0,31,32
 183 -510 183 -510 94 -329 c 0,33,34
 67 -274 67 -274 67 -208 c 0,35,36
 67 -38 67 -38 274 68 c 1,37,38
 203 110 203 110 203 198 c 128,-1,39
 203 286 203 286 314 336 c 1,40,41
 220 372 220 372 166 464.5 c 128,-1,42
 112 557 112 557 112 653 c 0,43,44
 112 833 112 833 241.5 933.5 c 128,-1,45
 371 1034 371 1034 546 1034 c 128,-1,46
 721 1034 721 1034 826 956 c 1,0,1
539 407 m 0,47,48
 671 407 671 407 722 547 c 0,49,50
 740 595 740 595 740 666 c 0,51,52
 740 798 740 798 682 861 c 128,-1,53
 624 924 624 924 539 924 c 0,54,55
 400 924 400 924 348 783 c 0,56,57
 330 732 330 732 330 662 c 0,58,59
 330 534 330 534 392.5 470.5 c 128,-1,60
 455 407 455 407 539 407 c 0,47,48
381 5 m 1,61,62
 282 -48 282 -48 282 -175 c 0,63,64
 282 -280 282 -280 366 -335 c 128,-1,65
 450 -390 450 -390 587 -390 c 0,66,67
 802 -390 802 -390 870 -276 c 0,68,69
 892 -241 892 -241 892 -197 c 0,70,71
 892 -52 892 -52 644 -29 c 0,72,73
 566 -21 566 -21 498 -15 c 128,-1,74
 430 -9 430 -9 381 5 c 1,61,62
EndSplineSet
EndChar

StartChar: h
Encoding: 104 104 97
Width: 1281
GlyphClass: 2
Flags: W
LayerCount: 2
Fore
SplineSet
702 884 m 0,0,1
 538 884 538 884 436 782 c 1,2,-1
 436 215 l 2,3,4
 436 153 436 153 456 137 c 0,5,6
 491 110 491 110 588 110 c 1,7,-1
 588 0 l 1,8,-1
 80 0 l 1,9,-1
 80 110 l 1,10,11
 166 110 166 110 188 127.5 c 128,-1,12
 210 145 210 145 215 165 c 128,-1,13
 220 185 220 185 220 215 c 2,14,-1
 220 1300 l 2,15,16
 220 1372 220 1372 207.5 1394 c 128,-1,17
 195 1416 195 1416 139 1416 c 2,18,-1
 78 1416 l 1,19,-1
 78 1526 l 1,20,21
 172 1526 172 1526 225.5 1540.5 c 128,-1,22
 279 1555 279 1555 301.5 1561.5 c 128,-1,23
 324 1568 324 1568 350 1568 c 0,24,25
 403 1568 403 1568 419.5 1537.5 c 128,-1,26
 436 1507 436 1507 436 1440 c 2,27,-1
 436 900 l 1,28,29
 539 990 539 990 684 1023 c 0,30,31
 731 1034 731 1034 776 1034 c 0,32,33
 1100 1034 1100 1034 1100 604 c 2,34,-1
 1100 217 l 2,35,36
 1100 151 1100 151 1119 130.5 c 128,-1,37
 1138 110 1138 110 1223 110 c 1,38,-1
 1223 0 l 1,39,-1
 750 0 l 1,40,-1
 750 110 l 1,41,42
 841 110 841 110 859.5 128.5 c 128,-1,43
 878 147 878 147 881 167 c 128,-1,44
 884 187 884 187 884 217 c 2,45,-1
 884 591 l 2,46,47
 884 730 884 730 858 782 c 0,48,49
 807 884 807 884 702 884 c 0,0,1
EndSplineSet
EndChar

StartChar: i
Encoding: 105 105 98
Width: 670
GlyphClass: 2
Flags: W
LayerCount: 2
Fore
SplineSet
337 1219 m 256,0,1
 272 1219 272 1219 226.5 1262.5 c 128,-1,2
 181 1306 181 1306 181 1369 c 0,3,4
 181 1433 181 1433 227 1477.5 c 128,-1,5
 273 1522 273 1522 337 1522 c 256,6,7
 401 1522 401 1522 447 1477.5 c 128,-1,8
 493 1433 493 1433 493 1369 c 0,9,10
 493 1306 493 1306 447.5 1262.5 c 128,-1,11
 402 1219 402 1219 337 1219 c 256,0,1
82 110 m 1,12,13
 175 110 175 110 198.5 127.5 c 128,-1,14
 222 145 222 145 227 165 c 128,-1,15
 232 185 232 185 232 215 c 2,16,-1
 232 766 l 2,17,18
 232 838 232 838 219.5 860 c 128,-1,19
 207 882 207 882 152 882 c 2,20,-1
 80 882 l 1,21,-1
 80 992 l 1,22,23
 178 992 178 992 234 1006.5 c 128,-1,24
 290 1021 290 1021 313 1027.5 c 128,-1,25
 336 1034 336 1034 363 1034 c 0,26,27
 415 1034 415 1034 431.5 1003.5 c 128,-1,28
 448 973 448 973 448 906 c 2,29,-1
 448 215 l 2,30,31
 448 152 448 152 468 136 c 0,32,33
 502 110 502 110 597 110 c 1,34,-1
 597 0 l 1,35,-1
 82 0 l 1,36,-1
 82 110 l 1,12,13
EndSplineSet
EndChar

StartChar: j
Encoding: 106 106 99
Width: 622
GlyphClass: 2
Flags: W
LayerCount: 2
Fore
SplineSet
353 1222 m 256,0,1
 288 1222 288 1222 242.5 1265.5 c 128,-1,2
 197 1309 197 1309 197 1372 c 0,3,4
 197 1436 197 1436 243 1480.5 c 128,-1,5
 289 1525 289 1525 353 1525 c 256,6,7
 417 1525 417 1525 463 1480.5 c 128,-1,8
 509 1436 509 1436 509 1372 c 0,9,10
 509 1309 509 1309 463.5 1265.5 c 128,-1,11
 418 1222 418 1222 353 1222 c 256,0,1
147.5 -257 m 128,-1,13
 157 -279 157 -279 157 -316 c 128,-1,14
 157 -353 157 -353 121 -387 c 1,15,16
 147 -396 147 -396 162 -395 c 0,17,18
 289 -386 289 -386 289 -199 c 0,19,20
 289 -141 289 -141 270.5 -27 c 128,-1,21
 252 87 252 87 252 166 c 2,22,-1
 252 765 l 2,23,24
 252 837 252 837 239.5 859 c 128,-1,25
 227 881 227 881 172 881 c 2,26,-1
 80 881 l 1,27,-1
 80 991 l 1,28,29
 178 991 178 991 240.5 1005.5 c 128,-1,30
 303 1020 303 1020 329.5 1026.5 c 128,-1,31
 356 1033 356 1033 383 1033 c 0,32,33
 435 1033 435 1033 451.5 1002.5 c 128,-1,34
 468 972 468 972 468 905 c 2,35,-1
 469 10 l 2,36,37
 469 -387 469 -387 288 -480 c 0,38,39
 228 -510 228 -510 162 -510 c 0,40,41
 45 -510 45 -510 -28 -455.5 c 128,-1,42
 -101 -401 -101 -401 -101 -332.5 c 128,-1,43
 -101 -264 -101 -264 -73 -235 c 0,44,45
 -25 -184 -25 -184 30 -184 c 128,-1,46
 85 -184 85 -184 111.5 -209.5 c 128,-1,12
 138 -235 138 -235 147.5 -257 c 128,-1,13
EndSplineSet
EndChar

StartChar: k
Encoding: 107 107 100
Width: 1267
GlyphClass: 2
Flags: W
LayerCount: 2
Fore
SplineSet
1082 131 m 0,0,1
 1151 131 1151 131 1151 278 c 1,2,-1
 1248 278 l 1,3,4
 1255 246 1255 246 1255 221.5 c 128,-1,5
 1255 197 1255 197 1254 167 c 128,-1,6
 1253 137 1253 137 1232 90 c 1,7,8
 1180 -20 1180 -20 1035.5 -20 c 128,-1,9
 891 -20 891 -20 803 145 c 0,10,11
 778 192 778 192 754 240 c 0,12,13
 689 372 689 372 646 420 c 0,14,15
 572 501 572 501 467 501 c 0,16,17
 459 501 459 501 451 501 c 128,-1,18
 443 501 443 501 435 500 c 1,19,-1
 435 217 l 2,20,21
 435 155 435 155 461.5 132.5 c 128,-1,22
 488 110 488 110 584 110 c 1,23,-1
 584 0 l 1,24,-1
 67 0 l 1,25,-1
 67 110 l 1,26,27
 154 110 154 110 186.5 134 c 128,-1,28
 219 158 219 158 219 217 c 2,29,-1
 219 1300 l 2,30,31
 219 1372 219 1372 206.5 1394 c 128,-1,32
 194 1416 194 1416 138 1416 c 2,33,-1
 57 1416 l 1,34,-1
 57 1526 l 1,35,36
 158 1526 158 1526 215 1540.5 c 128,-1,37
 272 1555 272 1555 296.5 1561.5 c 128,-1,38
 321 1568 321 1568 348 1568 c 0,39,40
 400 1568 400 1568 417.5 1538 c 128,-1,41
 435 1508 435 1508 435 1440 c 2,42,-1
 435 609 l 1,43,-1
 486 609 l 1,44,45
 651 725 651 725 774 858 c 0,46,47
 794 879 794 879 804 894 c 1,48,-1
 631 894 l 1,49,-1
 631 1014 l 1,50,-1
 1183 1014 l 1,51,-1
 1183 894 l 1,52,53
 997 889 997 889 802 716 c 1,54,55
 743 665 743 665 684 607 c 1,56,57
 848 545 848 545 950 330 c 0,58,59
 975 276 975 276 996 231.5 c 128,-1,60
 1017 187 1017 187 1037 159 c 128,-1,61
 1057 131 1057 131 1082 131 c 0,0,1
EndSplineSet
EndChar

StartChar: l
Encoding: 108 108 101
Width: 660
GlyphClass: 2
Flags: W
LayerCount: 2
Fore
SplineSet
70 110 m 1,0,1
 157 110 157 110 189.5 134 c 128,-1,2
 222 158 222 158 222 217 c 2,3,-1
 222 1300 l 2,4,5
 222 1372 222 1372 209.5 1394 c 128,-1,6
 197 1416 197 1416 141 1416 c 2,7,-1
 60 1416 l 1,8,-1
 60 1526 l 1,9,10
 161 1526 161 1526 218 1540.5 c 128,-1,11
 275 1555 275 1555 299.5 1561.5 c 128,-1,12
 324 1568 324 1568 351 1568 c 0,13,14
 403 1568 403 1568 420.5 1538 c 128,-1,15
 438 1508 438 1508 438 1440 c 2,16,-1
 438 217 l 2,17,18
 438 155 438 155 464.5 132.5 c 128,-1,19
 491 110 491 110 588 110 c 1,20,-1
 588 0 l 1,21,-1
 70 0 l 1,22,-1
 70 110 l 1,0,1
EndSplineSet
EndChar

StartChar: m
Encoding: 109 109 102
Width: 1881
GlyphClass: 2
Flags: W
LayerCount: 2
Fore
SplineSet
1406 1033 m 0,0,1
 1700 1033 1700 1033 1700 604 c 2,2,-1
 1700 217 l 2,3,4
 1700 151 1700 151 1719 130.5 c 128,-1,5
 1738 110 1738 110 1823 110 c 1,6,-1
 1823 0 l 1,7,-1
 1350 0 l 1,8,-1
 1350 110 l 1,9,10
 1441 110 1441 110 1459.5 128.5 c 128,-1,11
 1478 147 1478 147 1481 167 c 128,-1,12
 1484 187 1484 187 1484 217 c 2,13,-1
 1484 591 l 2,14,15
 1484 731 1484 731 1462 782.5 c 128,-1,16
 1440 834 1440 834 1405 859 c 128,-1,17
 1370 884 1370 884 1326 884 c 0,18,19
 1246 884 1246 884 1173 852 c 128,-1,20
 1100 820 1100 820 1057 768 c 1,21,22
 1071 695 1071 695 1071 604 c 2,23,-1
 1071 217 l 2,24,25
 1071 151 1071 151 1090 130.5 c 128,-1,26
 1109 110 1109 110 1194 110 c 1,27,-1
 1194 0 l 1,28,-1
 721 0 l 1,29,-1
 721 110 l 1,30,31
 812 110 812 110 830.5 128.5 c 128,-1,32
 849 147 849 147 852 167 c 128,-1,33
 855 187 855 187 855 217 c 2,34,-1
 855 591 l 2,35,36
 855 731 855 731 833 782.5 c 128,-1,37
 811 834 811 834 776 859 c 128,-1,38
 741 884 741 884 697 884 c 0,39,40
 621 884 621 884 551 855 c 128,-1,41
 481 826 481 826 436 778 c 1,42,-1
 436 215 l 2,43,44
 436 152 436 152 456 136 c 1,45,46
 492 110 492 110 587 110 c 1,47,-1
 587 0 l 1,48,-1
 80 0 l 1,49,-1
 80 110 l 1,50,51
 166 110 166 110 188 127.5 c 128,-1,52
 210 145 210 145 215 165 c 128,-1,53
 220 185 220 185 220 215 c 2,54,-1
 220 760 l 2,55,56
 220 832 220 832 207.5 854 c 128,-1,57
 195 876 195 876 139 876 c 2,58,-1
 78 876 l 1,59,-1
 78 986 l 1,60,61
 172 986 172 986 226.5 1000.5 c 128,-1,62
 281 1015 281 1015 304 1021.5 c 128,-1,63
 327 1028 327 1028 354 1028 c 0,64,65
 405 1028 405 1028 420.5 998 c 128,-1,66
 436 968 436 968 436 900 c 2,67,-1
 436 898 l 1,68,69
 538 987 538 987 684 1022 c 0,70,71
 732 1033 732 1033 777 1033 c 0,72,73
 956 1033 956 1033 1026 873 c 1,74,75
 1138 977 1138 977 1296 1018 c 0,76,77
 1352 1033 1352 1033 1406 1033 c 0,0,1
EndSplineSet
EndChar

StartChar: n
Encoding: 110 110 103
Width: 1281
GlyphClass: 2
Flags: W
LayerCount: 2
Fore
SplineSet
702 884 m 0,0,1
 538 884 538 884 436 782 c 1,2,-1
 436 215 l 2,3,4
 436 153 436 153 456 137 c 0,5,6
 491 110 491 110 588 110 c 1,7,-1
 588 0 l 1,8,-1
 80 0 l 1,9,-1
 80 110 l 1,10,11
 166 110 166 110 188 127.5 c 128,-1,12
 210 145 210 145 215 165 c 128,-1,13
 220 185 220 185 220 215 c 2,14,-1
 220 760 l 2,15,16
 220 832 220 832 207.5 854 c 128,-1,17
 195 876 195 876 139 876 c 2,18,-1
 78 876 l 1,19,-1
 78 986 l 1,20,21
 172 986 172 986 225.5 1000.5 c 128,-1,22
 279 1015 279 1015 301.5 1021.5 c 128,-1,23
 324 1028 324 1028 350 1028 c 0,24,25
 403 1028 403 1028 419.5 997.5 c 128,-1,26
 436 967 436 967 436 900 c 1,27,28
 543 990 543 990 684 1022 c 0,29,30
 731 1033 731 1033 776 1033 c 0,31,32
 1100 1033 1100 1033 1100 604 c 2,33,-1
 1100 217 l 2,34,35
 1100 151 1100 151 1119 130.5 c 128,-1,36
 1138 110 1138 110 1223 110 c 1,37,-1
 1223 0 l 1,38,-1
 750 0 l 1,39,-1
 750 110 l 1,40,41
 841 110 841 110 859.5 128.5 c 128,-1,42
 878 147 878 147 881 167 c 128,-1,43
 884 187 884 187 884 217 c 2,44,-1
 884 591 l 2,45,46
 884 730 884 730 858 782 c 0,47,48
 807 884 807 884 702 884 c 0,0,1
EndSplineSet
EndChar

StartChar: o
Encoding: 111 111 104
Width: 1165
GlyphClass: 2
Flags: W
LayerCount: 2
Fore
SplineSet
90 512 m 0,0,1
 90 632 90 632 127.5 733.5 c 128,-1,2
 165 835 165 835 232 902 c 0,3,4
 364 1034 364 1034 583 1034 c 0,5,6
 804 1034 804 1034 939.5 901.5 c 128,-1,7
 1075 769 1075 769 1075 525.5 c 128,-1,8
 1075 282 1075 282 950 131 c 128,-1,9
 825 -20 825 -20 583 -20 c 256,10,11
 341 -20 341 -20 215.5 126.5 c 128,-1,12
 90 273 90 273 90 512 c 0,0,1
583 100 m 256,13,14
 699 100 699 100 771.5 206 c 128,-1,15
 844 312 844 312 844 504 c 0,16,17
 844 813 844 813 688 890 c 0,18,19
 640 914 640 914 583 914 c 0,20,21
 398 914 398 914 342 690 c 0,22,23
 322 613 322 613 322 510 c 0,24,25
 322 312 322 312 394.5 206 c 128,-1,26
 467 100 467 100 583 100 c 256,13,14
EndSplineSet
EndChar

StartChar: p
Encoding: 112 112 105
Width: 1251
GlyphClass: 2
Flags: W
LayerCount: 2
Fore
SplineSet
703 -20 m 0,0,1
 539 -20 539 -20 423 92 c 1,2,-1
 423 -265 l 2,3,4
 423 -342 423 -342 456.5 -361 c 128,-1,5
 490 -380 490 -380 626 -380 c 1,6,-1
 626 -490 l 1,7,-1
 67 -490 l 1,8,-1
 67 -380 l 1,9,10
 153 -380 153 -380 175 -362.5 c 128,-1,11
 197 -345 197 -345 202 -325 c 128,-1,12
 207 -305 207 -305 207 -275 c 2,13,-1
 207 765 l 2,14,15
 207 837 207 837 194.5 859 c 128,-1,16
 182 881 182 881 126 881 c 2,17,-1
 55 881 l 1,18,-1
 55 991 l 1,19,20
 154 991 154 991 210 1005.5 c 128,-1,21
 266 1020 266 1020 290 1026.5 c 128,-1,22
 314 1033 314 1033 341 1033 c 0,23,24
 394 1033 394 1033 410.5 1002.5 c 128,-1,25
 427 972 427 972 427 905 c 2,26,-1
 427 902 l 1,27,28
 539 1034 539 1034 732.5 1034 c 128,-1,29
 926 1034 926 1034 1045 903.5 c 128,-1,30
 1164 773 1164 773 1164 525 c 128,-1,31
 1164 277 1164 277 1040.5 128.5 c 128,-1,32
 917 -20 917 -20 703 -20 c 0,0,1
489 206 m 128,-1,34
 560 100 560 100 679 100 c 0,35,36
 797 100 797 100 864 208.5 c 128,-1,37
 931 317 931 317 931 498 c 0,38,39
 931 787 931 787 791 880 c 0,40,41
 741 914 741 914 673 914 c 128,-1,42
 605 914 605 914 558 882 c 128,-1,43
 511 850 511 850 480 794 c 0,44,45
 418 680 418 680 418 496 c 128,-1,33
 418 312 418 312 489 206 c 128,-1,34
EndSplineSet
EndChar

StartChar: q
Encoding: 113 113 106
Width: 1199
GlyphClass: 2
Flags: W
LayerCount: 2
Fore
SplineSet
828 122 m 1,0,1
 722 -20 722 -20 524.5 -20 c 128,-1,2
 327 -20 327 -20 207 117.5 c 128,-1,3
 87 255 87 255 87 497.5 c 128,-1,4
 87 740 87 740 210.5 887 c 128,-1,5
 334 1034 334 1034 532.5 1034 c 128,-1,6
 731 1034 731 1034 851 897 c 1,7,8
 892 938 892 938 892 1014 c 1,9,-1
 1044 1014 l 1,10,-1
 1044 -275 l 2,11,12
 1044 -338 1044 -338 1070.5 -359 c 128,-1,13
 1097 -380 1097 -380 1184 -380 c 1,14,-1
 1184 -490 l 1,15,-1
 615 -490 l 1,16,-1
 615 -380 l 1,17,18
 757 -380 757 -380 786 -364.5 c 128,-1,19
 815 -349 815 -349 821.5 -326.5 c 128,-1,20
 828 -304 828 -304 828 -265 c 2,21,-1
 828 122 l 1,0,1
572 103 m 0,22,23
 705 103 705 103 769 216 c 128,-1,24
 833 329 833 329 833 515 c 128,-1,25
 833 701 833 701 762.5 807.5 c 128,-1,26
 692 914 692 914 572 914 c 0,27,28
 454 914 454 914 387 805.5 c 128,-1,29
 320 697 320 697 320 516 c 0,30,31
 320 228 320 228 454 136 c 0,32,33
 502 103 502 103 572 103 c 0,22,23
EndSplineSet
EndChar

StartChar: r
Encoding: 114 114 107
Width: 897
GlyphClass: 2
Flags: W
LayerCount: 2
Fore
SplineSet
82 110 m 1,0,1
 168 110 168 110 190 127.5 c 128,-1,2
 212 145 212 145 216.5 165 c 128,-1,3
 221 185 221 185 221 215 c 2,4,-1
 221 766 l 2,5,6
 221 838 221 838 208.5 860 c 128,-1,7
 196 882 196 882 141 882 c 2,8,-1
 80 882 l 1,9,-1
 80 992 l 1,10,11
 175 992 175 992 227.5 1006.5 c 128,-1,12
 280 1021 280 1021 302.5 1027.5 c 128,-1,13
 325 1034 325 1034 351 1034 c 0,14,15
 402 1034 402 1034 419.5 1004 c 128,-1,16
 437 974 437 974 437 906 c 2,17,-1
 437 886 l 1,18,19
 523 987 523 987 632 1022 c 0,20,21
 671 1034 671 1034 710 1034 c 0,22,23
 785 1034 785 1034 826.5 991 c 128,-1,24
 868 948 868 948 868 885 c 128,-1,25
 868 822 868 822 828 782 c 128,-1,26
 788 742 788 742 731 742 c 0,27,28
 675 742 675 742 638.5 782 c 128,-1,29
 602 822 602 822 606 882 c 1,30,31
 565 876 565 876 518.5 844.5 c 128,-1,32
 472 813 472 813 437 759 c 1,33,-1
 437 224 l 2,34,35
 437 186 437 186 443.5 163.5 c 128,-1,36
 450 141 450 141 478.5 125.5 c 128,-1,37
 507 110 507 110 650 110 c 1,38,-1
 650 0 l 1,39,-1
 82 0 l 1,40,-1
 82 110 l 1,0,1
EndSplineSet
EndChar

StartChar: s
Encoding: 115 115 108
Width: 974
GlyphClass: 2
Flags: W
LayerCount: 2
Fore
SplineSet
638 881 m 1,0,1
 587 932 587 932 471 932 c 128,-1,2
 355 932 355 932 314 848 c 0,3,4
 303 824 303 824 303 793.5 c 128,-1,5
 303 763 303 763 327 734.5 c 128,-1,6
 351 706 351 706 389 680.5 c 128,-1,7
 427 655 427 655 474.5 631 c 128,-1,8
 522 607 522 607 573 579 c 128,-1,9
 624 551 624 551 681 520 c 0,10,11
 890 406 890 406 890 267.5 c 128,-1,12
 890 129 890 129 782 54.5 c 128,-1,13
 674 -20 674 -20 495.5 -20 c 128,-1,14
 317 -20 317 -20 201 44 c 128,-1,15
 85 108 85 108 85 209 c 0,16,17
 85 264 85 264 121.5 302 c 128,-1,18
 158 340 158 340 214.5 340 c 128,-1,19
 271 340 271 340 308 304.5 c 128,-1,20
 345 269 345 269 345 220 c 128,-1,21
 345 171 345 171 311 137 c 1,22,23
 391 91 391 91 509.5 91 c 128,-1,24
 628 91 628 91 676 146 c 0,25,26
 696 168 696 168 696 203 c 0,27,28
 696 286 696 286 512 376 c 0,29,30
 384 439 384 439 320 475 c 0,31,32
 115 591 115 591 115 755 c 0,33,34
 115 881 115 881 219.5 957 c 128,-1,35
 324 1033 324 1033 486 1033 c 128,-1,36
 648 1033 648 1033 758.5 972.5 c 128,-1,37
 869 912 869 912 869 816 c 0,38,39
 869 760 869 760 842 733 c 0,40,41
 795 686 795 686 752 686 c 0,42,43
 682 686 682 686 646.5 721.5 c 128,-1,44
 611 757 611 757 611 803 c 128,-1,45
 611 849 611 849 638 881 c 1,0,1
EndSplineSet
EndChar

StartChar: t
Encoding: 116 116 109
Width: 837
GlyphClass: 2
Flags: W
LayerCount: 2
Fore
SplineSet
499 -20 m 0,0,1
 184 -20 184 -20 184 330 c 2,2,-1
 184 830 l 2,3,4
 184 869 184 869 174.5 881.5 c 128,-1,5
 165 894 165 894 134 894 c 2,6,-1
 52 894 l 1,7,-1
 52 1014 l 1,8,-1
 89 1014 l 2,9,10
 165 1014 165 1014 200.5 1062 c 128,-1,11
 236 1110 236 1110 239 1220 c 1,12,-1
 240 1309 l 1,13,-1
 400 1309 l 1,14,-1
 400 1014 l 1,15,-1
 707 1014 l 1,16,-1
 707 894 l 1,17,-1
 400 894 l 1,18,-1
 400 333 l 2,19,20
 400 147 400 147 486 111 c 0,21,22
 510 101 510 101 534 101 c 0,23,24
 639 101 639 101 671 274 c 1,25,-1
 787 274 l 1,26,27
 777 69 777 69 616 2 c 0,28,29
 564 -20 564 -20 499 -20 c 0,0,1
EndSplineSet
EndChar

StartChar: u
Encoding: 117 117 110
Width: 1190
GlyphClass: 2
Flags: W
LayerCount: 2
Fore
SplineSet
823 164 m 1,0,1
 698 -20 698 -20 489 -20 c 0,2,3
 338 -20 338 -20 254 73 c 128,-1,4
 170 166 170 166 170 351 c 2,5,-1
 170 766 l 2,6,7
 170 838 170 838 157.5 860 c 128,-1,8
 145 882 145 882 90 882 c 2,9,-1
 64 882 l 1,10,-1
 64 992 l 1,11,12
 156 992 156 992 197.5 1006.5 c 128,-1,13
 239 1021 239 1021 257 1027.5 c 128,-1,14
 275 1034 275 1034 301 1034 c 0,15,16
 352 1034 352 1034 369 1002.5 c 128,-1,17
 386 971 386 971 386 902 c 2,18,-1
 386 344 l 2,19,20
 386 234 386 234 409 194 c 0,21,22
 453 117 453 117 560 117 c 0,23,24
 632 117 632 117 702 174 c 128,-1,25
 772 231 772 231 801 307 c 1,26,-1
 801 766 l 1,27,28
 799 840 799 840 787 861 c 128,-1,29
 775 882 775 882 720 882 c 2,30,-1
 663 882 l 1,31,-1
 663 992 l 1,32,33
 758 992 758 992 809.5 1006.5 c 128,-1,34
 861 1021 861 1021 883 1027.5 c 128,-1,35
 905 1034 905 1034 931 1034 c 0,36,37
 982 1034 982 1034 999.5 1004 c 128,-1,38
 1017 974 1017 974 1017 906 c 2,39,-1
 1017 266 l 2,40,41
 1017 169 1017 169 1026 146 c 0,42,43
 1042 102 1042 102 1106 102 c 0,44,45
 1140 102 1140 102 1164 113 c 1,46,-1
 1164 16 l 1,47,48
 1116 -20 1116 -20 1033 -20 c 0,49,50
 859 -20 859 -20 823 164 c 1,0,1
EndSplineSet
EndChar

StartChar: v
Encoding: 118 118 111
Width: 1062
GlyphClass: 2
Flags: W
LayerCount: 2
Fore
SplineSet
93 797 m 2,0,1
 63 862 63 862 39.5 883 c 128,-1,2
 16 904 16 904 -60 904 c 1,3,-1
 -60 1014 l 1,4,-1
 475 1014 l 1,5,-1
 475 904 l 1,6,7
 364 904 364 904 339 881.5 c 128,-1,8
 314 859 314 859 339 797 c 2,9,-1
 565 249 l 1,10,-1
 806 797 l 2,11,12
 831 854 831 854 796.5 879 c 128,-1,13
 762 904 762 904 645 904 c 1,14,-1
 645 1014 l 1,15,-1
 1101 1014 l 1,16,-1
 1101 904 l 1,17,18
 1038 904 1038 904 1005 878.5 c 128,-1,19
 972 853 972 853 947 797 c 2,20,-1
 580 0 l 1,21,-1
 471 0 l 1,22,-1
 93 797 l 2,0,1
EndSplineSet
EndChar

StartChar: w
Encoding: 119 119 112
Width: 1678
GlyphClass: 2
Flags: W
LayerCount: 2
Fore
SplineSet
132 797 m 2,0,1
 108 858 108 858 82 881 c 128,-1,2
 56 904 56 904 -11 904 c 1,3,-1
 -11 1014 l 1,4,-1
 494 1014 l 1,5,-1
 494 904 l 1,6,7
 389 904 389 904 367.5 885.5 c 128,-1,8
 346 867 346 867 346.5 847 c 128,-1,9
 347 827 347 827 358 797 c 2,10,-1
 552 253 l 1,11,-1
 810 1014 l 1,12,-1
 955 1014 l 1,13,-1
 1207 231 l 1,14,-1
 1397 797 l 1,15,16
 1418 855 1418 855 1383 879.5 c 128,-1,17
 1348 904 1348 904 1236 904 c 1,18,-1
 1236 1014 l 1,19,-1
 1692 1014 l 1,20,-1
 1692 904 l 1,21,22
 1626 904 1626 904 1591.5 878 c 128,-1,23
 1557 852 1557 852 1538 797 c 2,24,-1
 1261 0 l 1,25,-1
 1092 0 l 1,26,-1
 843 685 l 1,27,-1
 611 0 l 1,28,-1
 442 0 l 1,29,-1
 132 797 l 2,0,1
EndSplineSet
EndChar

StartChar: x
Encoding: 120 120 113
Width: 1176
GlyphClass: 2
Flags: W
LayerCount: 2
Fore
SplineSet
42 110 m 1,0,1
 106 110 106 110 148 139 c 128,-1,2
 190 168 190 168 228 215 c 1,3,-1
 476 508 l 1,4,-1
 228 809 l 2,5,6
 194 851 194 851 144 877.5 c 128,-1,7
 94 904 94 904 42 904 c 1,8,-1
 42 1014 l 1,9,-1
 567 1014 l 1,10,-1
 567 904 l 1,11,12
 506 904 506 904 484 884 c 0,13,14
 445 847 445 847 475 809 c 2,15,-1
 634 607 l 1,16,-1
 793 809 l 2,17,18
 827 851 827 851 786 877.5 c 128,-1,19
 745 904 745 904 653 904 c 1,20,-1
 653 1014 l 1,21,-1
 1130 1014 l 1,22,-1
 1130 904 l 1,23,24
 1066 904 1066 904 1024 878.5 c 128,-1,25
 982 853 982 853 945 809 c 2,26,-1
 700 524 l 1,27,-1
 945 215 l 1,28,29
 1026 110 1026 110 1130 110 c 1,30,-1
 1130 0 l 1,31,-1
 606 0 l 1,32,-1
 606 110 l 1,33,34
 684 110 684 110 719 141 c 128,-1,35
 754 172 754 172 719 215 c 2,36,-1
 546 424 l 1,37,-1
 380 215 l 2,38,39
 344 169 344 169 386 139.5 c 128,-1,40
 428 110 428 110 520 110 c 1,41,-1
 520 0 l 1,42,-1
 42 0 l 1,43,-1
 42 110 l 1,0,1
EndSplineSet
EndChar

StartChar: y
Encoding: 121 121 114
Width: 1152
GlyphClass: 2
Flags: W
LayerCount: 2
Fore
SplineSet
287 -386 m 1,0,1
 313 -391 313 -391 330.5 -390.5 c 128,-1,2
 348 -390 348 -390 372.5 -373.5 c 128,-1,3
 397 -357 397 -357 420 -330 c 0,4,5
 465 -279 465 -279 497.5 -206 c 128,-1,6
 530 -133 530 -133 530 -91 c 128,-1,7
 530 -49 530 -49 519.5 -27 c 128,-1,8
 509 -5 509 -5 495 11.5 c 128,-1,9
 481 28 481 28 465 44 c 128,-1,10
 449 60 449 60 439 87 c 2,11,-1
 149 797 l 1,12,13
 128 859 128 859 105 881.5 c 128,-1,14
 82 904 82 904 4 904 c 1,15,-1
 4 1014 l 1,16,-1
 542 1014 l 1,17,-1
 542 904 l 1,18,19
 427 904 427 904 403 885.5 c 128,-1,20
 379 867 379 867 378 847 c 128,-1,21
 377 827 377 827 387 797 c 2,22,-1
 636 117 l 1,23,-1
 889 797 l 1,24,25
 912 855 912 855 875 879.5 c 128,-1,26
 838 904 838 904 718 904 c 1,27,-1
 718 1014 l 1,28,-1
 1184 1014 l 1,29,-1
 1184 904 l 1,30,31
 1118 904 1118 904 1084.5 877.5 c 128,-1,32
 1051 851 1051 851 1030 797 c 2,33,-1
 762 82 l 1,34,35
 727 3 727 3 696 -72 c 128,-1,36
 665 -147 665 -147 633 -213 c 0,37,38
 562 -360 562 -360 479 -435 c 128,-1,39
 396 -510 396 -510 285.5 -510 c 128,-1,40
 175 -510 175 -510 115 -455.5 c 128,-1,41
 55 -401 55 -401 55 -329.5 c 128,-1,42
 55 -258 55 -258 95 -216 c 128,-1,43
 135 -174 135 -174 195 -174 c 0,44,45
 281 -174 281 -174 314 -250 c 0,46,47
 324 -273 324 -273 324 -299 c 0,48,49
 324 -349 324 -349 287 -386 c 1,0,1
EndSplineSet
EndChar

StartChar: z
Encoding: 122 122 115
Width: 1052
GlyphClass: 2
Flags: W
LayerCount: 2
Fore
SplineSet
87 113 m 1,0,-1
 703 905 l 1,1,-1
 389 905 l 2,2,3
 276 905 276 905 238 748 c 0,4,5
 226 702 226 702 219 651 c 1,6,-1
 89 652 l 1,7,-1
 119 1014 l 1,8,-1
 945 1014 l 1,9,-1
 945 895 l 1,10,-1
 337 110 l 1,11,-1
 652 110 l 2,12,13
 777 110 777 110 812 237 c 0,14,15
 824 280 824 280 832 337 c 1,16,-1
 965 337 l 1,17,-1
 935 0 l 1,18,-1
 87 0 l 1,19,-1
 87 113 l 1,0,-1
EndSplineSet
EndChar

StartChar: braceleft
Encoding: 123 123 116
Width: 927
GlyphClass: 2
Flags: W
LayerCount: 2
Fore
SplineSet
522 1443 m 1,0,-1
 541 950 l 1,1,2
 541 732 541 732 343 677 c 1,3,4
 541 622 541 622 541 403 c 0,5,6
 541 306 541 306 531.5 155.5 c 128,-1,7
 522 5 522 5 522 -69 c 0,8,9
 522 -205 522 -205 572 -266.5 c 128,-1,10
 622 -328 622 -328 742 -328 c 2,11,-1
 848 -328 l 1,12,-1
 848 -430 l 1,13,-1
 752 -430 l 2,14,15
 435 -430 435 -430 352 -222 c 0,16,17
 323 -147 323 -147 323 -60 c 0,18,19
 323 53 323 53 332.5 200.5 c 128,-1,20
 342 348 342 348 342 410 c 0,21,22
 342 532 342 532 298.5 576.5 c 128,-1,23
 255 621 255 621 159 621 c 1,24,-1
 159 733 l 1,25,26
 255 733 255 733 298.5 776.5 c 128,-1,27
 342 820 342 820 342 950 c 0,28,29
 342 987 342 987 339 1038 c 0,30,31
 323 1307 323 1307 323 1397 c 0,32,33
 323 1788 323 1788 752 1788 c 2,34,-1
 848 1788 l 1,35,-1
 848 1687 l 1,36,-1
 743 1687 l 2,37,38
 568 1687 568 1687 533 1544 c 0,39,40
 522 1500 522 1500 522 1443 c 1,0,-1
EndSplineSet
EndChar

StartChar: bar
Encoding: 124 124 117
Width: 681
GlyphClass: 2
Flags: W
LayerCount: 2
Fore
SplineSet
256 1653 m 1,0,-1
 419 1653 l 1,1,-1
 419 -148 l 1,2,-1
 256 -148 l 1,3,-1
 256 1653 l 1,0,-1
EndSplineSet
EndChar

StartChar: asciitilde
Encoding: 126 126 119
Width: 1533
GlyphClass: 2
Flags: W
LayerCount: 2
Fore
SplineSet
169 536 m 1,0,1
 182 851 182 851 370 948 c 0,2,3
 433 980 433 980 507.5 980 c 128,-1,4
 582 980 582 980 637.5 962.5 c 128,-1,5
 693 945 693 945 740.5 918.5 c 128,-1,6
 788 892 788 892 829.5 861 c 128,-1,7
 871 830 871 830 911 804 c 0,8,9
 1004 742 1004 742 1079 742 c 0,10,11
 1211 742 1211 742 1244 887 c 1,12,-1
 1259 978 l 1,13,-1
 1365 978 l 1,14,15
 1336 657 1336 657 1162 566 c 0,16,17
 1100 534 1100 534 1028.5 534 c 128,-1,18
 957 534 957 534 906 551.5 c 128,-1,19
 855 569 855 569 810 595.5 c 128,-1,20
 765 622 765 622 724 653 c 0,21,22
 564 772 564 772 455 772 c 0,23,24
 386 772 386 772 342.5 729.5 c 128,-1,25
 299 687 299 687 287 627 c 1,26,-1
 274 536 l 1,27,-1
 169 536 l 1,0,1
EndSplineSet
EndChar

StartChar: cent
Encoding: 162 162 123
Width: 1073
GlyphClass: 2
Flags: W
LayerCount: 2
Fore
SplineSet
560 306 m 1,0,1
 590 301 590 301 609 301 c 0,2,3
 695 301 695 301 755 351 c 128,-1,4
 815 401 815 401 838 494 c 1,5,-1
 975 494 l 1,6,7
 975 370 975 370 865.5 275 c 128,-1,8
 756 180 756 180 575 180 c 2,9,-1
 560 180 l 2,10,11
 553 180 553 180 545 181 c 1,12,-1
 516 -56 l 1,13,-1
 417 -56 l 1,14,-1
 448 195 l 1,15,16
 207 251 207 251 125 496 c 0,17,18
 96 583 96 583 96 690 c 0,19,20
 96 913 96 913 219 1068.5 c 128,-1,21
 342 1224 342 1224 575 1233 c 1,22,-1
 607 1492 l 1,23,-1
 706 1492 l 1,24,-1
 673 1229 l 1,25,26
 810 1213 810 1213 896.5 1137 c 128,-1,27
 983 1061 983 1061 983 951 c 0,28,29
 983 890 983 890 943.5 848.5 c 128,-1,30
 904 807 904 807 843 807 c 0,31,32
 756 807 756 807 723 888 c 0,33,34
 713 912 713 912 713 941 c 0,35,36
 713 1010 713 1010 772 1049 c 1,37,38
 728 1099 728 1099 659 1114 c 1,39,-1
 560 306 l 1,0,1
561 1115 m 1,40,41
 336 1074 336 1074 336 708 c 0,42,43
 336 451 336 451 467 349 c 1,44,-1
 561 1115 l 1,40,41
EndSplineSet
EndChar

StartChar: sterling
Encoding: 163 163 124
Width: 1444
GlyphClass: 2
Flags: W
LayerCount: 2
Fore
SplineSet
1104 1341 m 1,0,1
 1052 1406 1052 1406 962 1406 c 0,2,3
 840 1406 840 1406 776 1302 c 0,4,5
 697 1174 697 1174 675 857 c 1,6,-1
 1026 857 l 1,7,-1
 1026 759 l 1,8,-1
 671 759 l 1,9,-1
 643 402 l 1,10,11
 773 367 773 367 906 262 c 1,12,13
 979 203 979 203 1021.5 186.5 c 128,-1,14
 1064 170 1064 170 1100 170 c 0,15,16
 1173 170 1173 170 1211 217 c 128,-1,17
 1249 264 1249 264 1249 374 c 1,18,-1
 1362 374 l 1,19,20
 1365 339 1365 339 1365 302.5 c 128,-1,21
 1365 266 1365 266 1356.5 218 c 128,-1,22
 1348 170 1348 170 1324 126 c 0,23,24
 1282 47 1282 47 1182 2 c 128,-1,25
 1082 -43 1082 -43 954 -7 c 0,26,27
 871 17 871 17 821 60.5 c 128,-1,28
 771 104 771 104 714 160 c 128,-1,29
 657 216 657 216 619 243 c 1,30,31
 584 119 584 119 496.5 49.5 c 128,-1,32
 409 -20 409 -20 304.5 -20 c 128,-1,33
 200 -20 200 -20 133 38 c 128,-1,34
 66 96 66 96 66 179 c 0,35,36
 66 339 66 339 249 404 c 0,37,38
 317 428 317 428 418 429 c 1,39,-1
 442 695 l 1,40,41
 442 734 442 734 432.5 746.5 c 128,-1,42
 423 759 423 759 392 759 c 2,43,-1
 279 759 l 1,44,-1
 288 857 l 1,45,-1
 397 857 l 2,46,47
 425 857 425 857 440 872.5 c 128,-1,48
 455 888 455 888 458 930 c 0,49,50
 476 1217 476 1217 606 1368.5 c 128,-1,51
 736 1520 736 1520 955 1520 c 0,52,53
 1107 1520 1107 1520 1212 1431.5 c 128,-1,54
 1317 1343 1317 1343 1317 1226 c 0,55,56
 1317 1155 1317 1155 1273.5 1106 c 128,-1,57
 1230 1057 1230 1057 1164 1057 c 128,-1,58
 1098 1057 1098 1057 1054 1099 c 128,-1,59
 1010 1141 1010 1141 1010 1195 c 0,60,61
 1010 1303 1010 1303 1104 1341 c 1,0,1
190 158 m 0,62,63
 190 130 190 130 213.5 107.5 c 128,-1,64
 237 85 237 85 289 85 c 0,65,66
 387 85 387 85 402 243 c 1,67,-1
 407 306 l 1,68,69
 290 302 290 302 240 260.5 c 128,-1,70
 190 219 190 219 190 158 c 0,62,63
EndSplineSet
EndChar

StartChar: currency
Encoding: 164 164 125
Width: 1380
GlyphClass: 2
Flags: W
LayerCount: 2
Fore
SplineSet
911 369 m 1,0,1
 812 305 812 305 693 305 c 128,-1,2
 574 305 574 305 479 361 c 1,3,-1
 316 191 l 1,4,-1
 172 334 l 1,5,-1
 340 495 l 1,6,7
 277 596 277 596 277 717 c 0,8,9
 277 840 277 840 341 939 c 1,10,-1
 172 1101 l 1,11,-1
 316 1244 l 1,12,-1
 479 1072 l 1,13,14
 574 1128 574 1128 692.5 1128 c 128,-1,15
 811 1128 811 1128 910 1064 c 1,16,-1
 1072 1234 l 1,17,-1
 1215 1090 l 1,18,-1
 1044 926 l 1,19,20
 1100 831 1100 831 1100 717 c 128,-1,21
 1100 603 1100 603 1044 508 c 1,22,-1
 1215 345 l 1,23,-1
 1072 201 l 1,24,-1
 911 369 l 1,0,1
688 440 m 256,25,26
 801 440 801 440 873.5 520 c 128,-1,27
 946 600 946 600 946 716.5 c 128,-1,28
 946 833 946 833 873.5 913 c 128,-1,29
 801 993 801 993 688 993 c 256,30,31
 575 993 575 993 503.5 912.5 c 128,-1,32
 432 832 432 832 432 716.5 c 128,-1,33
 432 601 432 601 503.5 520.5 c 128,-1,34
 575 440 575 440 688 440 c 256,25,26
EndSplineSet
EndChar

StartChar: yen
Encoding: 165 165 126
Width: 1505
GlyphClass: 2
Flags: W
LayerCount: 2
Fore
SplineSet
457 110 m 1,0,1
 571 110 571 110 606.5 128.5 c 128,-1,2
 642 147 642 147 652.5 168 c 128,-1,3
 663 189 663 189 663 219 c 2,4,-1
 663 374 l 1,5,-1
 308 374 l 1,6,-1
 308 473 l 1,7,-1
 663 473 l 1,8,-1
 663 648 l 1,9,-1
 645 674 l 1,10,-1
 308 674 l 1,11,-1
 308 783 l 1,12,-1
 572 783 l 1,13,-1
 235 1281 l 1,14,15
 199 1341 199 1341 157 1365.5 c 128,-1,16
 115 1390 115 1390 26 1390 c 1,17,-1
 26 1500 l 1,18,-1
 609 1500 l 1,19,-1
 609 1390 l 1,20,21
 512 1390 512 1390 489 1364.5 c 128,-1,22
 466 1339 466 1339 501 1281 c 1,23,-1
 802 831 l 1,24,-1
 1116 1281 l 1,25,26
 1151 1340 1151 1340 1123 1365 c 128,-1,27
 1095 1390 1095 1390 964 1390 c 1,28,-1
 964 1500 l 1,29,-1
 1481 1500 l 1,30,-1
 1481 1390 l 1,31,32
 1407 1390 1407 1390 1361 1364 c 128,-1,33
 1315 1338 1315 1338 1280 1281 c 1,34,-1
 941 783 l 1,35,-1
 1216 783 l 1,36,-1
 1216 674 l 1,37,-1
 879 674 l 1,38,-1
 879 473 l 1,39,-1
 1216 473 l 1,40,-1
 1216 374 l 1,41,-1
 879 374 l 1,42,-1
 879 219 l 2,43,44
 879 155 879 155 918.5 132.5 c 128,-1,45
 958 110 958 110 1084 110 c 1,46,-1
 1084 0 l 1,47,-1
 457 0 l 1,48,-1
 457 110 l 1,0,1
EndSplineSet
EndChar

StartChar: brokenbar
Encoding: 166 166 127
Width: 681
GlyphClass: 2
Flags: W
LayerCount: 2
Fore
SplineSet
256 1653 m 1,0,-1
 419 1653 l 1,1,-1
 419 852 l 1,2,-1
 256 852 l 1,3,-1
 256 1653 l 1,0,-1
256 653 m 1,4,-1
 419 653 l 1,5,-1
 419 -148 l 1,6,-1
 256 -148 l 1,7,-1
 256 653 l 1,4,-1
EndSplineSet
EndChar

StartChar: section
Encoding: 167 167 128
Width: 1282
GlyphClass: 2
Flags: W
LayerCount: 2
Fore
SplineSet
917 226 m 1,0,1
 1055 107 1055 107 1055 -38.5 c 128,-1,2
 1055 -184 1055 -184 931.5 -274 c 128,-1,3
 808 -364 808 -364 614 -364 c 128,-1,4
 420 -364 420 -364 298.5 -284 c 128,-1,5
 177 -204 177 -204 177 -89 c 0,6,7
 177 -18 177 -18 221.5 32 c 128,-1,8
 266 82 266 82 331 82 c 128,-1,9
 396 82 396 82 437.5 42 c 128,-1,10
 479 2 479 2 479 -65.5 c 128,-1,11
 479 -133 479 -133 424 -175 c 1,12,13
 486 -244 486 -244 629.5 -244 c 128,-1,14
 773 -244 773 -244 823 -152 c 0,15,16
 839 -122 839 -122 839 -84 c 0,17,18
 839 33 839 33 603 155 c 0,19,20
 442 239 442 239 380 282 c 0,21,22
 262 366 262 366 202.5 454.5 c 128,-1,23
 143 543 143 543 143 656 c 0,24,25
 143 811 143 811 269 927 c 0,26,27
 308 963 308 963 355 990 c 1,28,29
 223 1115 223 1115 223 1271 c 128,-1,30
 223 1427 223 1427 345.5 1523.5 c 128,-1,31
 468 1620 468 1620 647 1620 c 128,-1,32
 826 1620 826 1620 944 1533 c 128,-1,33
 1062 1446 1062 1446 1062 1319 c 0,34,35
 1062 1248 1062 1248 1017.5 1198 c 128,-1,36
 973 1148 973 1148 906 1148 c 0,37,38
 806 1148 806 1148 770 1228 c 0,39,40
 760 1252 760 1252 760 1279 c 0,41,42
 760 1370 760 1370 832 1417 c 1,43,44
 781 1504 781 1504 641 1504 c 128,-1,45
 501 1504 501 1504 454 1406 c 0,46,47
 438 1374 438 1374 438 1330 c 0,48,49
 438 1187 438 1187 667 1057 c 0,50,51
 762 1003 762 1003 838 956 c 0,52,53
 1125 778 1125 778 1125 555.5 c 128,-1,54
 1125 333 1125 333 917 226 c 1,0,1
459 909 m 1,55,56
 338 846 338 846 338 706 c 128,-1,57
 338 566 338 566 560 442 c 0,58,59
 624 406 624 406 693 370 c 128,-1,60
 762 334 762 334 797 312 c 1,61,62
 929 376 929 376 929 525 c 0,63,64
 929 651 929 651 699 773 c 0,65,66
 530 863 530 863 459 909 c 1,55,56
EndSplineSet
EndChar

StartChar: dieresis
Encoding: 168 168 129
Width: 0
GlyphClass: 2
Flags: W
LayerCount: 2
Fore
SplineSet
240 1225 m 256,0,1
 176 1225 176 1225 131.5 1268 c 128,-1,2
 87 1311 87 1311 87 1374 c 256,3,4
 87 1437 87 1437 131.5 1481.5 c 128,-1,5
 176 1526 176 1526 240 1526 c 256,6,7
 304 1526 304 1526 348.5 1481.5 c 128,-1,8
 393 1437 393 1437 393 1374 c 256,9,10
 393 1311 393 1311 348.5 1268 c 128,-1,11
 304 1225 304 1225 240 1225 c 256,0,1
-240 1225 m 256,12,13
 -304 1225 -304 1225 -348.5 1268 c 128,-1,14
 -393 1311 -393 1311 -393 1374 c 256,15,16
 -393 1437 -393 1437 -348.5 1481.5 c 128,-1,17
 -304 1526 -304 1526 -240 1526 c 256,18,19
 -176 1526 -176 1526 -131.5 1481.5 c 128,-1,20
 -87 1437 -87 1437 -87 1374 c 256,21,22
 -87 1311 -87 1311 -131.5 1268 c 128,-1,23
 -176 1225 -176 1225 -240 1225 c 256,12,13
EndSplineSet
EndChar

StartChar: copyright
Encoding: 169 169 130
Width: 1918
GlyphClass: 2
Flags: W
LayerCount: 2
Fore
SplineSet
102 730 m 0,0,1
 102 1091 102 1091 350 1334 c 0,2,3
 507 1488 507 1488 722 1546 c 0,4,5
 830 1575 830 1575 946 1575 c 0,6,7
 1176 1575 1176 1575 1372 1464 c 0,8,9
 1668 1295 1668 1295 1760 961 c 0,10,11
 1791 851 1791 851 1791 730 c 0,12,13
 1791 493 1791 493 1675 296 c 0,14,15
 1504 5 1504 5 1170 -85 c 0,16,17
 1062 -114 1062 -114 946 -114 c 0,18,19
 716 -114 716 -114 523.5 -5 c 128,-1,20
 331 104 331 104 216.5 297 c 128,-1,21
 102 490 102 490 102 730 c 0,0,1
233 702 m 0,22,23
 233 567 233 567 289 431.5 c 128,-1,24
 345 296 345 296 442 198.5 c 128,-1,25
 539 101 539 101 669 46.5 c 128,-1,26
 799 -8 799 -8 921.5 -8 c 128,-1,27
 1044 -8 1044 -8 1135 17 c 128,-1,28
 1226 42 1226 42 1306 89 c 0,29,30
 1469 186 1469 186 1564.5 354 c 128,-1,31
 1660 522 1660 522 1660 730 c 0,32,33
 1660 1058 1660 1058 1453 1263.5 c 128,-1,34
 1246 1469 1246 1469 946 1469 c 0,35,36
 753 1469 753 1469 589 1373 c 128,-1,37
 425 1277 425 1277 329 1107.5 c 128,-1,38
 233 938 233 938 233 702 c 0,22,23
991 361 m 0,39,40
 1173 361 1173 361 1218 513 c 1,41,-1
 1343 513 l 1,42,43
 1343 406 1343 406 1238.5 325 c 128,-1,44
 1134 244 1134 244 956.5 244 c 128,-1,45
 779 244 779 244 655 354 c 0,46,47
 509 483 509 483 509 731 c 0,48,49
 509 935 509 935 616 1071 c 0,50,51
 740 1230 740 1230 967 1230 c 0,52,53
 1126 1230 1126 1230 1237.5 1143.5 c 128,-1,54
 1349 1057 1349 1057 1349 944 c 0,55,56
 1349 883 1349 883 1312.5 842.5 c 128,-1,57
 1276 802 1276 802 1221 802 c 256,58,59
 1166 802 1166 802 1129 837 c 128,-1,60
 1092 872 1092 872 1092 935 c 128,-1,61
 1092 998 1092 998 1161 1034 c 1,62,63
 1138 1071 1138 1071 1093 1093 c 128,-1,64
 1048 1115 1048 1115 995 1115 c 0,65,66
 813 1115 813 1115 752 914 c 0,67,68
 731 842 731 842 731 740 c 0,69,70
 731 548 731 548 805 454.5 c 128,-1,71
 879 361 879 361 991 361 c 0,39,40
EndSplineSet
EndChar

StartChar: ordfeminine
Encoding: 170 170 131
Width: 1108
GlyphClass: 2
Flags: W
LayerCount: 2
Fore
SplineSet
712 829 m 1,0,1
 600 697 600 697 427 697 c 128,-1,2
 254 697 254 697 189 822 c 0,3,4
 167 864 167 864 167 920 c 0,5,6
 167 1021 167 1021 245 1090 c 128,-1,7
 323 1159 323 1159 428 1187 c 128,-1,8
 533 1215 533 1215 582.5 1231 c 128,-1,9
 632 1247 632 1247 656.5 1263.5 c 128,-1,10
 681 1280 681 1280 687.5 1299.5 c 128,-1,11
 694 1319 694 1319 694 1358.5 c 128,-1,12
 694 1398 694 1398 658.5 1428 c 128,-1,13
 623 1458 623 1458 549.5 1458 c 128,-1,14
 476 1458 476 1458 409 1419 c 1,15,16
 446 1389 446 1389 446 1352 c 0,17,18
 446 1295 446 1295 415 1264 c 128,-1,19
 384 1233 384 1233 337 1233 c 128,-1,20
 290 1233 290 1233 258.5 1264.5 c 128,-1,21
 227 1296 227 1296 227 1345 c 0,22,23
 227 1443 227 1443 323.5 1504.5 c 128,-1,24
 420 1566 420 1566 568 1566 c 0,25,26
 805 1566 805 1566 856 1404 c 0,27,28
 872 1350 872 1350 872 1280 c 2,29,-1
 872 921 l 2,30,31
 872 872 872 872 883.5 847.5 c 128,-1,32
 895 823 895 823 925 823 c 0,33,34
 983 823 983 823 983 929 c 1,35,-1
 1069 929 l 1,36,37
 1069 921 1069 921 1069 898 c 0,38,39
 1069 821 1069 821 1025 759 c 128,-1,40
 981 697 981 697 883 697 c 0,41,42
 747 697 747 697 712 829 c 1,0,1
397.5 847.5 m 128,-1,44
 430 822 430 822 477 822 c 0,45,46
 570 822 570 822 632 886 c 128,-1,47
 694 950 694 950 694 1066 c 2,48,-1
 694 1166 l 1,49,50
 644 1143 644 1143 585.5 1124 c 128,-1,51
 527 1105 527 1105 512 1100 c 1,52,53
 365 1039 365 1039 365 923 c 0,54,43
 365 873 365 873 397.5 847.5 c 128,-1,44
EndSplineSet
EndChar

StartChar: logicalnot
Encoding: 172 172 133
Width: 1360
GlyphClass: 2
Flags: W
LayerCount: 2
Fore
SplineSet
125 764 m 1,0,-1
 1196 764 l 1,1,-1
 1196 247 l 1,2,-1
 1033 247 l 1,3,-1
 1033 601 l 1,4,-1
 125 601 l 1,5,-1
 125 764 l 1,0,-1
EndSplineSet
EndChar

StartChar: registered
Encoding: 174 174 135
Width: 1548
GlyphClass: 2
Flags: W
LayerCount: 2
Fore
SplineSet
750 229 m 0,0,1
 631 229 631 229 505.5 281 c 128,-1,2
 380 333 380 333 286 425 c 0,3,4
 85 623 85 623 85 918 c 0,5,6
 85 1112 85 1112 176.5 1269 c 128,-1,7
 268 1426 268 1426 426.5 1517 c 128,-1,8
 585 1608 585 1608 773 1608 c 0,9,10
 1058 1608 1058 1608 1260 1412 c 0,11,12
 1389 1287 1389 1287 1438 1106 c 0,13,14
 1463 1017 1463 1017 1463 918 c 0,15,16
 1463 623 1463 623 1261.5 426 c 128,-1,17
 1060 229 1060 229 750 229 c 0,0,1
1177.5 500 m 128,-1,19
 1343 667 1343 667 1343 918 c 128,-1,20
 1343 1169 1343 1169 1177 1336.5 c 128,-1,21
 1011 1504 1011 1504 773 1504 c 0,22,23
 620 1504 620 1504 486 1428 c 1,24,25
 287 1313 287 1313 224 1080 c 0,26,27
 204 1003 204 1003 204 896.5 c 128,-1,28
 204 790 204 790 249 683 c 128,-1,29
 294 576 294 576 371 498 c 0,30,31
 534 333 534 333 773 333 c 128,-1,18
 1012 333 1012 333 1177.5 500 c 128,-1,19
1057 631 m 0,32,33
 1099 631 1099 631 1099 749 c 1,34,-1
 1155 749 l 1,35,36
 1162 726 1162 726 1162 709 c 128,-1,37
 1162 692 1162 692 1161.5 672.5 c 128,-1,38
 1161 653 1161 653 1146 622 c 0,39,40
 1108 546 1108 546 1012 546 c 0,41,42
 897 546 897 546 856 717 c 0,43,44
 831 822 831 822 808 855 c 128,-1,45
 785 888 785 888 753 888 c 2,46,-1
 665 888 l 1,47,-1
 665 694 l 2,48,49
 665 647 665 647 682 634.5 c 128,-1,50
 699 622 699 622 779 622 c 1,51,-1
 779 559 l 1,52,-1
 435 559 l 1,53,-1
 435 622 l 1,54,55
 489 622 489 622 504.5 637 c 128,-1,56
 520 652 520 652 520 694 c 2,57,-1
 520 1159 l 2,58,59
 520 1202 520 1202 504 1216 c 128,-1,60
 488 1230 488 1230 435 1230 c 1,61,-1
 435 1302 l 1,62,-1
 775 1302 l 2,63,64
 930 1302 930 1302 1000.5 1245 c 128,-1,65
 1071 1188 1071 1188 1071 1105 c 0,66,67
 1071 964 1071 964 912 911 c 1,68,69
 954 882 954 882 970.5 830 c 128,-1,70
 987 778 987 778 994 746 c 0,71,72
 1019 631 1019 631 1057 631 c 0,32,33
725 954 m 2,73,74
 810 954 810 954 862.5 991.5 c 128,-1,75
 915 1029 915 1029 915 1093 c 128,-1,76
 915 1157 915 1157 876.5 1194.5 c 128,-1,77
 838 1232 838 1232 763 1232 c 2,78,-1
 665 1232 l 1,79,-1
 665 954 l 1,80,-1
 725 954 l 2,73,74
EndSplineSet
EndChar

StartChar: macron
Encoding: 175 175 136
Width: 0
GlyphClass: 2
Flags: W
LayerCount: 2
Fore
SplineSet
-340 1233 m 1,0,-1
 -340 1403 l 1,1,-1
 340 1403 l 1,2,-1
 340 1233 l 1,3,-1
 -340 1233 l 1,0,-1
EndSplineSet
EndChar

StartChar: degree
Encoding: 176 176 137
Width: 1089
GlyphClass: 2
Flags: W
LayerCount: 2
Fore
SplineSet
544 903 m 0,0,1
 416 903 416 903 326 993 c 128,-1,2
 236 1083 236 1083 236 1211 c 0,3,4
 236 1340 236 1340 326 1430 c 128,-1,5
 416 1520 416 1520 544 1520 c 0,6,7
 673 1520 673 1520 763 1430 c 128,-1,8
 853 1340 853 1340 853 1211 c 0,9,10
 853 1083 853 1083 763 993 c 128,-1,11
 673 903 673 903 544 903 c 0,0,1
544 1041 m 256,12,13
 612 1041 612 1041 658 1090.5 c 128,-1,14
 704 1140 704 1140 704 1211 c 0,15,16
 704 1281 704 1281 658 1330.5 c 128,-1,17
 612 1380 612 1380 544 1380 c 256,18,19
 476 1380 476 1380 430 1330.5 c 128,-1,20
 384 1281 384 1281 384 1211 c 0,21,22
 384 1140 384 1140 430 1090.5 c 128,-1,23
 476 1041 476 1041 544 1041 c 256,12,13
EndSplineSet
EndChar

StartChar: plusminus
Encoding: 177 177 138
Width: 1360
GlyphClass: 2
Flags: W
LayerCount: 2
Fore
SplineSet
127 163 m 1,0,-1
 596 163 l 1,1,-1
 596 598 l 1,2,-1
 127 598 l 1,3,-1
 127 761 l 1,4,-1
 596 761 l 1,5,-1
 596 1230 l 1,6,-1
 759 1230 l 1,7,-1
 759 761 l 1,8,-1
 1228 761 l 1,9,-1
 1228 598 l 1,10,-1
 759 598 l 1,11,-1
 759 163 l 1,12,-1
 1228 163 l 1,13,-1
 1228 0 l 1,14,-1
 127 0 l 1,15,-1
 127 163 l 1,0,-1
EndSplineSet
EndChar

StartChar: twosuperior
Encoding: 178 178 139
Width: 1056
GlyphClass: 2
Flags: W
LayerCount: 2
Fore
SplineSet
579 971 m 2,0,1
 829 971 829 971 829 1105 c 1,2,-1
 931 1105 l 1,3,-1
 865 815 l 1,4,-1
 184 815 l 1,5,-1
 184 903 l 2,6,7
 184 998 184 998 324.5 1108 c 128,-1,8
 465 1218 465 1218 513 1259 c 0,9,10
 671 1396 671 1396 671 1530.5 c 128,-1,11
 671 1665 671 1665 572 1700 c 0,12,13
 542 1710 542 1710 503.5 1710 c 128,-1,14
 465 1710 465 1710 423.5 1692 c 128,-1,15
 382 1674 382 1674 362 1634 c 1,16,17
 428 1597 428 1597 428 1529 c 128,-1,18
 428 1461 428 1461 389.5 1422.5 c 128,-1,19
 351 1384 351 1384 308 1384 c 0,20,21
 236 1384 236 1384 197.5 1424.5 c 128,-1,22
 159 1465 159 1465 159 1522 c 0,23,24
 159 1643 159 1643 262 1740.5 c 128,-1,25
 365 1838 365 1838 524.5 1838 c 128,-1,26
 684 1838 684 1838 785 1758.5 c 128,-1,27
 886 1679 886 1679 886 1548 c 0,28,29
 886 1387 886 1387 685 1228 c 0,30,31
 629 1183 629 1183 527.5 1106 c 128,-1,32
 426 1029 426 1029 380 971 c 1,33,-1
 579 971 l 2,0,1
EndSplineSet
EndChar

StartChar: threesuperior
Encoding: 179 179 140
Width: 1053
GlyphClass: 2
Flags: W
LayerCount: 2
Fore
SplineSet
740 1332 m 1,0,1
 910 1240 910 1240 910 1102 c 128,-1,2
 910 964 910 964 793 880 c 128,-1,3
 676 796 676 796 513 796 c 128,-1,4
 350 796 350 796 252.5 861.5 c 128,-1,5
 155 927 155 927 155 1015 c 0,6,7
 155 1076 155 1076 182 1107 c 0,8,9
 228 1160 228 1160 282 1160 c 128,-1,10
 336 1160 336 1160 370 1124.5 c 128,-1,11
 404 1089 404 1089 404 1039.5 c 128,-1,12
 404 990 404 990 372 956 c 1,13,14
 413 913 413 913 510 913 c 0,15,16
 638 913 638 913 680 1018 c 0,17,18
 695 1053 695 1053 695 1092 c 0,19,20
 695 1166 695 1166 660 1218 c 128,-1,21
 625 1270 625 1270 566 1270 c 2,22,-1
 454 1270 l 1,23,-1
 454 1375 l 1,24,-1
 531 1375 l 2,25,26
 607 1375 607 1375 651 1429.5 c 128,-1,27
 695 1484 695 1484 695 1542 c 0,28,29
 695 1640 695 1640 646 1682 c 128,-1,30
 597 1724 597 1724 538 1724 c 0,31,32
 419 1724 419 1724 379 1675 c 1,33,34
 417 1637 417 1637 417 1587 c 0,35,36
 417 1536 417 1536 382 1501 c 128,-1,37
 347 1466 347 1466 308 1466 c 0,38,39
 244 1466 244 1466 209.5 1502.5 c 128,-1,40
 175 1539 175 1539 175 1588 c 0,41,42
 175 1686 175 1686 277.5 1763.5 c 128,-1,43
 380 1841 380 1841 532.5 1841 c 128,-1,44
 685 1841 685 1841 792 1763.5 c 128,-1,45
 899 1686 899 1686 899 1562 c 0,46,47
 899 1414 899 1414 740 1332 c 1,0,1
EndSplineSet
EndChar

StartChar: acute
Encoding: 180 180 141
Width: 0
GlyphClass: 2
Flags: W
LayerCount: 2
Fore
SplineSet
35 1255 m 2,0,1
 -2 1194 -2 1194 -54 1194 c 0,2,3
 -78 1194 -78 1194 -91.5 1209.5 c 128,-1,4
 -105 1225 -105 1225 -105 1239.5 c 128,-1,5
 -105 1254 -105 1254 -102 1265 c 2,6,-1
 -52 1501 l 2,7,8
 -30 1604 -30 1604 -10 1635 c 0,9,10
 27 1690 27 1690 86 1690 c 0,11,12
 206 1690 206 1690 206 1593 c 0,13,14
 206 1540 206 1540 165 1471 c 2,15,-1
 35 1255 l 2,0,1
EndSplineSet
EndChar

StartChar: mu
Encoding: 181 181 142
Width: 1277
GlyphClass: 2
Flags: W
LayerCount: 2
Fore
SplineSet
995 218 m 0,0,1
 995 120 995 120 1057 120 c 0,2,3
 1121 120 1121 120 1158 261 c 1,4,-1
 1253 261 l 1,5,6
 1184 -20 1184 -20 986 -20 c 0,7,8
 881 -20 881 -20 830 71 c 0,9,10
 814 101 814 101 810 142 c 1,11,12
 681 -20 681 -20 484 -20 c 0,13,14
 357 -20 357 -20 300 66 c 1,15,16
 316 -99 316 -99 316 -212 c 0,17,18
 316 -397 316 -397 276.5 -460.5 c 128,-1,19
 237 -524 237 -524 194 -524 c 0,20,21
 123 -524 123 -524 95.5 -469 c 128,-1,22
 68 -414 68 -414 68 -328 c 128,-1,23
 68 -242 68 -242 87 -148 c 128,-1,24
 106 -54 106 -54 132 39 c 128,-1,25
 158 132 158 132 184.5 219.5 c 128,-1,26
 211 307 211 307 226 381 c 1,27,-1
 296 759 l 1,28,29
 303 789 303 789 303 812 c 128,-1,30
 303 835 303 835 289.5 855 c 128,-1,31
 276 875 276 875 216 875 c 2,32,-1
 165 875 l 1,33,-1
 165 991 l 1,34,35
 256 991 256 991 306 1005.5 c 128,-1,36
 356 1020 356 1020 377.5 1026.5 c 128,-1,37
 399 1033 399 1033 439.5 1033 c 128,-1,38
 480 1033 480 1033 502.5 1005 c 128,-1,39
 525 977 525 977 525 951 c 128,-1,40
 525 925 525 925 520 905 c 1,41,-1
 420 374 l 1,42,43
 406 311 406 311 406 270 c 0,44,45
 406 110 406 110 560 110 c 0,46,47
 634 110 634 110 705 164.5 c 128,-1,48
 776 219 776 219 807 297 c 1,49,-1
 887 759 l 1,50,51
 901 822 901 822 883 848.5 c 128,-1,52
 865 875 865 875 806 875 c 2,53,-1
 755 875 l 1,54,-1
 755 991 l 1,55,56
 846 991 846 991 896.5 1005.5 c 128,-1,57
 947 1020 947 1020 968 1026.5 c 128,-1,58
 989 1033 989 1033 1029.5 1033 c 128,-1,59
 1070 1033 1070 1033 1092.5 1004.5 c 128,-1,60
 1115 976 1115 976 1115 950 c 128,-1,61
 1115 924 1115 924 1111 905 c 2,62,-1
 1001 266 l 2,63,64
 995 234 995 234 995 218 c 0,0,1
EndSplineSet
EndChar

StartChar: paragraph
Encoding: 182 182 143
Width: 1272
GlyphClass: 2
Flags: W
LayerCount: 2
Fore
SplineSet
556 -375 m 1,0,1
 593 -399 593 -399 640 -399 c 0,2,3
 735 -399 735 -399 770.5 -314.5 c 128,-1,4
 806 -230 806 -230 806 2 c 2,5,-1
 806 1500 l 1,6,-1
 1236 1500 l 1,7,-1
 1236 1392 l 1,8,9
 1101 1392 1101 1392 1075 1373.5 c 128,-1,10
 1049 1355 1049 1355 1042.5 1324 c 128,-1,11
 1036 1293 1036 1293 1036 1237 c 2,12,-1
 1036 22 l 2,13,14
 1036 -253 1036 -253 912 -394 c 0,15,16
 809 -510 809 -510 659.5 -510 c 128,-1,17
 510 -510 510 -510 428.5 -440.5 c 128,-1,18
 347 -371 347 -371 347 -268.5 c 128,-1,19
 347 -166 347 -166 440 -123 c 0,20,21
 469 -110 469 -110 516 -110 c 128,-1,22
 563 -110 563 -110 601.5 -147.5 c 128,-1,23
 640 -185 640 -185 640 -238 c 0,24,25
 640 -336 640 -336 556 -375 c 1,0,1
605 565 m 1,26,27
 402 565 402 565 260 701.5 c 128,-1,28
 118 838 118 838 118 1032 c 256,29,30
 118 1226 118 1226 260 1362.5 c 128,-1,31
 402 1499 402 1499 605 1499 c 1,32,-1
 605 565 l 1,26,27
EndSplineSet
EndChar

StartChar: cedilla
Encoding: 184 184 145
Width: 658
GlyphClass: 2
Flags: W
LayerCount: 2
Fore
SplineSet
472 -165 m 0,0,1
 472 -419 472 -419 212 -419 c 0,2,3
 154 -419 154 -419 106 -403 c 128,-1,4
 58 -387 58 -387 47 -379 c 1,5,-1
 54 -273 l 1,6,7
 103 -288 103 -288 131 -288 c 0,8,9
 216 -288 216 -288 259 -254 c 0,10,11
 346 -185 346 -185 346 -2 c 0,12,13
 346 6 346 6 346 14 c 1,14,-1
 446 45 l 1,15,16
 472 -77 472 -77 472 -165 c 0,0,1
EndSplineSet
EndChar

StartChar: onesuperior
Encoding: 185 185 146
Width: 826
GlyphClass: 2
Flags: W
LayerCount: 2
Fore
SplineSet
139 912 m 1,0,1
 256 912 256 912 291.5 932 c 128,-1,2
 327 952 327 952 338 974.5 c 128,-1,3
 349 997 349 997 349 1030 c 2,4,-1
 349 1391 l 2,5,6
 349 1471 349 1471 335.5 1495 c 128,-1,7
 322 1519 322 1519 260 1519 c 2,8,-1
 128 1519 l 1,9,-1
 128 1625 l 1,10,11
 253 1625 253 1625 343.5 1688.5 c 128,-1,12
 434 1752 434 1752 434 1816 c 1,13,-1
 543 1816 l 1,14,-1
 542 1030 l 2,15,16
 542 960 542 960 569 942 c 0,17,18
 614 912 614 912 741 912 c 1,19,-1
 741 815 l 1,20,-1
 139 815 l 1,21,-1
 139 912 l 1,0,1
EndSplineSet
EndChar

StartChar: ordmasculine
Encoding: 186 186 147
Width: 1107
GlyphClass: 2
Flags: W
LayerCount: 2
Fore
SplineSet
554 698 m 256,0,1
 349 698 349 698 243.5 821 c 128,-1,2
 138 944 138 944 138 1144 c 128,-1,3
 138 1344 138 1344 253 1455 c 128,-1,4
 368 1566 368 1566 554 1566 c 256,5,6
 740 1566 740 1566 855 1455 c 128,-1,7
 970 1344 970 1344 970 1144 c 128,-1,8
 970 944 970 944 864.5 821 c 128,-1,9
 759 698 759 698 554 698 c 256,0,1
708 889 m 128,-1,11
 767 976 767 976 767 1130 c 0,12,13
 767 1379 767 1379 640 1442 c 0,14,15
 601 1462 601 1462 554 1462 c 0,16,17
 457 1462 457 1462 399.5 1379 c 128,-1,18
 342 1296 342 1296 342 1137 c 128,-1,19
 342 978 342 978 400.5 890 c 128,-1,20
 459 802 459 802 554 802 c 128,-1,10
 649 802 649 802 708 889 c 128,-1,11
EndSplineSet
EndChar

StartChar: onequarter
Encoding: 188 188 149
Width: 1089
GlyphClass: 2
Flags: W
LayerCount: 2
Fore
SplineSet
269 1086 m 1,0,1
 386 1086 386 1086 421.5 1106 c 128,-1,2
 457 1126 457 1126 468 1148.5 c 128,-1,3
 479 1171 479 1171 479 1204 c 2,4,-1
 479 1565 l 2,5,6
 479 1645 479 1645 465.5 1669 c 128,-1,7
 452 1693 452 1693 390 1693 c 2,8,-1
 258 1693 l 1,9,-1
 258 1799 l 1,10,11
 383 1799 383 1799 473.5 1862.5 c 128,-1,12
 564 1926 564 1926 564 1990 c 1,13,-1
 673 1990 l 1,14,-1
 672 1204 l 2,15,16
 672 1134 672 1134 699 1116 c 0,17,18
 744 1086 744 1086 871 1086 c 1,19,-1
 871 989 l 1,20,-1
 269 989 l 1,21,-1
 269 1086 l 1,0,1
146 843 m 1,22,-1
 943 843 l 1,23,-1
 943 750 l 1,24,-1
 146 750 l 1,25,-1
 146 843 l 1,22,-1
586 631 m 1,26,-1
 744 631 l 1,27,-1
 744 88 l 2,28,29
 744 52 744 52 755.5 42.5 c 128,-1,30
 767 33 767 33 794 33 c 2,31,-1
 953 33 l 1,32,-1
 953 -76 l 1,33,-1
 788 -76 l 2,34,35
 759 -76 759 -76 751.5 -83.5 c 128,-1,36
 744 -91 744 -91 744 -125 c 2,37,-1
 744 -189 l 2,38,39
 744 -245 744 -245 772 -264 c 128,-1,40
 800 -283 800 -283 898 -283 c 1,41,-1
 898 -380 l 1,42,-1
 367 -380 l 1,43,-1
 367 -283 l 1,44,45
 486 -283 486 -283 509 -269 c 128,-1,46
 532 -255 532 -255 537 -234.5 c 128,-1,47
 542 -214 542 -214 542 -179 c 2,48,-1
 542 -76 l 1,49,-1
 118 -76 l 1,50,-1
 70 35 l 1,51,-1
 586 631 l 1,26,-1
541 27 m 1,52,-1
 542 6 l 1,53,-1
 542 415 l 1,54,-1
 206 27 l 1,55,-1
 541 27 l 1,52,-1
EndSplineSet
EndChar

StartChar: onehalf
Encoding: 189 189 150
Width: 1089
GlyphClass: 2
Flags: W
LayerCount: 2
Fore
SplineSet
269 1086 m 1,0,1
 386 1086 386 1086 421.5 1106 c 128,-1,2
 457 1126 457 1126 468 1148.5 c 128,-1,3
 479 1171 479 1171 479 1204 c 2,4,-1
 479 1565 l 2,5,6
 479 1645 479 1645 465.5 1669 c 128,-1,7
 452 1693 452 1693 390 1693 c 2,8,-1
 258 1693 l 1,9,-1
 258 1799 l 1,10,11
 383 1799 383 1799 473.5 1862.5 c 128,-1,12
 564 1926 564 1926 564 1990 c 1,13,-1
 673 1990 l 1,14,-1
 672 1204 l 2,15,16
 672 1134 672 1134 699 1116 c 0,17,18
 744 1086 744 1086 871 1086 c 1,19,-1
 871 989 l 1,20,-1
 269 989 l 1,21,-1
 269 1086 l 1,0,1
146 843 m 1,22,-1
 943 843 l 1,23,-1
 943 750 l 1,24,-1
 146 750 l 1,25,-1
 146 843 l 1,22,-1
623 -224 m 2,26,27
 873 -224 873 -224 873 -90 c 1,28,-1
 975 -90 l 1,29,-1
 909 -380 l 1,30,-1
 233 -380 l 1,31,-1
 233 -292 l 2,32,33
 233 -197 233 -197 373.5 -87 c 128,-1,34
 514 23 514 23 562 64 c 0,35,36
 720 201 720 201 720 335.5 c 128,-1,37
 720 470 720 470 621 504 c 0,38,39
 591 515 591 515 552.5 515 c 128,-1,40
 514 515 514 515 472.5 497 c 128,-1,41
 431 479 431 479 411 439 c 1,42,43
 477 402 477 402 477 334 c 128,-1,44
 477 266 477 266 438.5 227.5 c 128,-1,45
 400 189 400 189 357 189 c 0,46,47
 285 189 285 189 246.5 229.5 c 128,-1,48
 208 270 208 270 208 327 c 0,49,50
 208 448 208 448 311 545.5 c 128,-1,51
 414 643 414 643 573.5 643 c 128,-1,52
 733 643 733 643 834 563.5 c 128,-1,53
 935 484 935 484 935 353 c 0,54,55
 935 192 935 192 734 32 c 0,56,57
 678 -12 678 -12 578.5 -86.5 c 128,-1,58
 479 -161 479 -161 429 -224 c 1,59,-1
 623 -224 l 2,26,27
EndSplineSet
EndChar

StartChar: threequarters
Encoding: 190 190 151
Width: 1089
GlyphClass: 2
Flags: W
LayerCount: 2
Fore
SplineSet
764 1500 m 1,0,1
 934 1408 934 1408 934 1270 c 128,-1,2
 934 1132 934 1132 817 1048 c 128,-1,3
 700 964 700 964 537 964 c 128,-1,4
 374 964 374 964 276.5 1029.5 c 128,-1,5
 179 1095 179 1095 179 1183 c 0,6,7
 179 1244 179 1244 206 1275 c 0,8,9
 252 1328 252 1328 306 1328 c 128,-1,10
 360 1328 360 1328 394 1292.5 c 128,-1,11
 428 1257 428 1257 428 1207.5 c 128,-1,12
 428 1158 428 1158 396 1124 c 1,13,14
 437 1081 437 1081 534 1081 c 0,15,16
 662 1081 662 1081 704 1186 c 0,17,18
 719 1221 719 1221 719 1260 c 0,19,20
 719 1334 719 1334 684 1386 c 128,-1,21
 649 1438 649 1438 590 1438 c 2,22,-1
 478 1438 l 1,23,-1
 478 1543 l 1,24,-1
 555 1543 l 2,25,26
 631 1543 631 1543 675 1597.5 c 128,-1,27
 719 1652 719 1652 719 1710 c 0,28,29
 719 1808 719 1808 670 1850 c 128,-1,30
 621 1892 621 1892 562 1892 c 0,31,32
 443 1892 443 1892 403 1843 c 1,33,34
 441 1805 441 1805 441 1755 c 0,35,36
 441 1704 441 1704 406 1669 c 128,-1,37
 371 1634 371 1634 332 1634 c 0,38,39
 268 1634 268 1634 233.5 1670.5 c 128,-1,40
 199 1707 199 1707 199 1756 c 0,41,42
 199 1854 199 1854 301.5 1931.5 c 128,-1,43
 404 2009 404 2009 556.5 2009 c 128,-1,44
 709 2009 709 2009 816 1931.5 c 128,-1,45
 923 1854 923 1854 923 1730 c 0,46,47
 923 1582 923 1582 764 1500 c 1,0,1
146 843 m 1,48,-1
 943 843 l 1,49,-1
 943 750 l 1,50,-1
 146 750 l 1,51,-1
 146 843 l 1,48,-1
586 631 m 1,52,-1
 744 631 l 1,53,-1
 744 88 l 2,54,55
 744 52 744 52 755.5 42.5 c 128,-1,56
 767 33 767 33 794 33 c 2,57,-1
 953 33 l 1,58,-1
 953 -76 l 1,59,-1
 788 -76 l 2,60,61
 759 -76 759 -76 751.5 -83.5 c 128,-1,62
 744 -91 744 -91 744 -125 c 2,63,-1
 744 -189 l 2,64,65
 744 -245 744 -245 772 -264 c 128,-1,66
 800 -283 800 -283 898 -283 c 1,67,-1
 898 -380 l 1,68,-1
 367 -380 l 1,69,-1
 367 -283 l 1,70,71
 486 -283 486 -283 509 -269 c 128,-1,72
 532 -255 532 -255 537 -234.5 c 128,-1,73
 542 -214 542 -214 542 -179 c 2,74,-1
 542 -76 l 1,75,-1
 118 -76 l 1,76,-1
 70 35 l 1,77,-1
 586 631 l 1,52,-1
541 27 m 1,78,-1
 542 6 l 1,79,-1
 542 415 l 1,80,-1
 206 27 l 1,81,-1
 541 27 l 1,78,-1
EndSplineSet
EndChar

StartChar: Aring
Encoding: 197 197 158
Width: 1581
GlyphClass: 2
Flags: W
LayerCount: 2
Fore
SplineSet
-11 110 m 1,0,1
 72 110 72 110 114.5 135.5 c 128,-1,2
 157 161 157 161 180 219 c 1,3,-1
 686 1420 l 1,4,5
 574 1470 574 1470 538 1592 c 0,6,7
 526 1630 526 1630 526 1680 c 0,8,9
 526 1788 526 1788 607 1869 c 128,-1,10
 688 1950 688 1950 803 1950 c 256,11,12
 918 1950 918 1950 999.5 1868.5 c 128,-1,13
 1081 1787 1081 1787 1081 1666.5 c 128,-1,14
 1081 1546 1081 1546 986 1463 c 0,15,16
 957 1437 957 1437 921 1421 c 1,17,-1
 1385 219 l 1,18,19
 1412 155 1412 155 1445 132.5 c 128,-1,20
 1478 110 1478 110 1574 110 c 1,21,-1
 1574 0 l 1,22,-1
 957 0 l 1,23,-1
 957 110 l 1,24,25
 1089 110 1089 110 1113.5 128 c 128,-1,26
 1138 146 1138 146 1136.5 167 c 128,-1,27
 1135 188 1135 188 1123 219 c 2,28,-1
 1033 470 l 1,29,-1
 452 470 l 1,30,-1
 349 219 l 1,31,32
 326 159 326 159 363 134.5 c 128,-1,33
 400 110 400 110 536 110 c 1,34,-1
 536 0 l 1,35,-1
 -11 0 l 1,36,-1
 -11 110 l 1,0,1
803 1514 m 0,37,38
 885 1514 885 1514 916 1606 c 0,39,40
 926 1635 926 1635 926 1672 c 0,41,42
 926 1742 926 1742 891 1785.5 c 128,-1,43
 856 1829 856 1829 803 1829 c 0,44,45
 721 1829 721 1829 690 1738 c 0,46,47
 680 1709 680 1709 680 1672 c 0,48,49
 680 1562 680 1562 756 1525 c 0,50,51
 778 1514 778 1514 803 1514 c 0,37,38
994 580 m 1,52,-1
 762 1228 l 1,53,-1
 497 580 l 1,54,-1
 994 580 l 1,52,-1
EndSplineSet
EndChar

StartChar: AE
Encoding: 198 198 159
Width: 2156
GlyphClass: 2
Flags: W
LayerCount: 2
Fore
SplineSet
-22 110 m 1,0,1
 116 110 116 110 189 219 c 2,2,-1
 860 1236 l 2,3,4
 937 1351 937 1351 826 1382 c 0,5,6
 798 1390 798 1390 752 1390 c 2,7,-1
 638 1390 l 1,8,-1
 638 1500 l 1,9,-1
 1998 1500 l 1,10,-1
 2037 1137 l 1,11,-1
 1892 1136 l 1,12,-1
 1865 1249 l 2,13,14
 1845 1330 1845 1330 1824 1351 c 0,15,16
 1787 1388 1787 1388 1699 1388 c 2,17,-1
 1324 1388 l 1,18,-1
 1324 806 l 1,19,-1
 1511 806 l 2,20,21
 1565 806 1565 806 1597 808 c 128,-1,22
 1629 810 1629 810 1649.5 826.5 c 128,-1,23
 1670 843 1670 843 1670 945 c 1,24,-1
 1820 945 l 1,25,-1
 1820 558 l 1,26,-1
 1670 558 l 1,27,28
 1670 655 1670 655 1649.5 672.5 c 128,-1,29
 1629 690 1629 690 1597 693 c 128,-1,30
 1565 696 1565 696 1511 696 c 2,31,-1
 1324 696 l 1,32,-1
 1324 110 l 1,33,-1
 1738 110 l 2,34,35
 1861 110 1861 110 1888 182 c 0,36,37
 1897 206 1897 206 1904 238 c 2,38,-1
 1931 361 l 1,39,-1
 2066 361 l 1,40,-1
 2027 0 l 1,41,-1
 929 0 l 1,42,-1
 929 110 l 1,43,44
 1026 110 1026 110 1054 128 c 128,-1,45
 1082 146 1082 146 1090 166.5 c 128,-1,46
 1098 187 1098 187 1098 217 c 2,47,-1
 1098 470 l 1,48,-1
 522 470 l 1,49,-1
 358 219 l 2,50,51
 321 162 321 162 351.5 136 c 128,-1,52
 382 110 382 110 515 110 c 1,53,-1
 515 0 l 1,54,-1
 -22 0 l 1,55,-1
 -22 110 l 1,0,1
1098 580 m 1,56,-1
 1098 1347 l 1,57,-1
 594 580 l 1,58,-1
 1098 580 l 1,56,-1
EndSplineSet
EndChar

StartChar: Ccedilla
Encoding: 199 199 160
Width: 1491
GlyphClass: 2
Flags: W
LayerCount: 2
Fore
SplineSet
881 -170 m 0,0,1
 881 -419 881 -419 621 -419 c 0,2,3
 563 -419 563 -419 515 -403 c 128,-1,4
 467 -387 467 -387 456 -379 c 1,5,-1
 463 -273 l 1,6,7
 513 -288 513 -288 539 -288 c 0,8,9
 619 -288 619 -288 661 -258 c 0,10,11
 750 -194 750 -194 754 -20 c 1,12,13
 476 -17 476 -17 292 160 c 1,14,15
 78 363 78 363 78 750 c 0,16,17
 78 1062 78 1062 246 1276 c 0,18,19
 365 1429 365 1429 563 1489 c 0,20,21
 665 1520 665 1520 787 1520 c 0,22,23
 1028 1520 1028 1520 1183 1409.5 c 128,-1,24
 1338 1299 1338 1299 1338 1132 c 0,25,26
 1338 1007 1338 1007 1240 964 c 0,27,28
 1211 951 1211 951 1177 951 c 0,29,30
 1072 951 1072 951 1036 1040 c 0,31,32
 1025 1068 1025 1068 1025 1106.5 c 128,-1,33
 1025 1145 1025 1145 1047 1182.5 c 128,-1,34
 1069 1220 1069 1220 1105 1240 c 1,35,36
 1024 1395 1024 1395 815 1395 c 128,-1,37
 606 1395 606 1395 475 1236.5 c 128,-1,38
 344 1078 344 1078 344 760.5 c 128,-1,39
 344 443 344 443 477 276.5 c 128,-1,40
 610 110 610 110 798 110 c 0,41,42
 1113 110 1113 110 1196 400 c 1,43,-1
 1340 400 l 1,44,45
 1340 255 1340 255 1207 133.5 c 128,-1,46
 1074 12 1074 12 866 -13 c 1,47,48
 881 -97 881 -97 881 -170 c 0,0,1
EndSplineSet
EndChar

StartChar: Eth
Encoding: 208 208 169
Width: 1517
GlyphClass: 2
Flags: W
LayerCount: 2
Fore
SplineSet
82 110 m 1,0,1
 188 110 188 110 214 128.5 c 128,-1,2
 240 147 240 147 245 168 c 128,-1,3
 250 189 250 189 250 219 c 2,4,-1
 250 723 l 1,5,-1
 82 723 l 1,6,-1
 82 843 l 1,7,-1
 250 843 l 1,8,-1
 250 1281 l 2,9,10
 250 1346 250 1346 228 1362 c 0,11,12
 188 1390 188 1390 82 1390 c 1,13,-1
 82 1500 l 1,14,-1
 629 1500 l 2,15,16
 1051 1500 1051 1500 1253 1302 c 1,17,18
 1436 1121 1436 1121 1436 786 c 0,19,20
 1436 254 1436 254 1020 75 c 0,21,22
 846 0 846 0 619 0 c 2,23,-1
 82 0 l 1,24,-1
 82 110 l 1,0,1
641 111 m 2,25,26
 1170 111 1170 111 1170 764 c 0,27,28
 1170 1071 1170 1071 1029.5 1235.5 c 128,-1,29
 889 1400 889 1400 600 1400 c 2,30,-1
 480 1400 l 1,31,-1
 480 843 l 1,32,-1
 821 843 l 1,33,-1
 821 723 l 1,34,-1
 480 723 l 1,35,-1
 480 111 l 1,36,-1
 641 111 l 2,25,26
EndSplineSet
EndChar

StartChar: multiply
Encoding: 215 215 176
Width: 1360
GlyphClass: 2
Flags: W
LayerCount: 2
Fore
SplineSet
552 657 m 1,0,-1
 221 989 l 1,1,-1
 336 1104 l 1,2,-1
 667 772 l 1,3,-1
 999 1104 l 1,4,-1
 1114 989 l 1,5,-1
 782 657 l 1,6,-1
 1114 326 l 1,7,-1
 999 211 l 1,8,-1
 667 542 l 1,9,-1
 336 211 l 1,10,-1
 221 326 l 1,11,-1
 552 657 l 1,0,-1
EndSplineSet
EndChar

StartChar: Oslash
Encoding: 216 216 177
Width: 1578
GlyphClass: 2
Flags: W
LayerCount: 2
Fore
SplineSet
1213 1392 m 1,0,1
 1496 1190 1496 1190 1496 739 c 0,2,3
 1496 381 1496 381 1299.5 180.5 c 128,-1,4
 1103 -20 1103 -20 789 -20 c 0,5,6
 584 -20 584 -20 427 69 c 1,7,-1
 325 -103 l 1,8,-1
 221 -33 l 1,9,-1
 324 141 l 1,10,11
 82 347 82 347 82 734 c 128,-1,12
 82 1121 82 1121 296 1331 c 0,13,14
 489 1520 489 1520 789 1520 c 0,15,16
 962 1520 962 1520 1104 1455 c 1,17,-1
 1203 1621 l 1,18,-1
 1307 1551 l 1,19,-1
 1213 1392 l 1,0,1
1022 1316 m 1,20,21
 919 1390 919 1390 786 1390 c 0,22,23
 593 1390 593 1390 467.5 1232.5 c 128,-1,24
 342 1075 342 1075 342 782.5 c 128,-1,25
 342 490 342 490 434 326 c 1,26,-1
 1022 1316 l 1,20,21
516 218 m 1,27,28
 631 110 631 110 799 110 c 128,-1,29
 967 110 967 110 1086 240 c 0,30,31
 1236 404 1236 404 1236 760 c 0,32,33
 1236 1059 1236 1059 1113 1225 c 1,34,-1
 516 218 l 1,27,28
EndSplineSet
EndChar

StartChar: Thorn
Encoding: 222 222 183
Width: 1279
GlyphClass: 2
Flags: W
LayerCount: 2
Fore
SplineSet
1181 760 m 0,0,1
 1181 313 1181 313 540 313 c 0,2,3
 511 313 511 313 481 314 c 1,4,-1
 446 314 l 1,5,-1
 446 259 l 2,6,7
 446 215 446 215 449.5 186 c 128,-1,8
 453 157 453 157 470 140 c 0,9,10
 500 110 500 110 626 110 c 1,11,-1
 626 0 l 1,12,-1
 53 0 l 1,13,-1
 53 110 l 1,14,15
 158 110 158 110 184 128.5 c 128,-1,16
 210 147 210 147 215 168 c 128,-1,17
 220 189 220 189 220 219 c 2,18,-1
 220 1281 l 2,19,20
 220 1346 220 1346 198 1362 c 0,21,22
 158 1390 158 1390 53 1390 c 1,23,-1
 53 1500 l 1,24,-1
 626 1500 l 1,25,-1
 626 1390 l 1,26,27
 498 1390 498 1390 475.5 1370 c 128,-1,28
 453 1350 453 1350 449.5 1322.5 c 128,-1,29
 446 1295 446 1295 446 1251 c 2,30,-1
 446 1214 l 1,31,-1
 589 1214 l 2,32,33
 1033 1214 1033 1214 1142 971 c 0,34,35
 1181 885 1181 885 1181 760 c 0,0,1
525 416 m 2,36,37
 940 416 940 416 940 740 c 0,38,39
 940 1103 940 1103 571 1103 c 2,40,-1
 446 1103 l 1,41,-1
 446 416 l 1,42,-1
 525 416 l 2,36,37
EndSplineSet
EndChar

StartChar: germandbls
Encoding: 223 223 184
Width: 1305
GlyphClass: 2
Flags: W
LayerCount: 2
Fore
SplineSet
71 110 m 1,0,1
 157 110 157 110 178 128 c 128,-1,2
 199 146 199 146 203.5 166.5 c 128,-1,3
 208 187 208 187 208 217 c 2,4,-1
 208 829 l 2,5,6
 208 869 208 869 198.5 881.5 c 128,-1,7
 189 894 189 894 159 894 c 2,8,-1
 48 894 l 1,9,-1
 48 1014 l 1,10,-1
 154 1014 l 2,11,12
 183 1014 183 1014 193.5 1025 c 128,-1,13
 204 1036 204 1036 204 1075 c 0,14,15
 204 1357 204 1357 344.5 1498.5 c 128,-1,16
 485 1640 485 1640 700 1640 c 0,17,18
 968 1640 968 1640 1052 1420 c 0,19,20
 1081 1343 1081 1343 1081 1256 c 0,21,22
 1081 1105 1081 1105 1018.5 1002 c 128,-1,23
 956 899 956 899 848 856 c 1,24,25
 1012 822 1012 822 1116.5 703 c 128,-1,26
 1221 584 1221 584 1221 395.5 c 128,-1,27
 1221 207 1221 207 1115 93.5 c 128,-1,28
 1009 -20 1009 -20 839 -20 c 0,29,30
 554 -20 554 -20 554 248 c 0,31,32
 554 276 554 276 557 304 c 1,33,-1
 643 304 l 1,34,35
 658 212 658 212 680 182 c 0,36,37
 724 124 724 124 815.5 124 c 128,-1,38
 907 124 907 124 949 210.5 c 128,-1,39
 991 297 991 297 991 411 c 0,40,41
 991 620 991 620 869 704 c 1,42,43
 765 774 765 774 558 774 c 1,44,-1
 558 888 l 1,45,46
 838 888 838 888 859 1191 c 0,47,48
 862 1235 862 1235 862 1278 c 0,49,50
 862 1379 862 1379 813 1454.5 c 128,-1,51
 764 1530 764 1530 678.5 1530 c 128,-1,52
 593 1530 593 1530 555 1502 c 0,53,54
 487 1453 487 1453 455.5 1340.5 c 128,-1,55
 424 1228 424 1228 424 1015 c 2,56,-1
 424 0 l 1,57,-1
 71 0 l 1,58,-1
 71 110 l 1,0,1
EndSplineSet
EndChar

StartChar: ae
Encoding: 230 230 191
Width: 1763
GlyphClass: 2
Flags: W
LayerCount: 2
Fore
SplineSet
817 184 m 1,0,1
 703 -20 703 -20 418 -20 c 0,2,3
 287 -20 287 -20 191.5 51.5 c 128,-1,4
 96 123 96 123 96 247.5 c 128,-1,5
 96 372 96 372 193.5 452.5 c 128,-1,6
 291 533 291 533 416 571.5 c 128,-1,7
 541 610 541 610 602.5 631.5 c 128,-1,8
 664 653 664 653 698.5 674.5 c 128,-1,9
 733 696 733 696 745.5 722.5 c 128,-1,10
 758 749 758 749 758 784 c 0,11,12
 758 848 758 848 706.5 886 c 128,-1,13
 655 924 655 924 575 924 c 0,14,15
 447 924 447 924 356 857 c 1,16,17
 403 821 403 821 403 759 c 0,18,19
 403 674 403 674 322 640 c 0,20,21
 298 630 298 630 257.5 630 c 128,-1,22
 217 630 217 630 181.5 665.5 c 128,-1,23
 146 701 146 701 146 760 c 0,24,25
 146 879 146 879 277 956.5 c 128,-1,26
 408 1034 408 1034 610 1034 c 128,-1,27
 812 1034 812 1034 902 920 c 1,28,29
 1029 1034 1029 1034 1227 1034 c 0,30,31
 1542 1034 1542 1034 1635 783 c 0,32,33
 1672 683 1672 683 1672 545 c 0,34,35
 1672 501 1672 501 1670 461 c 1,36,-1
 976 461 l 1,37,38
 976 290 976 290 1058 195.5 c 128,-1,39
 1140 101 1140 101 1242 101 c 128,-1,40
 1344 101 1344 101 1400 135.5 c 128,-1,41
 1456 170 1456 170 1489 233 c 1,42,-1
 1639 234 l 1,43,44
 1614 128 1614 128 1506.5 54 c 128,-1,45
 1399 -20 1399 -20 1217.5 -20 c 128,-1,46
 1036 -20 1036 -20 900 91 c 0,47,48
 853 130 853 130 817 184 c 1,0,1
1439 611 m 0,49,50
 1439 917 1439 917 1231 917 c 0,51,52
 1115 917 1115 917 1048.5 826 c 128,-1,53
 982 735 982 735 976 574 c 1,54,-1
 1438 574 l 1,55,56
 1439 593 1439 593 1439 611 c 0,49,50
758 582 m 1,57,58
 707 556 707 556 533 488 c 1,59,60
 336 416 336 416 336 268 c 0,61,62
 336 197 336 197 377.5 158 c 128,-1,63
 419 119 419 119 479 119 c 0,64,65
 599 119 599 119 678.5 200 c 128,-1,66
 758 281 758 281 758 428 c 2,67,-1
 758 582 l 1,57,58
EndSplineSet
EndChar

StartChar: ccedilla
Encoding: 231 231 192
Width: 1053
GlyphClass: 2
Flags: W
LayerCount: 2
Fore
SplineSet
674 -170 m 0,0,1
 674 -419 674 -419 414 -419 c 0,2,3
 356 -419 356 -419 308 -403 c 128,-1,4
 260 -387 260 -387 249 -379 c 1,5,-1
 256 -273 l 1,6,7
 306 -288 306 -288 332 -288 c 0,8,9
 412 -288 412 -288 454 -258 c 0,10,11
 543 -194 543 -194 547 -19 c 1,12,13
 358 -12 358 -12 235 105 c 0,14,15
 90 243 90 243 90 480 c 128,-1,16
 90 717 90 717 218.5 875.5 c 128,-1,17
 347 1034 347 1034 596 1034 c 0,18,19
 759 1034 759 1034 868 955 c 128,-1,20
 977 876 977 876 977 751 c 0,21,22
 977 690 977 690 937.5 648.5 c 128,-1,23
 898 607 898 607 837 607 c 0,24,25
 750 607 750 607 717 688 c 0,26,27
 707 712 707 712 707 741 c 0,28,29
 707 810 707 810 766 849 c 1,30,31
 708 919 708 919 604 919 c 0,32,33
 409 919 409 919 350 697 c 0,34,35
 330 619 330 619 330 510 c 0,36,37
 330 307 330 307 408 204 c 128,-1,38
 486 101 486 101 603 101 c 0,39,40
 689 101 689 101 749 151 c 128,-1,41
 809 201 809 201 832 294 c 1,42,-1
 969 294 l 1,43,44
 969 188 969 188 885.5 99.5 c 128,-1,45
 802 11 802 11 659 -13 c 1,46,47
 674 -97 674 -97 674 -170 c 0,0,1
EndSplineSet
EndChar

StartChar: eth
Encoding: 240 240 201
Width: 1136
GlyphClass: 2
Flags: W
LayerCount: 2
Fore
SplineSet
314 1625 m 1,0,1
 438 1604 438 1604 578 1522 c 1,2,-1
 710 1664 l 1,3,-1
 797 1582 l 1,4,-1
 679 1455 l 1,5,6
 936 1250 936 1250 1020 908 c 0,7,8
 1051 781 1051 781 1051 662 c 128,-1,9
 1051 543 1051 543 1041 462 c 128,-1,10
 1031 381 1031 381 1008 309 c 0,11,12
 959 155 959 155 849.5 67.5 c 128,-1,13
 740 -20 740 -20 561 -20 c 1,14,15
 342 -16 342 -16 214.5 121.5 c 128,-1,16
 87 259 87 259 87 502 c 128,-1,17
 87 745 87 745 213 889.5 c 128,-1,18
 339 1034 339 1034 578 1034 c 0,19,20
 718 1034 718 1034 828 941 c 1,21,22
 807 1171 807 1171 587 1357 c 1,23,-1
 437 1196 l 1,24,-1
 350 1278 l 1,25,-1
 488 1426 l 1,26,27
 370 1497 370 1497 273 1524 c 1,28,-1
 314 1625 l 1,0,1
573 103 m 0,29,30
 829 103 829 103 829 516 c 0,31,32
 829 711 829 711 760.5 815 c 128,-1,33
 692 919 692 919 571 919 c 128,-1,34
 450 919 450 919 383.5 809 c 128,-1,35
 317 699 317 699 317 516 c 0,36,37
 317 228 317 228 454 136 c 0,38,39
 503 103 503 103 573 103 c 0,29,30
EndSplineSet
EndChar

StartChar: divide
Encoding: 247 247 208
Width: 1360
GlyphClass: 2
Flags: W
LayerCount: 2
Fore
SplineSet
678 960 m 256,0,1
 606 960 606 960 555.5 1010.5 c 128,-1,2
 505 1061 505 1061 505 1133 c 256,3,4
 505 1205 505 1205 555.5 1255.5 c 128,-1,5
 606 1306 606 1306 678 1306 c 256,6,7
 750 1306 750 1306 800.5 1255.5 c 128,-1,8
 851 1205 851 1205 851 1133 c 256,9,10
 851 1061 851 1061 800.5 1010.5 c 128,-1,11
 750 960 750 960 678 960 c 256,0,1
127 761 m 1,12,-1
 1228 761 l 1,13,-1
 1228 598 l 1,14,-1
 127 598 l 1,15,-1
 127 761 l 1,12,-1
505 233 m 256,16,17
 505 305 505 305 555.5 355.5 c 128,-1,18
 606 406 606 406 678 406 c 256,19,20
 750 406 750 406 800.5 355.5 c 128,-1,21
 851 305 851 305 851 233 c 256,22,23
 851 161 851 161 800.5 110.5 c 128,-1,24
 750 60 750 60 678 60 c 256,25,26
 606 60 606 60 555.5 110.5 c 128,-1,27
 505 161 505 161 505 233 c 256,16,17
EndSplineSet
EndChar

StartChar: oslash
Encoding: 248 248 209
Width: 1175
GlyphClass: 2
Flags: W
LayerCount: 2
Fore
SplineSet
585 -20 m 0,0,1
 449 -20 449 -20 341 36 c 1,2,-1
 251 -103 l 1,3,-1
 169 -46 l 1,4,-1
 259 93 l 1,5,6
 100 233 100 233 100 496.5 c 128,-1,7
 100 760 100 760 237 897 c 128,-1,8
 374 1034 374 1034 593 1034 c 0,9,10
 727 1034 727 1034 835 982 c 1,11,-1
 919 1112 l 1,12,-1
 1001 1055 l 1,13,-1
 919 928 l 1,14,15
 1085 790 1085 790 1085 506 c 0,16,17
 1085 282 1085 282 960 131 c 128,-1,18
 835 -20 835 -20 585 -20 c 0,0,1
593 914 m 0,19,20
 332 914 332 914 332 488 c 0,21,22
 332 364 332 364 372 267 c 1,23,-1
 751 852 l 1,24,25
 689 914 689 914 593 914 c 0,19,20
430 173 m 1,26,27
 497 100 497 100 603 100 c 128,-1,28
 709 100 709 100 781.5 206 c 128,-1,29
 854 312 854 312 854 485 c 128,-1,30
 854 658 854 658 811 761 c 1,31,-1
 430 173 l 1,26,27
EndSplineSet
EndChar

StartChar: thorn
Encoding: 254 254 215
Width: 1207
GlyphClass: 2
Flags: W
LayerCount: 2
Fore
SplineSet
620 -20 m 0,0,1
 489 -20 489 -20 379 70 c 1,2,-1
 379 -265 l 2,3,4
 379 -342 379 -342 412.5 -361 c 128,-1,5
 446 -380 446 -380 582 -380 c 1,6,-1
 582 -490 l 1,7,-1
 23 -490 l 1,8,-1
 23 -380 l 1,9,10
 109 -380 109 -380 131 -362.5 c 128,-1,11
 153 -345 153 -345 158 -325 c 128,-1,12
 163 -305 163 -305 163 -275 c 2,13,-1
 163 1291 l 2,14,15
 163 1363 163 1363 150.5 1385 c 128,-1,16
 138 1407 138 1407 82 1407 c 2,17,-1
 11 1407 l 1,18,-1
 11 1517 l 1,19,20
 108 1517 108 1517 163.5 1531.5 c 128,-1,21
 219 1546 219 1546 242.5 1552.5 c 128,-1,22
 266 1559 266 1559 293 1559 c 0,23,24
 346 1559 346 1559 362.5 1528.5 c 128,-1,25
 379 1498 379 1498 379 1431 c 2,26,-1
 379 927 l 1,27,28
 505 1034 505 1034 667 1034 c 0,29,30
 875 1034 875 1034 997.5 901.5 c 128,-1,31
 1120 769 1120 769 1120 524 c 128,-1,32
 1120 279 1120 279 995 129.5 c 128,-1,33
 870 -20 870 -20 620 -20 c 0,0,1
374 495 m 128,-1,35
 374 312 374 312 445 206 c 128,-1,36
 516 100 516 100 635 100 c 0,37,38
 753 100 753 100 820 208.5 c 128,-1,39
 887 317 887 317 887 498 c 0,40,41
 887 786 887 786 753 880 c 0,42,43
 705 913 705 913 638.5 913 c 128,-1,44
 572 913 572 913 523.5 881 c 128,-1,45
 475 849 475 849 442 793 c 0,46,34
 374 678 374 678 374 495 c 128,-1,35
EndSplineSet
EndChar

StartChar: Aogonek
Encoding: 260 260 221
Width: 1601
GlyphClass: 2
Flags: W
LayerCount: 2
Fore
SplineSet
1270 -265 m 0,0,1
 1270 -356 1270 -356 1378 -356 c 0,2,3
 1417 -356 1417 -356 1448 -320 c 128,-1,4
 1479 -284 1479 -284 1479 -219 c 1,5,-1
 1569 -219 l 1,6,7
 1569 -226 1569 -226 1569 -262.5 c 128,-1,8
 1569 -299 1569 -299 1551 -351 c 0,9,10
 1496 -510 1496 -510 1319 -510 c 0,11,12
 1219 -510 1219 -510 1154.5 -453.5 c 128,-1,13
 1090 -397 1090 -397 1090 -297 c 0,14,15
 1090 -148 1090 -148 1298 0 c 1,16,-1
 949 0 l 1,17,-1
 949 110 l 1,18,19
 1081 110 1081 110 1105.5 128 c 128,-1,20
 1130 146 1130 146 1128.5 167 c 128,-1,21
 1127 188 1127 188 1115 219 c 2,22,-1
 1025 470 l 1,23,-1
 460 470 l 1,24,-1
 359 219 l 1,25,26
 336 159 336 159 373 134.5 c 128,-1,27
 410 110 410 110 546 110 c 1,28,-1
 546 0 l 1,29,-1
 -1 0 l 1,30,-1
 -1 110 l 1,31,32
 82 110 82 110 124.5 135.5 c 128,-1,33
 167 161 167 161 190 219 c 1,34,-1
 730 1500 l 1,35,-1
 901 1500 l 1,36,-1
 1395 219 l 1,37,38
 1422 155 1422 155 1455 132.5 c 128,-1,39
 1488 110 1488 110 1584 110 c 1,40,-1
 1584 0 l 1,41,-1
 1536 0 l 2,42,43
 1440 0 1440 0 1355 -83 c 128,-1,44
 1270 -166 1270 -166 1270 -265 c 0,0,1
986 580 m 1,45,-1
 762 1208 l 1,46,-1
 763 1217 l 1,47,-1
 505 580 l 1,48,-1
 986 580 l 1,45,-1
EndSplineSet
EndChar

StartChar: aogonek
Encoding: 261 261 222
Width: 1166
GlyphClass: 2
Flags: W
LayerCount: 2
Fore
SplineSet
1006 -54 m 0,0,1
 840 -150 840 -150 840 -267 c 0,2,3
 840 -356 840 -356 948 -356 c 0,4,5
 987 -356 987 -356 1018 -320 c 128,-1,6
 1049 -284 1049 -284 1049 -219 c 1,7,-1
 1139 -219 l 1,8,9
 1139 -226 1139 -226 1139 -262.5 c 128,-1,10
 1139 -299 1139 -299 1121 -351 c 0,11,12
 1066 -510 1066 -510 889 -510 c 0,13,14
 789 -510 789 -510 724.5 -453.5 c 128,-1,15
 660 -397 660 -397 660 -297 c 0,16,17
 660 -152 660 -152 884 -3 c 1,18,19
 795 35 795 35 766 140 c 1,20,21
 621 -20 621 -20 399 -20 c 0,22,23
 276 -20 276 -20 186.5 51.5 c 128,-1,24
 97 123 97 123 97 251 c 0,25,26
 97 474 97 474 424 579 c 0,27,28
 632 645 632 645 673 670.5 c 128,-1,29
 714 696 714 696 726.5 722.5 c 128,-1,30
 739 749 739 749 739 782 c 0,31,32
 739 841 739 841 681 880.5 c 128,-1,33
 623 920 623 920 529.5 920 c 128,-1,34
 436 920 436 920 365 870 c 1,35,36
 416 830 416 830 416 769 c 0,37,38
 416 684 416 684 335 650 c 0,39,40
 311 640 311 640 270.5 640 c 128,-1,41
 230 640 230 640 194.5 675.5 c 128,-1,42
 159 711 159 711 159 770 c 0,43,44
 159 888 159 888 278 961 c 128,-1,45
 397 1034 397 1034 564 1034 c 0,46,47
 864 1034 864 1034 928 838 c 0,48,49
 949 773 949 773 949 688 c 2,50,-1
 949 239 l 2,51,52
 949 120 949 120 996 120 c 0,53,54
 1041 120 1041 120 1062 150.5 c 128,-1,55
 1083 181 1083 181 1083 261 c 1,56,-1
 1188 261 l 1,57,58
 1189 247 1189 247 1189 202 c 128,-1,59
 1189 157 1189 157 1162.5 93.5 c 128,-1,60
 1136 30 1136 30 1079 -8 c 0,61,62
 1047 -30 1047 -30 1006 -54 c 0,0,1
381.5 390.5 m 128,-1,64
 337 331 337 331 337 261 c 128,-1,65
 337 191 337 191 375.5 155 c 128,-1,66
 414 119 414 119 471 119 c 0,67,68
 587 119 587 119 663 200.5 c 128,-1,69
 739 282 739 282 739 428 c 2,70,-1
 739 582 l 1,71,72
 675 549 675 549 603.5 522 c 128,-1,73
 532 495 532 495 514 488 c 0,74,63
 426 450 426 450 381.5 390.5 c 128,-1,64
EndSplineSet
EndChar

StartChar: dcaron
Encoding: 271 271 232
Width: 1487
GlyphClass: 2
Flags: W
LayerCount: 2
Fore
SplineSet
1242 977 m 1,0,1
 1326 1110 1326 1110 1326 1219 c 0,2,3
 1326 1281 1326 1281 1294 1298 c 0,4,5
 1207 1342 1207 1342 1207 1441 c 128,-1,6
 1207 1540 1207 1540 1289 1578 c 0,7,8
 1314 1589 1314 1589 1346 1589 c 0,9,10
 1410 1589 1410 1589 1451 1536.5 c 128,-1,11
 1492 1484 1492 1484 1492 1410 c 0,12,13
 1492 1288 1492 1288 1443.5 1158.5 c 128,-1,14
 1395 1029 1395 1029 1359 975 c 1,15,-1
 1242 977 l 1,0,1
866 158 m 1,16,17
 747 -20 747 -20 542 -20 c 128,-1,18
 337 -20 337 -20 216.5 115 c 128,-1,19
 96 250 96 250 96 478 c 0,20,21
 96 758 96 758 219.5 896 c 128,-1,22
 343 1034 343 1034 558 1034 c 0,23,24
 721 1034 721 1034 837 922 c 1,25,-1
 837 1291 l 2,26,27
 837 1362 837 1362 822.5 1384.5 c 128,-1,28
 808 1407 808 1407 752 1407 c 2,29,-1
 681 1407 l 1,30,-1
 681 1517 l 1,31,32
 780 1517 780 1517 836 1531.5 c 128,-1,33
 892 1546 892 1546 916 1552.5 c 128,-1,34
 940 1559 940 1559 967 1559 c 0,35,36
 1020 1559 1020 1559 1036.5 1528.5 c 128,-1,37
 1053 1498 1053 1498 1053 1431 c 2,38,-1
 1053 266 l 2,39,40
 1053 169 1053 169 1062 146 c 0,41,42
 1078 102 1078 102 1143 102 c 0,43,44
 1176 102 1176 102 1200 113 c 1,45,-1
 1200 16 l 1,46,47
 1152 -20 1152 -20 1070 -20 c 0,48,49
 906 -20 906 -20 866 158 c 1,16,17
463 134 m 0,50,51
 511 100 511 100 579 100 c 0,52,53
 711 100 711 100 776.5 210.5 c 128,-1,54
 842 321 842 321 842 516 c 0,55,56
 842 806 842 806 688 888 c 0,57,58
 640 914 640 914 581 914 c 0,59,60
 463 914 463 914 396 805.5 c 128,-1,61
 329 697 329 697 329 516 c 0,62,63
 329 227 329 227 463 134 c 0,50,51
EndSplineSet
EndChar

StartChar: dcroat
Encoding: 273 273 234
Width: 1227
GlyphClass: 2
Flags: W
LayerCount: 2
Fore
SplineSet
866 158 m 1,0,1
 747 -20 747 -20 542 -20 c 128,-1,2
 337 -20 337 -20 216.5 115 c 128,-1,3
 96 250 96 250 96 478 c 0,4,5
 96 758 96 758 219.5 896 c 128,-1,6
 343 1034 343 1034 558 1034 c 0,7,8
 721 1034 721 1034 837 922 c 1,9,-1
 837 1143 l 1,10,-1
 554 1143 l 1,11,-1
 554 1263 l 1,12,-1
 837 1263 l 1,13,-1
 837 1291 l 2,14,15
 837 1362 837 1362 822.5 1384.5 c 128,-1,16
 808 1407 808 1407 752 1407 c 2,17,-1
 681 1407 l 1,18,-1
 681 1517 l 1,19,20
 780 1517 780 1517 836 1531.5 c 128,-1,21
 892 1546 892 1546 916 1552.5 c 128,-1,22
 940 1559 940 1559 967 1559 c 0,23,24
 1020 1559 1020 1559 1036.5 1528.5 c 128,-1,25
 1053 1498 1053 1498 1053 1431 c 2,26,-1
 1053 1263 l 1,27,-1
 1200 1263 l 1,28,-1
 1200 1143 l 1,29,-1
 1053 1143 l 1,30,-1
 1053 266 l 2,31,32
 1053 169 1053 169 1062 146 c 0,33,34
 1078 102 1078 102 1143 102 c 0,35,36
 1176 102 1176 102 1200 113 c 1,37,-1
 1200 16 l 1,38,39
 1152 -20 1152 -20 1070 -20 c 0,40,41
 906 -20 906 -20 866 158 c 1,0,1
463 134 m 0,42,43
 511 100 511 100 579 100 c 0,44,45
 711 100 711 100 776.5 210.5 c 128,-1,46
 842 321 842 321 842 516 c 0,47,48
 842 806 842 806 688 888 c 0,49,50
 640 914 640 914 581 914 c 0,51,52
 463 914 463 914 396 805.5 c 128,-1,53
 329 697 329 697 329 516 c 0,54,55
 329 227 329 227 463 134 c 0,42,43
EndSplineSet
EndChar

StartChar: Eogonek
Encoding: 280 280 241
Width: 1327
GlyphClass: 2
Flags: W
LayerCount: 2
Fore
SplineSet
880 -265 m 0,0,1
 880 -356 880 -356 988 -356 c 0,2,3
 1027 -356 1027 -356 1058 -320 c 128,-1,4
 1089 -284 1089 -284 1089 -219 c 1,5,-1
 1179 -219 l 1,6,7
 1179 -226 1179 -226 1179 -262.5 c 128,-1,8
 1179 -299 1179 -299 1161 -351 c 0,9,10
 1106 -510 1106 -510 929 -510 c 0,11,12
 829 -510 829 -510 764.5 -453.5 c 128,-1,13
 700 -397 700 -397 700 -297 c 0,14,15
 700 -140 700 -140 913 0 c 1,16,-1
 81 0 l 1,17,-1
 81 110 l 1,18,19
 178 110 178 110 206 128 c 128,-1,20
 234 146 234 146 242 166.5 c 128,-1,21
 250 187 250 187 250 217 c 2,22,-1
 250 1281 l 2,23,24
 250 1343 250 1343 213 1366.5 c 128,-1,25
 176 1390 176 1390 82 1390 c 1,26,-1
 82 1500 l 1,27,-1
 1150 1500 l 1,28,-1
 1189 1137 l 1,29,-1
 1044 1136 l 1,30,-1
 1017 1249 l 2,31,32
 997 1330 997 1330 976 1351 c 0,33,34
 939 1388 939 1388 851 1388 c 2,35,-1
 490 1388 l 1,36,-1
 490 806 l 1,37,-1
 663 806 l 2,38,39
 717 806 717 806 749 808 c 128,-1,40
 781 810 781 810 801.5 826.5 c 128,-1,41
 822 843 822 843 822 945 c 1,42,-1
 972 945 l 1,43,-1
 972 558 l 1,44,-1
 822 558 l 1,45,46
 822 655 822 655 801.5 672.5 c 128,-1,47
 781 690 781 690 749 693 c 128,-1,48
 717 696 717 696 663 696 c 2,49,-1
 490 696 l 1,50,-1
 490 110 l 1,51,-1
 890 110 l 2,52,53
 1013 110 1013 110 1040 182 c 0,54,55
 1049 206 1049 206 1056 238 c 2,56,-1
 1083 361 l 1,57,-1
 1218 361 l 1,58,-1
 1179 0 l 1,59,-1
 1146 0 l 2,60,61
 1050 0 1050 0 965 -83 c 128,-1,62
 880 -166 880 -166 880 -265 c 0,0,1
EndSplineSet
EndChar

StartChar: eogonek
Encoding: 281 281 242
Width: 1127
GlyphClass: 2
Flags: W
LayerCount: 2
Fore
SplineSet
678 -88 m 0,0,1
 593 -177 593 -177 593 -266.5 c 128,-1,2
 593 -356 593 -356 702 -356 c 0,3,4
 740 -356 740 -356 771 -320 c 128,-1,5
 802 -284 802 -284 802 -219 c 1,6,-1
 892 -219 l 1,7,8
 892 -226 892 -226 892 -262.5 c 128,-1,9
 892 -299 892 -299 874 -351 c 0,10,11
 819 -510 819 -510 642 -510 c 0,12,13
 542 -510 542 -510 477.5 -453.5 c 128,-1,14
 413 -397 413 -397 413 -297 c 0,15,16
 413 -149 413 -149 607 -20 c 1,17,-1
 599 -20 l 2,18,19
 398 -20 398 -20 260 95 c 0,20,21
 100 228 100 228 100 478.5 c 128,-1,22
 100 729 100 729 227.5 881.5 c 128,-1,23
 355 1034 355 1034 594 1034 c 0,24,25
 904 1034 904 1034 1000 770 c 0,26,27
 1037 668 1037 668 1037 577 c 128,-1,28
 1037 486 1037 486 1035 446 c 1,29,-1
 339 446 l 1,30,31
 339 275 339 275 419.5 188 c 128,-1,32
 500 101 500 101 623 101 c 0,33,34
 784 101 784 101 854 234 c 1,35,-1
 1003 235 l 1,36,37
 976 114 976 114 827 21 c 1,38,39
 720 -44 720 -44 678 -88 c 0,0,1
805 559 m 1,40,41
 806 577 806 577 806 610 c 0,42,43
 806 725 806 725 768 804 c 0,44,45
 715 917 715 917 596.5 917 c 128,-1,46
 478 917 478 917 413.5 819 c 128,-1,47
 349 721 349 721 343 559 c 1,48,-1
 805 559 l 1,40,41
EndSplineSet
EndChar

StartChar: hcircumflex
Encoding: 293 293 254
Width: 1291
GlyphClass: 2
Flags: W
LayerCount: 2
Fore
SplineSet
714 884 m 0,0,1
 553 884 553 884 451 782 c 1,2,-1
 451 215 l 2,3,4
 451 151 451 151 470 136 c 0,5,6
 503 110 503 110 599 110 c 1,7,-1
 599 0 l 1,8,-1
 91 0 l 1,9,-1
 91 110 l 1,10,11
 177 110 177 110 199 127.5 c 128,-1,12
 221 145 221 145 226 165 c 128,-1,13
 231 185 231 185 231 215 c 2,14,-1
 231 1230 l 2,15,16
 231 1302 231 1302 218.5 1324 c 128,-1,17
 206 1346 206 1346 150 1346 c 2,18,-1
 89 1346 l 1,19,-1
 89 1456 l 1,20,21
 183 1456 183 1456 237.5 1470.5 c 128,-1,22
 292 1485 292 1485 315.5 1491.5 c 128,-1,23
 339 1498 339 1498 366 1498 c 0,24,25
 418 1498 418 1498 434.5 1467.5 c 128,-1,26
 451 1437 451 1437 451 1370 c 2,27,-1
 451 900 l 1,28,29
 554 990 554 990 697 1023 c 0,30,31
 744 1034 744 1034 789 1034 c 0,32,33
 1113 1034 1113 1034 1113 604 c 2,34,-1
 1113 217 l 2,35,36
 1113 151 1113 151 1132 130.5 c 128,-1,37
 1151 110 1151 110 1236 110 c 1,38,-1
 1236 0 l 1,39,-1
 763 0 l 1,40,-1
 763 110 l 1,41,42
 854 110 854 110 871 128.5 c 128,-1,43
 888 147 888 147 890.5 167 c 128,-1,44
 893 187 893 187 893 217 c 2,45,-1
 893 591 l 2,46,47
 893 731 893 731 868 782 c 0,48,49
 820 884 820 884 714 884 c 0,0,1
97 1596 m 1,50,51
 61 1563 61 1563 38 1563 c 0,52,53
 -14 1563 -14 1563 -14 1599 c 0,54,55
 -14 1611 -14 1611 -5 1625 c 1,56,-1
 268 1996 l 1,57,-1
 380 1996 l 1,58,-1
 653 1625 l 1,59,60
 662 1611 662 1611 662 1603 c 0,61,62
 662 1563 662 1563 621 1563 c 0,63,64
 587 1563 587 1563 551 1596 c 1,65,-1
 324 1771 l 1,66,-1
 97 1596 l 1,50,51
EndSplineSet
EndChar

StartChar: Hbar
Encoding: 294 294 255
Width: 1709
GlyphClass: 2
Flags: W
LayerCount: 2
Fore
SplineSet
93 110 m 1,0,1
 188 110 188 110 217 128.5 c 128,-1,2
 246 147 246 147 254 168 c 128,-1,3
 262 189 262 189 262 219 c 2,4,-1
 261 1043 l 1,5,-1
 81 1043 l 1,6,-1
 81 1173 l 1,7,-1
 261 1173 l 1,8,-1
 261 1281 l 2,9,10
 261 1346 261 1346 238 1362 c 0,11,12
 199 1390 199 1390 93 1390 c 1,13,-1
 93 1500 l 1,14,-1
 655 1500 l 1,15,-1
 655 1390 l 1,16,17
 560 1390 560 1390 531 1371.5 c 128,-1,18
 502 1353 502 1353 494 1332 c 128,-1,19
 486 1311 486 1311 486 1281 c 2,20,-1
 486 1173 l 1,21,-1
 1231 1173 l 1,22,-1
 1231 1281 l 2,23,24
 1231 1346 1231 1346 1208 1362 c 0,25,26
 1169 1390 1169 1390 1063 1390 c 1,27,-1
 1063 1500 l 1,28,-1
 1625 1500 l 1,29,-1
 1625 1390 l 1,30,31
 1530 1390 1530 1390 1501 1371.5 c 128,-1,32
 1472 1353 1472 1353 1464 1332 c 128,-1,33
 1456 1311 1456 1311 1456 1281 c 2,34,-1
 1456 1173 l 1,35,-1
 1627 1173 l 1,36,-1
 1627 1043 l 1,37,-1
 1456 1043 l 1,38,-1
 1457 219 l 2,39,40
 1457 154 1457 154 1480 138 c 0,41,42
 1519 110 1519 110 1625 110 c 1,43,-1
 1625 0 l 1,44,-1
 1063 0 l 1,45,-1
 1063 110 l 1,46,47
 1158 110 1158 110 1187 128.5 c 128,-1,48
 1216 147 1216 147 1224 168 c 128,-1,49
 1232 189 1232 189 1232 219 c 2,50,-1
 1231 704 l 1,51,-1
 486 704 l 1,52,-1
 487 219 l 2,53,54
 487 154 487 154 510 138 c 0,55,56
 549 110 549 110 655 110 c 1,57,-1
 655 0 l 1,58,-1
 93 0 l 1,59,-1
 93 110 l 1,0,1
1231 834 m 1,60,-1
 1231 1043 l 1,61,-1
 486 1043 l 1,62,-1
 486 834 l 1,63,-1
 1231 834 l 1,60,-1
EndSplineSet
EndChar

StartChar: hbar
Encoding: 295 295 256
Width: 1291
GlyphClass: 2
Flags: W
LayerCount: 2
Fore
SplineSet
714 884 m 0,0,1
 550 884 550 884 448 782 c 1,2,-1
 448 215 l 2,3,4
 448 153 448 153 468 137 c 0,5,6
 503 110 503 110 600 110 c 1,7,-1
 600 0 l 1,8,-1
 92 0 l 1,9,-1
 92 110 l 1,10,11
 178 110 178 110 200 127.5 c 128,-1,12
 222 145 222 145 227 165 c 128,-1,13
 232 185 232 185 232 215 c 2,14,-1
 232 1143 l 1,15,-1
 89 1143 l 1,16,-1
 89 1263 l 1,17,-1
 232 1263 l 1,18,-1
 232 1300 l 2,19,20
 232 1372 232 1372 219.5 1394 c 128,-1,21
 207 1416 207 1416 151 1416 c 2,22,-1
 90 1416 l 1,23,-1
 90 1526 l 1,24,25
 184 1526 184 1526 237.5 1540.5 c 128,-1,26
 291 1555 291 1555 313.5 1561.5 c 128,-1,27
 336 1568 336 1568 362 1568 c 0,28,29
 415 1568 415 1568 431.5 1537.5 c 128,-1,30
 448 1507 448 1507 448 1440 c 2,31,-1
 448 1263 l 1,32,-1
 735 1263 l 1,33,-1
 735 1143 l 1,34,-1
 448 1143 l 1,35,-1
 448 900 l 1,36,37
 551 990 551 990 696 1023 c 0,38,39
 743 1034 743 1034 788 1034 c 0,40,41
 1112 1034 1112 1034 1112 604 c 2,42,-1
 1112 217 l 2,43,44
 1112 151 1112 151 1131 130.5 c 128,-1,45
 1150 110 1150 110 1235 110 c 1,46,-1
 1235 0 l 1,47,-1
 762 0 l 1,48,-1
 762 110 l 1,49,50
 853 110 853 110 871.5 128.5 c 128,-1,51
 890 147 890 147 893 167 c 128,-1,52
 896 187 896 187 896 217 c 2,53,-1
 896 591 l 2,54,55
 896 730 896 730 870 782 c 0,56,57
 819 884 819 884 714 884 c 0,0,1
EndSplineSet
EndChar

StartChar: Iogonek
Encoding: 302 302 263
Width: 760
GlyphClass: 2
Flags: W
LayerCount: 2
Fore
SplineSet
310 -265 m 0,0,1
 310 -356 310 -356 418 -356 c 0,2,3
 457 -356 457 -356 488 -320 c 128,-1,4
 519 -284 519 -284 519 -219 c 1,5,-1
 609 -219 l 1,6,7
 609 -226 609 -226 609 -262.5 c 128,-1,8
 609 -299 609 -299 591 -351 c 0,9,10
 536 -510 536 -510 359 -510 c 0,11,12
 259 -510 259 -510 194.5 -453.5 c 128,-1,13
 130 -397 130 -397 130 -297 c 0,14,15
 130 -148 130 -148 338 0 c 1,16,-1
 96 0 l 1,17,-1
 96 110 l 1,18,19
 191 110 191 110 220 128.5 c 128,-1,20
 249 147 249 147 257 168 c 128,-1,21
 265 189 265 189 265 219 c 2,22,-1
 264 1281 l 2,23,24
 264 1346 264 1346 242 1362 c 0,25,26
 202 1390 202 1390 96 1390 c 1,27,-1
 96 1500 l 1,28,-1
 663 1500 l 1,29,-1
 663 1390 l 1,30,31
 568 1390 568 1390 539 1371.5 c 128,-1,32
 510 1353 510 1353 502 1332 c 128,-1,33
 494 1311 494 1311 494 1281 c 2,34,-1
 495 219 l 2,35,36
 495 154 495 154 518 138 c 0,37,38
 557 110 557 110 663 110 c 1,39,-1
 663 0 l 1,40,-1
 576 0 l 2,41,42
 480 0 480 0 395 -83 c 128,-1,43
 310 -166 310 -166 310 -265 c 0,0,1
EndSplineSet
EndChar

StartChar: iogonek
Encoding: 303 303 264
Width: 727
GlyphClass: 2
Flags: W
LayerCount: 2
Fore
SplineSet
374 1214 m 0,0,1
 265 1214 265 1214 223 1308 c 0,2,3
 210 1337 210 1337 210 1374 c 0,4,5
 210 1444 210 1444 257.5 1484.5 c 128,-1,6
 305 1525 305 1525 374 1525 c 256,7,8
 443 1525 443 1525 477 1496 c 0,9,10
 538 1444 538 1444 538 1373.5 c 128,-1,11
 538 1303 538 1303 490 1258.5 c 128,-1,12
 442 1214 442 1214 374 1214 c 0,0,1
322 -265 m 0,13,14
 322 -356 322 -356 430 -356 c 0,15,16
 469 -356 469 -356 500 -320 c 128,-1,17
 531 -284 531 -284 531 -219 c 1,18,-1
 621 -219 l 1,19,20
 621 -226 621 -226 621 -262.5 c 128,-1,21
 621 -299 621 -299 603 -351 c 0,22,23
 548 -510 548 -510 371 -510 c 0,24,25
 271 -510 271 -510 206.5 -453.5 c 128,-1,26
 142 -397 142 -397 142 -297 c 0,27,28
 142 -140 142 -140 355 0 c 1,29,-1
 135 0 l 1,30,-1
 135 110 l 1,31,32
 228 110 228 110 251.5 127.5 c 128,-1,33
 275 145 275 145 280 165 c 128,-1,34
 285 185 285 185 285 215 c 2,35,-1
 285 766 l 2,36,37
 285 838 285 838 272.5 860 c 128,-1,38
 260 882 260 882 205 882 c 2,39,-1
 133 882 l 1,40,-1
 133 992 l 1,41,42
 231 992 231 992 288 1006.5 c 128,-1,43
 345 1021 345 1021 368.5 1027.5 c 128,-1,44
 392 1034 392 1034 419 1034 c 0,45,46
 472 1034 472 1034 488.5 1003.5 c 128,-1,47
 505 973 505 973 505 906 c 2,48,-1
 505 215 l 2,49,50
 505 152 505 152 531.5 131 c 128,-1,51
 558 110 558 110 653 110 c 1,52,-1
 653 0 l 1,53,-1
 593 0 l 2,54,55
 503 0 503 0 412.5 -83.5 c 128,-1,56
 322 -167 322 -167 322 -265 c 0,13,14
EndSplineSet
EndChar

StartChar: dotlessi
Encoding: 305 305 266
Width: 670
GlyphClass: 2
Flags: W
LayerCount: 2
Fore
SplineSet
82 110 m 1,0,1
 175 110 175 110 198.5 127.5 c 128,-1,2
 222 145 222 145 227 165 c 128,-1,3
 232 185 232 185 232 215 c 2,4,-1
 232 766 l 2,5,6
 232 838 232 838 219.5 860 c 128,-1,7
 207 882 207 882 152 882 c 2,8,-1
 80 882 l 1,9,-1
 80 992 l 1,10,11
 178 992 178 992 234 1006.5 c 128,-1,12
 290 1021 290 1021 313 1027.5 c 128,-1,13
 336 1034 336 1034 363 1034 c 0,14,15
 415 1034 415 1034 431.5 1003.5 c 128,-1,16
 448 973 448 973 448 906 c 2,17,-1
 448 215 l 2,18,19
 448 152 448 152 468 136 c 0,20,21
 502 110 502 110 597 110 c 1,22,-1
 597 0 l 1,23,-1
 82 0 l 1,24,-1
 82 110 l 1,0,1
EndSplineSet
EndChar

StartChar: kgreenlandic
Encoding: 312 312 273
Width: 1249
GlyphClass: 2
Flags: W
LayerCount: 2
Fore
SplineSet
1065 131 m 0,0,1
 1134 131 1134 131 1134 278 c 1,2,-1
 1231 278 l 1,3,4
 1238 246 1238 246 1238 221.5 c 128,-1,5
 1238 197 1238 197 1237 167 c 128,-1,6
 1236 137 1236 137 1214 90 c 0,7,8
 1160 -20 1160 -20 1014 -20 c 128,-1,9
 868 -20 868 -20 780 132 c 0,10,11
 755 175 755 175 732 220 c 0,12,13
 670 339 670 339 626 386 c 0,14,15
 555 461 555 461 450 461 c 2,16,-1
 433 461 l 2,17,18
 424 461 424 461 415 460 c 1,19,-1
 415 217 l 2,20,21
 415 154 415 154 442.5 132 c 128,-1,22
 470 110 470 110 566 110 c 1,23,-1
 566 0 l 1,24,-1
 49 0 l 1,25,-1
 49 110 l 1,26,27
 136 110 136 110 168.5 134 c 128,-1,28
 201 158 201 158 201 217 c 2,29,-1
 200 797 l 2,30,31
 200 859 200 859 173 881.5 c 128,-1,32
 146 904 146 904 49 904 c 1,33,-1
 49 1014 l 1,34,-1
 536 1014 l 1,35,-1
 536 904 l 1,36,37
 467 904 467 904 441 880 c 128,-1,38
 415 856 415 856 415 797 c 2,39,-1
 415 569 l 1,40,-1
 516 569 l 1,41,42
 631 661 631 661 780 855 c 0,43,44
 799 879 799 879 809 894 c 1,45,-1
 703 894 l 1,46,-1
 703 1014 l 1,47,-1
 1168 1014 l 1,48,-1
 1168 894 l 1,49,50
 997 889 997 889 802 680 c 0,51,52
 746 620 746 620 687 559 c 1,53,54
 838 494 838 494 936 304 c 0,55,56
 998 183 998 183 1019.5 157 c 128,-1,57
 1041 131 1041 131 1065 131 c 0,0,1
EndSplineSet
EndChar

StartChar: lacute
Encoding: 314 314 275
Width: 686
GlyphClass: 2
Flags: W
LayerCount: 2
Fore
SplineSet
117 110 m 1,0,1
 204 110 204 110 236.5 134 c 128,-1,2
 269 158 269 158 269 217 c 2,3,-1
 269 1210 l 2,4,5
 269 1282 269 1282 256.5 1304 c 128,-1,6
 244 1326 244 1326 188 1326 c 2,7,-1
 107 1326 l 1,8,-1
 107 1436 l 1,9,10
 209 1436 209 1436 267 1450.5 c 128,-1,11
 325 1465 325 1465 350 1471.5 c 128,-1,12
 375 1478 375 1478 402 1478 c 0,13,14
 454 1478 454 1478 471.5 1448 c 128,-1,15
 489 1418 489 1418 489 1350 c 2,16,-1
 489 217 l 2,17,18
 489 155 489 155 515.5 132.5 c 128,-1,19
 542 110 542 110 639 110 c 1,20,-1
 639 0 l 1,21,-1
 117 0 l 1,22,-1
 117 110 l 1,0,1
451 1641 m 2,23,24
 395 1600 395 1600 363 1600 c 0,25,26
 303 1600 303 1600 303 1652 c 0,27,28
 303 1675 303 1675 321 1698 c 1,29,-1
 444 1867 l 2,30,31
 497 1941 497 1941 526 1968.5 c 128,-1,32
 555 1996 555 1996 618.5 1996 c 128,-1,33
 682 1996 682 1996 703 1936 c 0,34,35
 709 1918 709 1918 709 1895 c 0,36,37
 709 1833 709 1833 651 1790 c 2,38,-1
 451 1641 l 2,23,24
EndSplineSet
EndChar

StartChar: Lcaron
Encoding: 317 317 278
Width: 1275
GlyphClass: 2
Flags: W
LayerCount: 2
Fore
SplineSet
882 887 m 1,0,1
 966 1020 966 1020 966 1129 c 0,2,3
 966 1191 966 1191 934 1208 c 0,4,5
 847 1252 847 1252 847 1351 c 128,-1,6
 847 1450 847 1450 929 1488 c 0,7,8
 954 1499 954 1499 986 1499 c 0,9,10
 1050 1499 1050 1499 1091 1446.5 c 128,-1,11
 1132 1394 1132 1394 1132 1320 c 0,12,13
 1132 1198 1132 1198 1083.5 1068.5 c 128,-1,14
 1035 939 1035 939 999 885 c 1,15,-1
 882 887 l 1,0,1
81 110 m 1,16,17
 176 110 176 110 205 128.5 c 128,-1,18
 234 147 234 147 242 168 c 128,-1,19
 250 189 250 189 250 219 c 2,20,-1
 249 1281 l 2,21,22
 249 1346 249 1346 226 1362 c 0,23,24
 187 1390 187 1390 81 1390 c 1,25,-1
 81 1500 l 1,26,-1
 644 1500 l 1,27,-1
 644 1390 l 1,28,29
 549 1390 549 1390 520 1371.5 c 128,-1,30
 491 1353 491 1353 483 1332 c 128,-1,31
 475 1311 475 1311 475 1281 c 2,32,-1
 475 116 l 1,33,-1
 820 116 l 2,34,35
 980 116 980 116 1040 291 c 1,36,-1
 1080 404 l 1,37,-1
 1218 403 l 1,38,-1
 1149 0 l 1,39,-1
 81 0 l 1,40,-1
 81 110 l 1,16,17
EndSplineSet
EndChar

StartChar: lcaron
Encoding: 318 318 279
Width: 932
GlyphClass: 2
Flags: W
LayerCount: 2
Fore
SplineSet
682 977 m 1,0,1
 766 1110 766 1110 766 1219 c 0,2,3
 766 1281 766 1281 734 1298 c 0,4,5
 647 1342 647 1342 647 1441 c 128,-1,6
 647 1540 647 1540 729 1578 c 0,7,8
 754 1589 754 1589 786 1589 c 0,9,10
 850 1589 850 1589 891 1536.5 c 128,-1,11
 932 1484 932 1484 932 1410 c 0,12,13
 932 1288 932 1288 883.5 1158.5 c 128,-1,14
 835 1029 835 1029 799 975 c 1,15,-1
 682 977 l 1,0,1
119 110 m 1,16,17
 206 110 206 110 238.5 134 c 128,-1,18
 271 158 271 158 271 217 c 2,19,-1
 271 1300 l 2,20,21
 271 1372 271 1372 258.5 1394 c 128,-1,22
 246 1416 246 1416 190 1416 c 2,23,-1
 109 1416 l 1,24,-1
 109 1526 l 1,25,26
 210 1526 210 1526 267 1540.5 c 128,-1,27
 324 1555 324 1555 348.5 1561.5 c 128,-1,28
 373 1568 373 1568 400 1568 c 0,29,30
 452 1568 452 1568 469.5 1538 c 128,-1,31
 487 1508 487 1508 487 1440 c 2,32,-1
 487 217 l 2,33,34
 487 155 487 155 513.5 132.5 c 128,-1,35
 540 110 540 110 637 110 c 1,36,-1
 637 0 l 1,37,-1
 119 0 l 1,38,-1
 119 110 l 1,16,17
EndSplineSet
EndChar

StartChar: Lslash
Encoding: 321 321 282
Width: 1275
GlyphClass: 2
Flags: W
LayerCount: 2
Fore
SplineSet
81 110 m 1,0,1
 176 110 176 110 205 128.5 c 128,-1,2
 234 147 234 147 242 168 c 128,-1,3
 250 189 250 189 250 219 c 2,4,-1
 249 413 l 1,5,-1
 141 304 l 1,6,-1
 49 375 l 1,7,-1
 249 576 l 1,8,-1
 249 1281 l 2,9,10
 249 1346 249 1346 226 1362 c 0,11,12
 187 1390 187 1390 81 1390 c 1,13,-1
 81 1500 l 1,14,-1
 644 1500 l 1,15,-1
 644 1390 l 1,16,17
 549 1390 549 1390 520 1371.5 c 128,-1,18
 491 1353 491 1353 483 1332 c 128,-1,19
 475 1311 475 1311 475 1281 c 2,20,-1
 475 802 l 1,21,-1
 807 1135 l 1,22,-1
 899 1064 l 1,23,-1
 475 639 l 1,24,-1
 475 116 l 1,25,-1
 820 116 l 2,26,27
 980 116 980 116 1040 291 c 1,28,-1
 1080 404 l 1,29,-1
 1218 403 l 1,30,-1
 1149 0 l 1,31,-1
 81 0 l 1,32,-1
 81 110 l 1,0,1
EndSplineSet
EndChar

StartChar: lslash
Encoding: 322 322 283
Width: 686
GlyphClass: 2
Flags: W
LayerCount: 2
Fore
SplineSet
119 110 m 1,0,1
 206 110 206 110 238.5 134 c 128,-1,2
 271 158 271 158 271 217 c 2,3,-1
 271 487 l 1,4,-1
 97 276 l 1,5,-1
 10 342 l 1,6,-1
 271 659 l 1,7,-1
 271 1300 l 2,8,9
 271 1372 271 1372 258.5 1394 c 128,-1,10
 246 1416 246 1416 190 1416 c 2,11,-1
 109 1416 l 1,12,-1
 109 1526 l 1,13,14
 210 1526 210 1526 267 1540.5 c 128,-1,15
 324 1555 324 1555 348.5 1561.5 c 128,-1,16
 373 1568 373 1568 400 1568 c 0,17,18
 452 1568 452 1568 469.5 1538 c 128,-1,19
 487 1508 487 1508 487 1440 c 2,20,-1
 487 922 l 1,21,-1
 662 1135 l 1,22,-1
 749 1069 l 1,23,-1
 487 750 l 1,24,-1
 487 217 l 2,25,26
 487 155 487 155 513.5 132.5 c 128,-1,27
 540 110 540 110 637 110 c 1,28,-1
 637 0 l 1,29,-1
 119 0 l 1,30,-1
 119 110 l 1,0,1
EndSplineSet
EndChar

StartChar: Eng
Encoding: 330 330 290
Width: 1720
GlyphClass: 2
Flags: W
LayerCount: 2
Fore
SplineSet
1007 -369 m 1,0,1
 1042 -396 1042 -396 1091 -396 c 0,2,3
 1188 -396 1188 -396 1244 -323.5 c 128,-1,4
 1300 -251 1300 -251 1300 -154 c 0,5,6
 1300 36 1300 36 1175 207 c 1,7,-1
 431 1151 l 1,8,-1
 431 223 l 2,9,10
 431 158 431 158 454 141 c 0,11,12
 495 112 495 112 605 112 c 1,13,-1
 605 0 l 1,14,-1
 98 0 l 1,15,-1
 98 112 l 1,16,17
 196 112 196 112 225 131 c 128,-1,18
 254 150 254 150 262.5 171.5 c 128,-1,19
 271 193 271 193 271 223 c 2,20,-1
 271 1277 l 2,21,22
 271 1342 271 1342 248 1359 c 0,23,24
 207 1388 207 1388 98 1388 c 1,25,-1
 98 1500 l 1,26,-1
 443 1500 l 1,27,-1
 1301 411 l 1,28,-1
 1301 1277 l 2,29,30
 1301 1343 1301 1343 1278 1359 c 0,31,32
 1238 1388 1238 1388 1130 1388 c 1,33,-1
 1130 1500 l 1,34,-1
 1634 1500 l 1,35,-1
 1634 1388 l 1,36,37
 1536 1388 1536 1388 1507 1369 c 128,-1,38
 1478 1350 1478 1350 1469.5 1328.5 c 128,-1,39
 1461 1307 1461 1307 1461 1277 c 2,40,-1
 1461 0 l 2,41,42
 1461 -374 1461 -374 1230 -477 c 0,43,44
 1155 -510 1155 -510 1076 -510 c 0,45,46
 933 -510 933 -510 840.5 -437.5 c 128,-1,47
 748 -365 748 -365 748 -255 c 0,48,49
 748 -175 748 -175 798 -119.5 c 128,-1,50
 848 -64 848 -64 920 -64 c 128,-1,51
 992 -64 992 -64 1037 -112.5 c 128,-1,52
 1082 -161 1082 -161 1082 -239.5 c 128,-1,53
 1082 -318 1082 -318 1007 -369 c 1,0,1
EndSplineSet
EndChar

StartChar: eng
Encoding: 331 331 291
Width: 1283
GlyphClass: 2
Flags: W
LayerCount: 2
Fore
SplineSet
799 -299 m 0,0,1
 799 -349 799 -349 762 -386 c 1,2,3
 788 -391 788 -391 800 -390 c 0,4,5
 930 -381 930 -381 930 -218 c 0,6,7
 930 -127 930 -127 907 62 c 128,-1,8
 884 251 884 251 884 344 c 2,9,-1
 884 591 l 2,10,11
 884 732 884 732 858.5 783 c 128,-1,12
 833 834 833 834 792.5 859 c 128,-1,13
 752 884 752 884 704 884 c 0,14,15
 625 884 625 884 554 856.5 c 128,-1,16
 483 829 483 829 436 782 c 1,17,-1
 436 215 l 2,18,19
 436 151 436 151 455 136 c 0,20,21
 488 110 488 110 584 110 c 1,22,-1
 584 0 l 1,23,-1
 80 0 l 1,24,-1
 80 110 l 1,25,26
 166 110 166 110 188 127.5 c 128,-1,27
 210 145 210 145 215 165 c 128,-1,28
 220 185 220 185 220 215 c 2,29,-1
 220 760 l 2,30,31
 220 832 220 832 207.5 854 c 128,-1,32
 195 876 195 876 139 876 c 2,33,-1
 78 876 l 1,34,-1
 78 986 l 1,35,36
 172 986 172 986 225.5 1000.5 c 128,-1,37
 279 1015 279 1015 301.5 1021.5 c 128,-1,38
 324 1028 324 1028 350 1028 c 0,39,40
 403 1028 403 1028 419.5 997.5 c 128,-1,41
 436 967 436 967 436 900 c 1,42,43
 543 990 543 990 685 1022 c 0,44,45
 733 1033 733 1033 778 1033 c 0,46,47
 1100 1033 1100 1033 1100 604 c 2,48,-1
 1101 10 l 2,49,50
 1101 -510 1101 -510 776 -510 c 0,51,52
 608 -510 608 -510 549 -400 c 0,53,54
 530 -364 530 -364 530 -326 c 0,55,56
 530 -258 530 -258 568.5 -216 c 128,-1,57
 607 -174 607 -174 670 -174 c 0,58,59
 756 -174 756 -174 789 -250 c 0,60,61
 799 -273 799 -273 799 -299 c 0,0,1
EndSplineSet
EndChar

StartChar: OE
Encoding: 338 338 298
Width: 2140
GlyphClass: 2
Flags: W
LayerCount: 2
Fore
SplineSet
132.5 422 m 128,-1,1
 78 565 78 565 78 723.5 c 128,-1,2
 78 882 78 882 105 991.5 c 128,-1,3
 132 1101 132 1101 180 1187 c 0,4,5
 273 1352 273 1352 436.5 1436 c 128,-1,6
 600 1520 600 1520 793 1520 c 0,7,8
 885 1520 885 1520 977 1500 c 1,9,-1
 1974 1500 l 1,10,-1
 2013 1137 l 1,11,-1
 1868 1136 l 1,12,-1
 1841 1249 l 2,13,14
 1821 1330 1821 1330 1800 1351 c 0,15,16
 1763 1388 1763 1388 1675 1388 c 2,17,-1
 1297 1388 l 1,18,-1
 1297 806 l 1,19,-1
 1487 806 l 2,20,21
 1541 806 1541 806 1573 808 c 128,-1,22
 1605 810 1605 810 1625.5 826.5 c 128,-1,23
 1646 843 1646 843 1646 945 c 1,24,-1
 1796 945 l 1,25,-1
 1796 558 l 1,26,-1
 1646 558 l 1,27,28
 1646 655 1646 655 1625.5 672.5 c 128,-1,29
 1605 690 1605 690 1573 693 c 128,-1,30
 1541 696 1541 696 1487 696 c 2,31,-1
 1297 696 l 1,32,-1
 1297 110 l 1,33,-1
 1714 110 l 2,34,35
 1837 110 1837 110 1864 182 c 0,36,37
 1873 206 1873 206 1880 238 c 2,38,-1
 1907 361 l 1,39,-1
 2042 361 l 1,40,-1
 2003 0 l 1,41,-1
 976 0 l 1,42,43
 887 -20 887 -20 763.5 -20 c 128,-1,44
 640 -20 640 -20 509.5 31 c 128,-1,45
 379 82 379 82 283 180.5 c 128,-1,0
 187 279 187 279 132.5 422 c 128,-1,1
957 138.5 m 128,-1,47
 1019 167 1019 167 1074 220 c 1,48,-1
 1074 1289 l 1,49,50
 987 1390 987 1390 789 1390 c 128,-1,51
 591 1390 591 1390 459.5 1231.5 c 128,-1,52
 328 1073 328 1073 328 760 c 0,53,54
 328 307 328 307 584 163 c 0,55,56
 678 110 678 110 786.5 110 c 128,-1,46
 895 110 895 110 957 138.5 c 128,-1,47
EndSplineSet
EndChar

StartChar: oe
Encoding: 339 339 299
Width: 1868
GlyphClass: 2
Flags: W
LayerCount: 2
Fore
SplineSet
956 139 m 1,0,1
 825 -20 825 -20 583 -20 c 256,2,3
 341 -20 341 -20 215.5 126.5 c 128,-1,4
 90 273 90 273 90 516.5 c 128,-1,5
 90 760 90 760 227 897 c 128,-1,6
 364 1034 364 1034 598 1034 c 128,-1,7
 832 1034 832 1034 963 874 c 1,8,9
 1095 1034 1095 1034 1335 1034 c 128,-1,10
 1575 1034 1575 1034 1686 882 c 1,11,12
 1777 760 1777 760 1777 544 c 0,13,14
 1777 500 1777 500 1775 460 c 1,15,-1
 1081 460 l 1,16,17
 1081 289 1081 289 1162.5 195 c 128,-1,18
 1244 101 1244 101 1346.5 101 c 128,-1,19
 1449 101 1449 101 1505 135.5 c 128,-1,20
 1561 170 1561 170 1594 233 c 1,21,-1
 1744 234 l 1,22,23
 1719 128 1719 128 1611.5 54 c 128,-1,24
 1504 -20 1504 -20 1337 -20 c 0,25,26
 1096 -20 1096 -20 956 139 c 1,0,1
1543 573 m 1,27,28
 1544 592 1544 592 1544 624 c 0,29,30
 1544 737 1544 737 1508 811 c 0,31,32
 1456 917 1456 917 1337.5 917 c 128,-1,33
 1219 917 1219 917 1153 825.5 c 128,-1,34
 1087 734 1087 734 1081 573 c 1,35,-1
 1543 573 l 1,27,28
583 100 m 256,36,37
 699 100 699 100 771.5 206 c 128,-1,38
 844 312 844 312 844 504 c 0,39,40
 844 813 844 813 688 890 c 0,41,42
 640 914 640 914 583 914 c 0,43,44
 398 914 398 914 342 690 c 0,45,46
 322 613 322 613 322 510 c 0,47,48
 322 312 322 312 394.5 206 c 128,-1,49
 467 100 467 100 583 100 c 256,36,37
EndSplineSet
EndChar

StartChar: Scedilla
Encoding: 350 350 310
Width: 1282
GlyphClass: 2
Flags: W
LayerCount: 2
Fore
SplineSet
654 -19 m 1,0,-1
 636 -20 l 1,1,2
 416 -20 416 -20 282.5 67.5 c 128,-1,3
 149 155 149 155 149 268.5 c 128,-1,4
 149 382 149 382 240 422 c 0,5,6
 268 435 268 435 300 435 c 0,7,8
 364 435 364 435 404.5 393 c 128,-1,9
 445 351 445 351 445 287 c 128,-1,10
 445 223 445 223 387 178 c 1,11,12
 465 100 465 100 645.5 100 c 128,-1,13
 826 100 826 100 894 222 c 0,14,15
 917 264 917 264 917 320 c 0,16,17
 917 417 917 417 818 500 c 1,18,19
 765 543 765 543 641.5 611.5 c 128,-1,20
 518 680 518 680 446 726 c 0,21,22
 186 894 186 894 186 1122 c 0,23,24
 186 1300 186 1300 320.5 1410 c 128,-1,25
 455 1520 455 1520 653.5 1520 c 128,-1,26
 852 1520 852 1520 979.5 1435 c 128,-1,27
 1107 1350 1107 1350 1107 1228 c 0,28,29
 1107 1162 1107 1162 1066.5 1117.5 c 128,-1,30
 1026 1073 1026 1073 964 1073 c 0,31,32
 869 1073 869 1073 832 1156 c 0,33,34
 821 1181 821 1181 821 1209 c 0,35,36
 821 1286 821 1286 885 1330 c 1,37,38
 832 1400 832 1400 662 1400 c 128,-1,39
 492 1400 492 1400 428 1286 c 0,40,41
 405 1247 405 1247 405 1190 c 0,42,43
 405 1085 405 1085 500 998 c 1,44,45
 561 940 561 940 670.5 879 c 128,-1,46
 780 818 780 818 856 770 c 0,47,48
 1138 590 1138 590 1138 376 c 0,49,50
 1138 134 1138 134 916 34 c 0,51,52
 848 3 848 3 765 -10 c 1,53,54
 780 -98 780 -98 780 -173 c 128,-1,55
 780 -248 780 -248 754 -302 c 0,56,57
 698 -419 698 -419 521 -419 c 0,58,59
 463 -419 463 -419 415 -403 c 128,-1,60
 367 -387 367 -387 356 -379 c 1,61,-1
 363 -273 l 1,62,63
 413 -288 413 -288 439 -288 c 0,64,65
 519 -288 519 -288 561 -258 c 0,66,67
 650 -194 650 -194 654 -19 c 1,0,-1
EndSplineSet
EndChar

StartChar: scedilla
Encoding: 351 351 311
Width: 974
GlyphClass: 2
Flags: W
LayerCount: 2
Fore
SplineSet
605 -170 m 0,0,1
 605 -419 605 -419 345 -419 c 0,2,3
 287 -419 287 -419 239 -403 c 128,-1,4
 191 -387 191 -387 180 -379 c 1,5,-1
 187 -273 l 1,6,7
 237 -288 237 -288 263 -288 c 0,8,9
 343 -288 343 -288 385 -258 c 0,10,11
 474 -194 474 -194 478 -20 c 1,12,13
 309 -18 309 -18 197 46 c 128,-1,14
 85 110 85 110 85 209 c 0,15,16
 85 264 85 264 121.5 302 c 128,-1,17
 158 340 158 340 214.5 340 c 128,-1,18
 271 340 271 340 308 304.5 c 128,-1,19
 345 269 345 269 345 220 c 128,-1,20
 345 171 345 171 311 137 c 1,21,22
 391 91 391 91 509.5 91 c 128,-1,23
 628 91 628 91 676 146 c 0,24,25
 696 168 696 168 696 203 c 0,26,27
 696 286 696 286 512 376 c 0,28,29
 384 439 384 439 320 475 c 0,30,31
 115 591 115 591 115 755 c 0,32,33
 115 881 115 881 219.5 957 c 128,-1,34
 324 1033 324 1033 486 1033 c 128,-1,35
 648 1033 648 1033 758.5 972.5 c 128,-1,36
 869 912 869 912 869 816 c 0,37,38
 869 760 869 760 842 733 c 0,39,40
 795 686 795 686 752 686 c 0,41,42
 682 686 682 686 646.5 721.5 c 128,-1,43
 611 757 611 757 611 803 c 128,-1,44
 611 849 611 849 638 881 c 1,45,46
 587 932 587 932 471 932 c 128,-1,47
 355 932 355 932 314 848 c 0,48,49
 303 824 303 824 303 793.5 c 128,-1,50
 303 763 303 763 327 734.5 c 128,-1,51
 351 706 351 706 389 680.5 c 128,-1,52
 427 655 427 655 474.5 631 c 128,-1,53
 522 607 522 607 573 579 c 128,-1,54
 624 551 624 551 681 520 c 0,55,56
 890 406 890 406 890 264 c 0,57,58
 890 90 890 90 714 18 c 0,59,60
 659 -4 659 -4 590 -13 c 1,61,62
 605 -97 605 -97 605 -170 c 0,0,1
EndSplineSet
EndChar

StartChar: tcaron
Encoding: 357 357 317
Width: 951
GlyphClass: 2
Flags: W
LayerCount: 2
Fore
SplineSet
702 1097 m 1,0,1
 786 1230 786 1230 786 1339 c 0,2,3
 786 1401 786 1401 754 1418 c 0,4,5
 667 1462 667 1462 667 1561 c 128,-1,6
 667 1660 667 1660 749 1698 c 0,7,8
 774 1709 774 1709 806 1709 c 0,9,10
 870 1709 870 1709 911 1656.5 c 128,-1,11
 952 1604 952 1604 952 1530 c 0,12,13
 952 1408 952 1408 903.5 1278.5 c 128,-1,14
 855 1149 855 1149 819 1095 c 1,15,-1
 702 1097 l 1,0,1
499 -20 m 0,16,17
 184 -20 184 -20 184 330 c 2,18,-1
 184 830 l 2,19,20
 184 869 184 869 174.5 881.5 c 128,-1,21
 165 894 165 894 134 894 c 2,22,-1
 52 894 l 1,23,-1
 52 1014 l 1,24,-1
 89 1014 l 2,25,26
 165 1014 165 1014 200.5 1062 c 128,-1,27
 236 1110 236 1110 239 1220 c 1,28,-1
 240 1309 l 1,29,-1
 400 1309 l 1,30,-1
 400 1014 l 1,31,-1
 707 1014 l 1,32,-1
 707 894 l 1,33,-1
 400 894 l 1,34,-1
 400 333 l 2,35,36
 400 147 400 147 486 111 c 0,37,38
 510 101 510 101 534 101 c 0,39,40
 639 101 639 101 671 274 c 1,41,-1
 787 274 l 1,42,43
 777 69 777 69 616 2 c 0,44,45
 564 -20 564 -20 499 -20 c 0,16,17
EndSplineSet
EndChar

StartChar: Tbar
Encoding: 358 358 318
Width: 1383
GlyphClass: 2
Flags: W
LayerCount: 2
Fore
SplineSet
368 110 m 1,0,1
 481 110 481 110 518 128.5 c 128,-1,2
 555 147 555 147 566 168 c 128,-1,3
 577 189 577 189 577 219 c 2,4,-1
 577 683 l 1,5,-1
 200 683 l 1,6,-1
 200 813 l 1,7,-1
 577 813 l 1,8,-1
 577 1384 l 1,9,-1
 372 1384 l 2,10,11
 207 1384 207 1384 183 1209 c 2,12,-1
 154 1006 l 1,13,-1
 9 1007 l 1,14,-1
 53 1500 l 1,15,-1
 1326 1500 l 1,16,-1
 1370 1007 l 1,17,-1
 1225 1006 l 1,18,-1
 1196 1209 l 2,19,20
 1185 1290 1185 1290 1153 1324 c 0,21,22
 1095 1384 1095 1384 1007 1384 c 2,23,-1
 802 1384 l 1,24,-1
 802 813 l 1,25,-1
 1183 813 l 1,26,-1
 1183 683 l 1,27,-1
 802 683 l 1,28,-1
 802 219 l 2,29,30
 802 156 802 156 843.5 133 c 128,-1,31
 885 110 885 110 1011 110 c 1,32,-1
 1011 0 l 1,33,-1
 368 0 l 1,34,-1
 368 110 l 1,0,1
EndSplineSet
EndChar

StartChar: tbar
Encoding: 359 359 319
Width: 837
GlyphClass: 2
Flags: W
LayerCount: 2
Fore
SplineSet
499 -20 m 0,0,1
 184 -20 184 -20 184 330 c 2,2,-1
 184 523 l 1,3,-1
 52 523 l 1,4,-1
 52 643 l 1,5,-1
 184 643 l 1,6,-1
 184 830 l 2,7,8
 184 869 184 869 174.5 881.5 c 128,-1,9
 165 894 165 894 134 894 c 2,10,-1
 52 894 l 1,11,-1
 52 1014 l 1,12,-1
 89 1014 l 2,13,14
 165 1014 165 1014 200.5 1062 c 128,-1,15
 236 1110 236 1110 239 1220 c 1,16,-1
 240 1309 l 1,17,-1
 400 1309 l 1,18,-1
 400 1014 l 1,19,-1
 707 1014 l 1,20,-1
 707 894 l 1,21,-1
 400 894 l 1,22,-1
 400 643 l 1,23,-1
 707 643 l 1,24,-1
 707 523 l 1,25,-1
 400 523 l 1,26,-1
 400 333 l 2,27,28
 400 147 400 147 486 111 c 0,29,30
 510 101 510 101 534 101 c 0,31,32
 639 101 639 101 671 274 c 1,33,-1
 787 274 l 1,34,35
 777 69 777 69 616 2 c 0,36,37
 564 -20 564 -20 499 -20 c 0,0,1
EndSplineSet
EndChar

StartChar: Uogonek
Encoding: 370 370 330
Width: 1616
GlyphClass: 2
Flags: W
LayerCount: 2
Fore
SplineSet
968 -33 m 0,0,1
 810 -134 810 -134 810 -265 c 0,2,3
 810 -356 810 -356 918 -356 c 0,4,5
 957 -356 957 -356 988 -320 c 128,-1,6
 1019 -284 1019 -284 1019 -219 c 1,7,-1
 1109 -219 l 1,8,9
 1109 -226 1109 -226 1109 -262.5 c 128,-1,10
 1109 -299 1109 -299 1091 -351 c 0,11,12
 1036 -510 1036 -510 859 -510 c 0,13,14
 759 -510 759 -510 694.5 -453.5 c 128,-1,15
 630 -397 630 -397 630 -297 c 0,16,17
 630 -145 630 -145 809 -20 c 1,18,19
 553 -17 553 -17 398 125 c 0,20,21
 221 288 221 288 221 620 c 2,22,-1
 221 1281 l 2,23,24
 221 1346 221 1346 198 1362 c 0,25,26
 159 1390 159 1390 53 1390 c 1,27,-1
 53 1500 l 1,28,-1
 631 1500 l 1,29,-1
 631 1390 l 1,30,31
 536 1390 536 1390 507 1371.5 c 128,-1,32
 478 1353 478 1353 470 1332 c 128,-1,33
 462 1311 462 1311 462 1281 c 2,34,-1
 463 599 l 2,35,36
 463 357 463 357 574.5 241.5 c 128,-1,37
 686 126 686 126 858 126 c 0,38,39
 1152 126 1152 126 1226 402 c 0,40,41
 1249 489 1249 489 1249 599 c 2,42,-1
 1249 1281 l 2,43,44
 1249 1346 1249 1346 1226 1362 c 0,45,46
 1187 1390 1187 1390 1081 1390 c 1,47,-1
 1081 1500 l 1,48,-1
 1589 1500 l 1,49,-1
 1589 1390 l 1,50,51
 1494 1390 1494 1390 1465 1371.5 c 128,-1,52
 1436 1353 1436 1353 1428 1332 c 128,-1,53
 1420 1311 1420 1311 1420 1281 c 2,54,-1
 1421 620 l 2,55,56
 1421 267 1421 267 1191 99 c 0,57,58
 1124 50 1124 50 1067.5 22 c 128,-1,59
 1011 -6 1011 -6 968 -33 c 0,0,1
EndSplineSet
EndChar

StartChar: uogonek
Encoding: 371 371 331
Width: 1200
GlyphClass: 2
Flags: W
LayerCount: 2
Fore
SplineSet
890 -265 m 0,0,1
 890 -356 890 -356 998 -356 c 0,2,3
 1037 -356 1037 -356 1068 -320 c 128,-1,4
 1099 -284 1099 -284 1099 -219 c 1,5,-1
 1189 -219 l 1,6,7
 1189 -226 1189 -226 1189 -262.5 c 128,-1,8
 1189 -299 1189 -299 1171 -351 c 0,9,10
 1116 -510 1116 -510 939 -510 c 0,11,12
 839 -510 839 -510 774.5 -453.5 c 128,-1,13
 710 -397 710 -397 710 -297 c 0,14,15
 710 -172 710 -172 850 -50 c 0,16,17
 888 -17 888 -17 927 9 c 1,18,19
 854 55 854 55 833 165 c 1,20,21
 705 -20 705 -20 483.5 -20 c 128,-1,22
 262 -20 262 -20 193 188 c 0,23,24
 170 258 170 258 170 351 c 2,25,-1
 170 766 l 2,26,27
 170 838 170 838 157.5 860 c 128,-1,28
 145 882 145 882 90 882 c 2,29,-1
 51 882 l 1,30,-1
 51 992 l 1,31,32
 142 992 142 992 190 1006.5 c 128,-1,33
 238 1021 238 1021 258.5 1027.5 c 128,-1,34
 279 1034 279 1034 305 1034 c 0,35,36
 356 1034 356 1034 373 1002.5 c 128,-1,37
 390 971 390 971 390 902 c 2,38,-1
 390 344 l 2,39,40
 390 234 390 234 413 194 c 128,-1,41
 436 154 436 154 469.5 135.5 c 128,-1,42
 503 117 503 117 550 117 c 0,43,44
 633 117 633 117 704 173 c 128,-1,45
 775 229 775 229 807 307 c 1,46,-1
 807 766 l 1,47,48
 805 840 805 840 793 861 c 128,-1,49
 781 882 781 882 726 882 c 2,50,-1
 675 882 l 1,51,-1
 675 992 l 1,52,53
 766 992 766 992 818.5 1006.5 c 128,-1,54
 871 1021 871 1021 893 1027.5 c 128,-1,55
 915 1034 915 1034 941 1034 c 0,56,57
 992 1034 992 1034 1009.5 1004 c 128,-1,58
 1027 974 1027 974 1027 906 c 2,59,-1
 1027 266 l 2,60,61
 1027 169 1027 169 1036 146 c 0,62,63
 1052 102 1052 102 1116 102 c 0,64,65
 1150 102 1150 102 1174 113 c 1,66,-1
 1174 16 l 1,67,68
 1163 6 1163 6 1132.5 -3.5 c 128,-1,69
 1102 -13 1102 -13 1070 -26 c 0,70,71
 1006 -51 1006 -51 948 -119 c 128,-1,72
 890 -187 890 -187 890 -265 c 0,0,1
EndSplineSet
EndChar

StartChar: florin
Encoding: 402 402 343
Width: 1205
GlyphClass: 2
Flags: W
LayerCount: 2
Fore
SplineSet
1154 1460 m 1,0,1
 1127 1526 1127 1526 1069 1526 c 128,-1,2
 1011 1526 1011 1526 984 1496 c 0,3,4
 886 1388 886 1388 847 1001 c 1,5,-1
 1156 1001 l 1,6,-1
 1156 884 l 1,7,-1
 830 884 l 1,8,-1
 736 117 l 2,9,10
 701 -168 701 -168 579 -339 c 128,-1,11
 457 -510 457 -510 272 -510 c 0,12,13
 151 -510 151 -510 67.5 -439.5 c 128,-1,14
 -16 -369 -16 -369 -16 -254 c 0,15,16
 -16 -185 -16 -185 26 -137.5 c 128,-1,17
 68 -90 68 -90 144 -90 c 128,-1,18
 220 -90 220 -90 253 -172 c 0,19,20
 263 -197 263 -197 263 -225 c 0,21,22
 263 -303 263 -303 192 -341 c 1,23,24
 217 -396 217 -396 263.5 -396 c 128,-1,25
 310 -396 310 -396 345 -374 c 128,-1,26
 380 -352 380 -352 410 -291 c 0,27,28
 466 -175 466 -175 522 155 c 1,29,-1
 602 820 l 1,30,31
 602 859 602 859 592.5 871.5 c 128,-1,32
 583 884 583 884 552 884 c 2,33,-1
 459 884 l 1,34,-1
 459 1001 l 1,35,-1
 567 1001 l 2,36,37
 629 1001 629 1001 638 1073 c 0,38,39
 671 1349 671 1349 788 1494.5 c 128,-1,40
 905 1640 905 1640 1085 1640 c 0,41,42
 1210 1640 1210 1640 1286.5 1560 c 128,-1,43
 1363 1480 1363 1480 1363 1364 c 0,44,45
 1363 1303 1363 1303 1323.5 1261.5 c 128,-1,46
 1284 1220 1284 1220 1223 1220 c 0,47,48
 1137 1220 1137 1220 1104 1302 c 0,49,50
 1094 1326 1094 1326 1094 1355 c 0,51,52
 1094 1422 1094 1422 1154 1460 c 1,0,1
EndSplineSet
EndChar

StartChar: dotlessj
Encoding: 567 567 348
Width: 622
GlyphClass: 2
Flags: W
LayerCount: 2
Fore
SplineSet
147.5 -257 m 128,-1,1
 157 -279 157 -279 157 -316 c 128,-1,2
 157 -353 157 -353 121 -387 c 1,3,4
 147 -396 147 -396 162 -395 c 0,5,6
 289 -386 289 -386 289 -199 c 0,7,8
 289 -141 289 -141 270.5 -27 c 128,-1,9
 252 87 252 87 252 166 c 2,10,-1
 252 765 l 2,11,12
 252 837 252 837 239.5 859 c 128,-1,13
 227 881 227 881 172 881 c 2,14,-1
 80 881 l 1,15,-1
 80 991 l 1,16,17
 178 991 178 991 240.5 1005.5 c 128,-1,18
 303 1020 303 1020 329.5 1026.5 c 128,-1,19
 356 1033 356 1033 383 1033 c 0,20,21
 435 1033 435 1033 451.5 1002.5 c 128,-1,22
 468 972 468 972 468 905 c 2,23,-1
 469 10 l 2,24,25
 469 -387 469 -387 288 -480 c 0,26,27
 228 -510 228 -510 162 -510 c 0,28,29
 45 -510 45 -510 -28 -455.5 c 128,-1,30
 -101 -401 -101 -401 -101 -332.5 c 128,-1,31
 -101 -264 -101 -264 -73 -235 c 0,32,33
 -25 -184 -25 -184 30 -184 c 128,-1,34
 85 -184 85 -184 111.5 -209.5 c 128,-1,0
 138 -235 138 -235 147.5 -257 c 128,-1,1
EndSplineSet
EndChar

StartChar: circumflex
Encoding: 710 710 349
Width: 0
GlyphClass: 2
Flags: W
LayerCount: 2
Fore
SplineSet
-227 1200 m 1,0,1
 -263 1167 -263 1167 -286 1167 c 0,2,3
 -338 1167 -338 1167 -338 1203 c 0,4,5
 -338 1215 -338 1215 -329 1229 c 1,6,-1
 -56 1600 l 1,7,-1
 56 1600 l 1,8,-1
 329 1229 l 1,9,10
 338 1215 338 1215 338 1207 c 0,11,12
 338 1167 338 1167 297 1167 c 0,13,14
 263 1167 263 1167 227 1200 c 1,15,-1
 0 1375 l 1,16,-1
 -227 1200 l 1,0,1
EndSplineSet
EndChar

StartChar: caron
Encoding: 711 711 350
Width: 0
GlyphClass: 2
Flags: W
LayerCount: 2
Fore
SplineSet
-56 1166 m 1,0,-1
 -329 1537 l 1,1,2
 -338 1551 -338 1551 -338 1559 c 0,3,4
 -338 1599 -338 1599 -297 1599 c 0,5,6
 -263 1599 -263 1599 -227 1566 c 1,7,-1
 0 1390 l 1,8,-1
 227 1566 l 1,9,10
 263 1599 263 1599 286 1599 c 0,11,12
 338 1599 338 1599 338 1563 c 0,13,14
 338 1551 338 1551 329 1537 c 1,15,-1
 56 1166 l 1,16,-1
 -56 1166 l 1,0,-1
EndSplineSet
EndChar

StartChar: breve
Encoding: 728 728 351
Width: 0
GlyphClass: 2
Flags: W
LayerCount: 2
Fore
SplineSet
0 1371 m 256,0,1
 167 1371 167 1371 222 1541 c 1,2,-1
 336 1541 l 1,3,4
 330 1380 330 1380 239 1281 c 128,-1,5
 148 1182 148 1182 0 1182 c 128,-1,6
 -148 1182 -148 1182 -239 1281 c 128,-1,7
 -330 1380 -330 1380 -336 1541 c 1,8,-1
 -222 1541 l 1,9,10
 -167 1371 -167 1371 0 1371 c 256,0,1
EndSplineSet
EndChar

StartChar: dotaccent
Encoding: 729 729 352
Width: 0
GlyphClass: 2
Flags: W
LayerCount: 2
Fore
SplineSet
0 1214 m 0,0,1
 -109 1214 -109 1214 -151 1308 c 0,2,3
 -164 1337 -164 1337 -164 1374 c 0,4,5
 -164 1444 -164 1444 -116.5 1484.5 c 128,-1,6
 -69 1525 -69 1525 0 1525 c 256,7,8
 69 1525 69 1525 103 1496 c 0,9,10
 164 1444 164 1444 164 1373.5 c 128,-1,11
 164 1303 164 1303 116 1258.5 c 128,-1,12
 68 1214 68 1214 0 1214 c 0,0,1
EndSplineSet
EndChar

StartChar: ring
Encoding: 730 730 353
Width: 0
GlyphClass: 2
Flags: W
LayerCount: 2
Fore
SplineSet
0 1174 m 256,0,1
 -116 1174 -116 1174 -196.5 1254.5 c 128,-1,2
 -277 1335 -277 1335 -277 1451 c 256,3,4
 -277 1567 -277 1567 -196 1648 c 128,-1,5
 -115 1729 -115 1729 0 1729 c 256,6,7
 115 1729 115 1729 196.5 1647.5 c 128,-1,8
 278 1566 278 1566 278 1451 c 256,9,10
 278 1336 278 1336 197 1255 c 128,-1,11
 116 1174 116 1174 0 1174 c 256,0,1
0 1293 m 0,12,13
 82 1293 82 1293 113 1384 c 0,14,15
 123 1414 123 1414 123 1451 c 0,16,17
 123 1521 123 1521 88 1564.5 c 128,-1,18
 53 1608 53 1608 0 1608 c 0,19,20
 -82 1608 -82 1608 -113 1517 c 0,21,22
 -123 1488 -123 1488 -123 1451 c 0,23,24
 -123 1341 -123 1341 -48 1304 c 0,25,26
 -25 1293 -25 1293 0 1293 c 0,12,13
EndSplineSet
EndChar

StartChar: ogonek
Encoding: 731 731 354
Width: 1707
GlyphClass: 2
Flags: W
LayerCount: 2
Fore
SplineSet
980 -265 m 0,0,1
 980 -356 980 -356 1077 -356 c 0,2,3
 1112 -356 1112 -356 1140.5 -320 c 128,-1,4
 1169 -284 1169 -284 1169 -219 c 1,5,-1
 1259 -219 l 1,6,7
 1259 -226 1259 -226 1259 -262.5 c 128,-1,8
 1259 -299 1259 -299 1242 -351 c 128,-1,9
 1225 -403 1225 -403 1192 -439 c 0,10,11
 1128 -510 1128 -510 1019 -510 c 0,12,13
 868 -510 868 -510 816 -388 c 0,14,15
 800 -348 800 -348 800 -298 c 128,-1,16
 800 -248 800 -248 820.5 -202 c 128,-1,17
 841 -156 841 -156 874 -115 c 0,18,19
 931 -44 931 -44 1012 13 c 128,-1,20
 1093 70 1093 70 1155 98 c 1,21,22
 1161 90 1161 90 1168 83 c 0,23,24
 1196 55 1196 55 1204 24 c 1,25,26
 1169 -4 1169 -4 1130 -34 c 0,27,28
 980 -145 980 -145 980 -265 c 0,0,1
EndSplineSet
EndChar

StartChar: tilde
Encoding: 732 732 355
Width: 0
GlyphClass: 2
Flags: W
LayerCount: 2
Fore
SplineSet
246 1258 m 0,0,1
 197 1232 197 1232 142 1232 c 128,-1,2
 87 1232 87 1232 51 1244.5 c 128,-1,3
 15 1257 15 1257 -14 1276 c 128,-1,4
 -43 1295 -43 1295 -67 1317 c 128,-1,5
 -91 1339 -91 1339 -126 1370.5 c 128,-1,6
 -161 1402 -161 1402 -187 1402 c 0,7,8
 -269 1402 -269 1402 -285 1314 c 1,9,-1
 -298 1221 l 1,10,-1
 -405 1221 l 1,11,12
 -392 1479 -392 1479 -247 1556 c 0,13,14
 -198 1582 -198 1582 -142.5 1582 c 128,-1,15
 -87 1582 -87 1582 -51.5 1569.5 c 128,-1,16
 -16 1557 -16 1557 13.5 1538 c 128,-1,17
 43 1519 43 1519 67 1497 c 128,-1,18
 91 1475 91 1475 126.5 1443.5 c 128,-1,19
 162 1412 162 1412 188 1412 c 0,20,21
 264 1412 264 1412 282 1500 c 1,22,-1
 297 1593 l 1,23,-1
 405 1593 l 1,24,25
 386 1332 386 1332 246 1258 c 0,0,1
EndSplineSet
EndChar

StartChar: hungarumlaut
Encoding: 733 733 356
Width: 0
GlyphClass: 2
Flags: W
LayerCount: 2
Fore
SplineSet
297 1230 m 1,0,1
 241 1189 241 1189 209 1189 c 0,2,3
 149 1189 149 1189 149 1241 c 0,4,5
 149 1264 149 1264 167 1287 c 2,6,-1
 324 1491 l 1,7,8
 377 1565 377 1565 406 1592.5 c 128,-1,9
 435 1620 435 1620 498.5 1620 c 128,-1,10
 562 1620 562 1620 583 1560 c 0,11,12
 589 1542 589 1542 589 1519 c 0,13,14
 589 1457 589 1457 531 1414 c 1,15,-1
 297 1230 l 1,0,1
-107 1230 m 1,16,17
 -163 1189 -163 1189 -195 1189 c 0,18,19
 -255 1189 -255 1189 -255 1241 c 0,20,21
 -255 1264 -255 1264 -237 1287 c 2,22,-1
 -82 1491 l 1,23,24
 -29 1565 -29 1565 0 1592.5 c 128,-1,25
 29 1620 29 1620 92.5 1620 c 128,-1,26
 156 1620 156 1620 177 1560 c 0,27,28
 183 1542 183 1542 183 1519 c 0,29,30
 183 1457 183 1457 125 1414 c 1,31,-1
 -107 1230 l 1,16,17
EndSplineSet
EndChar

StartChar: pi
Encoding: 960 960 360
Width: 1474
GlyphClass: 2
Flags: W
LayerCount: 2
Fore
SplineSet
1262 261 m 1,0,1
 1193 -20 1193 -20 995 -20 c 0,2,3
 918 -20 918 -20 862.5 38.5 c 128,-1,4
 807 97 807 97 807 206 c 0,5,6
 807 247 807 247 816 297 c 1,7,-1
 916 759 l 2,8,9
 922 787 922 787 922 803 c 128,-1,10
 922 819 922 819 921 824 c 1,11,-1
 693 824 l 1,12,13
 617 157 617 157 414 24 c 0,14,15
 348 -20 348 -20 287 -20 c 0,16,17
 182 -20 182 -20 122.5 35.5 c 128,-1,18
 63 91 63 91 63 161.5 c 128,-1,19
 63 232 63 232 103 274 c 128,-1,20
 143 316 143 316 203 316 c 0,21,22
 289 316 289 316 322 240 c 0,23,24
 332 217 332 217 332 178 c 128,-1,25
 332 139 332 139 292 101 c 1,26,27
 305 98 305 98 313 100 c 1,28,29
 481 112 481 112 544 686 c 0,30,31
 553 763 553 763 559 824 c 1,32,-1
 390 824 l 2,33,34
 343 824 343 824 324 810 c 1,35,36
 288 781 288 781 288 713 c 1,37,-1
 183 713 l 1,38,39
 182 727 182 727 182 756 c 0,40,41
 182 856 182 856 229 924 c 0,42,43
 290 1014 290 1014 420 1014 c 2,44,-1
 1134 1014 l 2,45,46
 1221 1014 1221 1014 1248 1032.5 c 128,-1,47
 1275 1051 1275 1051 1284 1069.5 c 128,-1,48
 1293 1088 1293 1088 1300 1112 c 1,49,-1
 1317 1185 l 1,50,-1
 1432 1185 l 1,51,-1
 1363 824 l 1,52,-1
 1123 824 l 1,53,-1
 1010 266 l 2,54,55
 1004 233 1004 233 1004 208 c 0,56,57
 1004 162 1004 162 1023 141 c 128,-1,58
 1042 120 1042 120 1066 120 c 0,59,60
 1130 120 1130 120 1167 261 c 1,61,-1
 1262 261 l 1,0,1
EndSplineSet
EndChar

StartChar: endash
Encoding: 8211 8211 383
Width: 1512
GlyphClass: 2
Flags: W
LayerCount: 2
Fore
SplineSet
120 611 m 1,0,-1
 1392 611 l 1,1,-1
 1392 448 l 1,2,-1
 120 448 l 1,3,-1
 120 611 l 1,0,-1
EndSplineSet
EndChar

StartChar: emdash
Encoding: 8212 8212 384
Width: 2252
GlyphClass: 2
Flags: W
LayerCount: 2
Fore
SplineSet
120 611 m 1,0,-1
 2132 611 l 1,1,-1
 2132 448 l 1,2,-1
 120 448 l 1,3,-1
 120 611 l 1,0,-1
EndSplineSet
EndChar

StartChar: quotesinglbase
Encoding: 8218 8218 387
Width: 680
GlyphClass: 2
Flags: W
LayerCount: 2
Fore
SplineSet
218 294 m 128,-1,1
 269 345 269 345 324 345 c 0,2,3
 420 345 420 345 467.5 287 c 128,-1,4
 515 229 515 229 515 134 c 0,5,6
 515 -56 515 -56 410 -183 c 128,-1,7
 305 -310 305 -310 133 -340 c 1,8,-1
 86 -272 l 1,9,10
 240 -222 240 -222 297 -136 c 0,11,12
 320 -102 320 -102 320 -84 c 0,13,14
 320 -26 320 -26 287.5 -3.5 c 128,-1,15
 255 19 255 19 235 36.5 c 128,-1,16
 215 54 215 54 200 74 c 0,17,18
 167 118 167 118 167 180.5 c 128,-1,0
 167 243 167 243 218 294 c 128,-1,1
EndSplineSet
EndChar

StartChar: dagger
Encoding: 8224 8224 391
Width: 981
GlyphClass: 2
Flags: W
LayerCount: 2
Fore
SplineSet
572 1050 m 0,0,1
 572 922 572 922 597 882.5 c 128,-1,2
 622 843 622 843 641 843 c 1,3,4
 573 843 573 843 550 346 c 0,5,6
 544 204 544 204 544 0 c 1,7,-1
 449 0 l 1,8,9
 449 632 449 632 382 800 c 0,10,11
 367 838 367 838 351 843 c 1,12,13
 390 843 390 843 412 934 c 0,14,15
 422 975 422 975 422 1050 c 0,16,17
 422 1092 422 1092 382 1092 c 0,18,19
 347 1092 347 1092 313 1063 c 1,20,21
 287 1037 287 1037 260.5 1017.5 c 128,-1,22
 234 998 234 998 202 998 c 0,23,24
 143 998 143 998 104.5 1036.5 c 128,-1,25
 66 1075 66 1075 66 1114 c 0,26,27
 66 1180 66 1180 103.5 1219 c 128,-1,28
 141 1258 141 1258 186 1258 c 128,-1,29
 231 1258 231 1258 256.5 1242 c 128,-1,30
 282 1226 282 1226 310 1201 c 128,-1,31
 338 1176 338 1176 376 1176 c 0,32,33
 463 1176 463 1176 463 1246 c 0,34,35
 463 1286 463 1286 441 1308 c 0,36,37
 400 1349 400 1349 383.5 1374.5 c 128,-1,38
 367 1400 367 1400 367 1431 c 0,39,40
 367 1487 367 1487 405 1526.5 c 128,-1,41
 443 1566 443 1566 497 1566 c 0,42,43
 581 1566 581 1566 616 1486 c 0,44,45
 627 1462 627 1462 627 1438 c 0,46,47
 627 1381 627 1381 579 1334 c 128,-1,48
 531 1287 531 1287 531 1248 c 128,-1,49
 531 1209 531 1209 555 1192.5 c 128,-1,50
 579 1176 579 1176 618 1176 c 128,-1,51
 657 1176 657 1176 684 1201 c 0,52,53
 746 1258 746 1258 785 1258 c 0,54,55
 851 1258 851 1258 889 1220 c 128,-1,56
 927 1182 927 1182 927 1142 c 0,57,58
 927 1073 927 1073 888 1035.5 c 128,-1,59
 849 998 849 998 804 998 c 128,-1,60
 759 998 759 998 732.5 1017.5 c 128,-1,61
 706 1037 706 1037 678 1064.5 c 128,-1,62
 650 1092 650 1092 611 1092 c 128,-1,63
 572 1092 572 1092 572 1050 c 0,0,1
EndSplineSet
EndChar

StartChar: daggerdbl
Encoding: 8225 8225 392
Width: 981
GlyphClass: 2
Flags: W
LayerCount: 2
Fore
SplineSet
572 495 m 2,0,1
 572 453 572 453 610 453 c 128,-1,2
 648 453 648 453 677 480.5 c 128,-1,3
 706 508 706 508 732.5 527.5 c 128,-1,4
 759 547 759 547 792 547 c 0,5,6
 849 547 849 547 888 509.5 c 128,-1,7
 927 472 927 472 927 431 c 0,8,9
 927 363 927 363 889 325 c 128,-1,10
 851 287 851 287 806.5 287 c 128,-1,11
 762 287 762 287 736.5 303 c 128,-1,12
 711 319 711 319 684 344 c 128,-1,13
 657 369 657 369 618 369 c 0,14,15
 531 369 531 369 531 299 c 0,16,17
 531 257 531 257 553 236 c 0,18,19
 593 198 593 198 610 171.5 c 128,-1,20
 627 145 627 145 627 114 c 0,21,22
 627 58 627 58 589 18.5 c 128,-1,23
 551 -21 551 -21 497 -21 c 0,24,25
 413 -21 413 -21 378 60 c 0,26,27
 367 83 367 83 367 116 c 0,28,29
 367 163 367 163 415 211 c 128,-1,30
 463 259 463 259 463 298 c 0,31,32
 463 369 463 369 383 369 c 0,33,34
 338 369 338 369 310 344 c 128,-1,35
 282 319 282 319 256.5 303 c 128,-1,36
 231 287 231 287 200 287 c 0,37,38
 141 287 141 287 103.5 326 c 128,-1,39
 66 365 66 365 66 404 c 0,40,41
 66 470 66 470 104.5 508.5 c 128,-1,42
 143 547 143 547 188.5 547 c 128,-1,43
 234 547 234 547 260.5 527.5 c 128,-1,44
 287 508 287 508 316 480.5 c 128,-1,45
 345 453 345 453 382 453 c 0,46,47
 422 453 422 453 422 495 c 2,48,-1
 422 1050 l 2,49,50
 422 1092 422 1092 382 1092 c 0,51,52
 347 1092 347 1092 313 1063 c 1,53,54
 287 1037 287 1037 260.5 1017.5 c 128,-1,55
 234 998 234 998 202 998 c 0,56,57
 143 998 143 998 104.5 1036.5 c 128,-1,58
 66 1075 66 1075 66 1114 c 0,59,60
 66 1180 66 1180 103.5 1219 c 128,-1,61
 141 1258 141 1258 186 1258 c 128,-1,62
 231 1258 231 1258 256.5 1242 c 128,-1,63
 282 1226 282 1226 310 1201 c 128,-1,64
 338 1176 338 1176 376 1176 c 0,65,66
 463 1176 463 1176 463 1246 c 0,67,68
 463 1286 463 1286 441 1308 c 0,69,70
 400 1349 400 1349 383.5 1374.5 c 128,-1,71
 367 1400 367 1400 367 1431 c 0,72,73
 367 1487 367 1487 405 1526.5 c 128,-1,74
 443 1566 443 1566 497 1566 c 0,75,76
 581 1566 581 1566 616 1486 c 0,77,78
 627 1462 627 1462 627 1438 c 0,79,80
 627 1381 627 1381 579 1334 c 128,-1,81
 531 1287 531 1287 531 1248 c 128,-1,82
 531 1209 531 1209 555 1192.5 c 128,-1,83
 579 1176 579 1176 618 1176 c 128,-1,84
 657 1176 657 1176 684 1201 c 0,85,86
 746 1258 746 1258 785 1258 c 0,87,88
 851 1258 851 1258 889 1220 c 128,-1,89
 927 1182 927 1182 927 1142 c 0,90,91
 927 1073 927 1073 888 1035.5 c 128,-1,92
 849 998 849 998 804 998 c 128,-1,93
 759 998 759 998 732.5 1017.5 c 128,-1,94
 706 1037 706 1037 678 1064.5 c 128,-1,95
 650 1092 650 1092 611 1092 c 128,-1,96
 572 1092 572 1092 572 1050 c 2,97,-1
 572 495 l 2,0,1
EndSplineSet
EndChar

StartChar: bullet
Encoding: 8226 8226 393
Width: 855
GlyphClass: 2
Flags: W
LayerCount: 2
Fore
SplineSet
256.5 512 m 128,-1,1
 187 580 187 580 187 678 c 128,-1,2
 187 776 187 776 256 846.5 c 128,-1,3
 325 917 325 917 424 917 c 128,-1,4
 523 917 523 917 593.5 846.5 c 128,-1,5
 664 776 664 776 664 678.5 c 128,-1,6
 664 581 664 581 593.5 512.5 c 128,-1,7
 523 444 523 444 424.5 444 c 128,-1,0
 326 444 326 444 256.5 512 c 128,-1,1
EndSplineSet
EndChar

StartChar: ellipsis
Encoding: 8230 8230 394
Width: 2052
GlyphClass: 2
Flags: W
LayerCount: 2
Fore
SplineSet
1560 130 m 0,0,1
 1560 194 1560 194 1606 238.5 c 128,-1,2
 1652 283 1652 283 1716 283 c 256,3,4
 1780 283 1780 283 1826 238.5 c 128,-1,5
 1872 194 1872 194 1872 130 c 0,6,7
 1872 67 1872 67 1826.5 23.5 c 128,-1,8
 1781 -20 1781 -20 1716 -20 c 256,9,10
 1651 -20 1651 -20 1605.5 23.5 c 128,-1,11
 1560 67 1560 67 1560 130 c 0,0,1
876 130 m 0,12,13
 876 194 876 194 922 238.5 c 128,-1,14
 968 283 968 283 1032 283 c 256,15,16
 1096 283 1096 283 1142 238.5 c 128,-1,17
 1188 194 1188 194 1188 130 c 0,18,19
 1188 67 1188 67 1142.5 23.5 c 128,-1,20
 1097 -20 1097 -20 1032 -20 c 256,21,22
 967 -20 967 -20 921.5 23.5 c 128,-1,23
 876 67 876 67 876 130 c 0,12,13
192 130 m 0,24,25
 192 194 192 194 238 238.5 c 128,-1,26
 284 283 284 283 348 283 c 256,27,28
 412 283 412 283 458 238.5 c 128,-1,29
 504 194 504 194 504 130 c 0,30,31
 504 67 504 67 458.5 23.5 c 128,-1,32
 413 -20 413 -20 348 -20 c 256,33,34
 283 -20 283 -20 237.5 23.5 c 128,-1,35
 192 67 192 67 192 130 c 0,24,25
EndSplineSet
EndChar

StartChar: perthousand
Encoding: 8240 8240 395
Width: 2700
GlyphClass: 2
Flags: W
LayerCount: 2
Fore
SplineSet
475 780 m 256,0,1
 327 780 327 780 223.5 882 c 128,-1,2
 120 984 120 984 120 1152.5 c 128,-1,3
 120 1321 120 1321 221.5 1420.5 c 128,-1,4
 323 1520 323 1520 475 1520 c 256,5,6
 627 1520 627 1520 728.5 1420.5 c 128,-1,7
 830 1321 830 1321 830 1152.5 c 128,-1,8
 830 984 830 984 726.5 882 c 128,-1,9
 623 780 623 780 475 780 c 256,0,1
1261 1500 m 1,10,-1
 1405 1500 l 1,11,-1
 581 0 l 1,12,-1
 436 0 l 1,13,-1
 1261 1500 l 1,10,-1
475 1414 m 0,14,15
 326 1414 326 1414 326 1152 c 0,16,17
 326 1010 326 1010 369.5 948 c 128,-1,18
 413 886 413 886 475 886 c 0,19,20
 574 886 574 886 610 1023 c 0,21,22
 624 1076 624 1076 624 1152 c 0,23,24
 624 1287 624 1287 582.5 1350.5 c 128,-1,25
 541 1414 541 1414 475 1414 c 0,14,15
1971.5 620.5 m 128,-1,27
 2073 720 2073 720 2225 720 c 256,28,29
 2377 720 2377 720 2478.5 620.5 c 128,-1,30
 2580 521 2580 521 2580 352.5 c 128,-1,31
 2580 184 2580 184 2476.5 82 c 128,-1,32
 2373 -20 2373 -20 2225 -20 c 256,33,34
 2077 -20 2077 -20 1973.5 82 c 128,-1,35
 1870 184 1870 184 1870 352.5 c 128,-1,26
 1870 521 1870 521 1971.5 620.5 c 128,-1,27
1121.5 620.5 m 128,-1,37
 1223 720 1223 720 1375 720 c 256,38,39
 1527 720 1527 720 1628.5 620.5 c 128,-1,40
 1730 521 1730 521 1730 352.5 c 128,-1,41
 1730 184 1730 184 1626.5 82 c 128,-1,42
 1523 -20 1523 -20 1375 -20 c 256,43,44
 1227 -20 1227 -20 1123.5 82 c 128,-1,45
 1020 184 1020 184 1020 352.5 c 128,-1,36
 1020 521 1020 521 1121.5 620.5 c 128,-1,37
2076 352 m 0,46,47
 2076 210 2076 210 2119.5 148 c 128,-1,48
 2163 86 2163 86 2225 86 c 0,49,50
 2324 86 2324 86 2360 223 c 0,51,52
 2374 276 2374 276 2374 352 c 0,53,54
 2374 487 2374 487 2332.5 550.5 c 128,-1,55
 2291 614 2291 614 2225 614 c 0,56,57
 2076 614 2076 614 2076 352 c 0,46,47
1226 352 m 0,58,59
 1226 210 1226 210 1269.5 148 c 128,-1,60
 1313 86 1313 86 1375 86 c 0,61,62
 1474 86 1474 86 1510 223 c 0,63,64
 1524 276 1524 276 1524 352 c 0,65,66
 1524 487 1524 487 1482.5 550.5 c 128,-1,67
 1441 614 1441 614 1375 614 c 0,68,69
 1226 614 1226 614 1226 352 c 0,58,59
EndSplineSet
EndChar

StartChar: guilsinglleft
Encoding: 8249 8249 396
Width: 826
GlyphClass: 2
Flags: W
LayerCount: 2
Fore
SplineSet
139 547 m 1,0,-1
 700 1028 l 1,1,-1
 700 904 l 1,2,-1
 408 514 l 1,3,-1
 700 125 l 1,4,-1
 700 1 l 1,5,-1
 139 482 l 1,6,-1
 139 547 l 1,0,-1
EndSplineSet
EndChar

StartChar: fraction
Encoding: 8260 8260 398
Width: 1021
GlyphClass: 2
Flags: W
LayerCount: 2
Fore
SplineSet
830 1520 m 1,0,-1
 954 1520 l 1,1,-1
 200 0 l 1,2,-1
 75 0 l 1,3,-1
 830 1520 l 1,0,-1
EndSplineSet
EndChar

StartChar: Euro
Encoding: 8364 8364 399
Width: 1515
GlyphClass: 2
Flags: W
LayerCount: 2
Fore
SplineSet
932 110 m 0,0,1
 1204 110 1204 110 1280 370 c 1,2,-1
 1424 370 l 1,3,4
 1424 215 1424 215 1283 97.5 c 128,-1,5
 1142 -20 1142 -20 923 -20 c 128,-1,6
 704 -20 704 -20 540 99 c 0,7,8
 352 235 352 235 290 494 c 1,9,-1
 24 494 l 1,10,-1
 41 593 l 1,11,-1
 272 593 l 1,12,13
 262 667 262 667 262 730 c 128,-1,14
 262 793 262 793 266 839 c 1,15,-1
 75 839 l 1,16,-1
 92 938 l 1,17,-1
 279 938 l 1,18,19
 351 1338 351 1338 672 1472 c 0,20,21
 786 1520 786 1520 912 1520 c 0,22,23
 1143 1520 1143 1520 1282.5 1418 c 128,-1,24
 1422 1316 1422 1316 1422 1162 c 0,25,26
 1422 1037 1422 1037 1324 994 c 0,27,28
 1295 981 1295 981 1261 981 c 0,29,30
 1156 981 1156 981 1120 1070 c 0,31,32
 1109 1098 1109 1098 1109 1136.5 c 128,-1,33
 1109 1175 1109 1175 1131 1212 c 128,-1,34
 1153 1249 1153 1249 1188 1269 c 1,35,36
 1118 1390 1118 1390 947 1390 c 0,37,38
 705 1390 705 1390 596 1142 c 0,39,40
 559 1056 559 1056 543 938 c 1,41,-1
 995 938 l 1,42,-1
 978 839 l 1,43,-1
 534 839 l 1,44,45
 532 799 532 799 532 734 c 128,-1,46
 532 669 532 669 542 593 c 1,47,-1
 949 593 l 1,48,-1
 932 494 l 1,49,-1
 559 494 l 1,50,51
 603 304 603 304 705 207 c 128,-1,52
 807 110 807 110 932 110 c 0,0,1
EndSplineSet
EndChar

StartChar: trademark
Encoding: 8482 8482 400
Width: 2310
GlyphClass: 2
Flags: W
LayerCount: 2
Fore
SplineSet
1064 820 m 1,0,1
 1142 820 1142 820 1172.5 844 c 128,-1,2
 1203 868 1203 868 1203 929 c 2,3,-1
 1202 1321 l 2,4,5
 1202 1385 1202 1385 1177 1407.5 c 128,-1,6
 1152 1430 1152 1430 1064 1430 c 1,7,-1
 1064 1500 l 1,8,-1
 1409 1500 l 1,9,-1
 1629 1034 l 1,10,-1
 1871 1500 l 1,11,-1
 2179 1500 l 1,12,-1
 2179 1430 l 1,13,14
 2101 1430 2101 1430 2070.5 1406 c 128,-1,15
 2040 1382 2040 1382 2040 1321 c 2,16,-1
 2041 929 l 2,17,18
 2041 865 2041 865 2066 842.5 c 128,-1,19
 2091 820 2091 820 2179 820 c 1,20,-1
 2179 750 l 1,21,-1
 1772 750 l 1,22,-1
 1772 820 l 1,23,24
 1839 820 1839 820 1865 844.5 c 128,-1,25
 1891 869 1891 869 1891 929 c 2,26,-1
 1890 1346 l 1,27,-1
 1591 800 l 1,28,-1
 1580 800 l 1,29,-1
 1300 1369 l 1,30,-1
 1301 929 l 2,31,32
 1301 864 1301 864 1323 842 c 128,-1,33
 1345 820 1345 820 1419 820 c 1,34,-1
 1419 750 l 1,35,-1
 1064 750 l 1,36,-1
 1064 820 l 1,0,1
287 820 m 1,37,38
 371 820 371 820 403.5 844 c 128,-1,39
 436 868 436 868 436 929 c 2,40,-1
 435 1319 l 1,41,-1
 435 1424 l 1,42,-1
 375 1424 l 2,43,44
 276 1424 276 1424 253 1411 c 128,-1,45
 230 1398 230 1398 221.5 1377 c 128,-1,46
 213 1356 213 1356 209 1319 c 2,47,-1
 202 1246 l 1,48,-1
 97 1247 l 1,49,-1
 116 1500 l 1,50,-1
 922 1500 l 1,51,-1
 943 1247 l 1,52,-1
 838 1246 l 1,53,-1
 832 1319 l 1,54,55
 824 1390 824 1390 794.5 1407 c 128,-1,56
 765 1424 765 1424 666 1424 c 2,57,-1
 605 1424 l 1,58,-1
 605 1319 l 1,59,-1
 606 929 l 2,60,61
 606 864 606 864 626 848 c 0,62,63
 661 820 661 820 754 820 c 1,64,-1
 754 750 l 1,65,-1
 287 750 l 1,66,-1
 287 820 l 1,37,38
EndSplineSet
EndChar

StartChar: Omega
Encoding: 8486 8486 401
Width: 1729
GlyphClass: 2
Flags: W
LayerCount: 2
Fore
SplineSet
132 373 m 1,0,-1
 217 374 l 1,1,-1
 244 301 l 2,2,3
 257 266 257 266 266.5 240 c 128,-1,4
 276 214 276 214 292 196 c 1,5,6
 325 162 325 162 410 162 c 2,7,-1
 623 162 l 1,8,9
 351 342 351 342 227 586 c 0,10,11
 152 734 152 734 152 874 c 0,12,13
 152 1158 152 1158 341 1341.5 c 128,-1,14
 530 1525 530 1525 864 1525 c 256,15,16
 1198 1525 1198 1525 1387 1341.5 c 128,-1,17
 1576 1158 1576 1158 1576 880 c 128,-1,18
 1576 602 1576 602 1322 340 c 0,19,20
 1226 242 1226 242 1105 162 c 1,21,-1
 1318 162 l 2,22,23
 1403 162 1403 162 1436 196 c 1,24,25
 1452 214 1452 214 1461.5 240 c 128,-1,26
 1471 266 1471 266 1484 301 c 2,27,-1
 1511 374 l 1,28,-1
 1596 373 l 1,29,-1
 1547 0 l 1,30,-1
 919 2 l 1,31,-1
 919 142 l 1,32,33
 1141 353 1141 353 1234.5 509.5 c 128,-1,34
 1328 666 1328 666 1328 880.5 c 128,-1,35
 1328 1095 1328 1095 1200 1256 c 128,-1,36
 1072 1417 1072 1417 864 1417 c 256,37,38
 656 1417 656 1417 528 1256 c 128,-1,39
 400 1095 400 1095 400 880.5 c 128,-1,40
 400 666 400 666 493.5 509.5 c 128,-1,41
 587 353 587 353 809 142 c 1,42,-1
 809 2 l 1,43,-1
 181 0 l 1,44,-1
 132 373 l 1,0,-1
EndSplineSet
EndChar

StartChar: partialdiff
Encoding: 8706 8706 402
Width: 1273
GlyphClass: 2
Flags: W
LayerCount: 2
Fore
SplineSet
923 742 m 1,0,1
 961 883 961 883 961 996 c 0,2,3
 961 1194 961 1194 887 1294 c 128,-1,4
 813 1394 813 1394 693 1394 c 0,5,6
 606 1394 606 1394 546 1344 c 0,7,8
 524 1325 524 1325 509 1298 c 1,9,10
 551 1286 551 1286 582 1249.5 c 128,-1,11
 613 1213 613 1213 613 1177 c 0,12,13
 613 1113 613 1113 574.5 1073 c 128,-1,14
 536 1033 536 1033 490 1033 c 0,15,16
 416 1033 416 1033 374.5 1076.5 c 128,-1,17
 333 1120 333 1120 333 1186 c 0,18,19
 333 1317 333 1317 455 1418.5 c 128,-1,20
 577 1520 577 1520 757.5 1520 c 128,-1,21
 938 1520 938 1520 1056 1367 c 128,-1,22
 1174 1214 1174 1214 1174 934 c 0,23,24
 1174 577 1174 577 1019 304 c 0,25,26
 906 105 906 105 712 22 c 0,27,28
 612 -20 612 -20 504 -20 c 0,29,30
 311 -20 311 -20 207 98.5 c 128,-1,31
 103 217 103 217 103 389 c 0,32,33
 103 615 103 615 259.5 773.5 c 128,-1,34
 416 932 416 932 629 932 c 0,35,36
 739 932 739 932 819.5 878.5 c 128,-1,37
 900 825 900 825 923 742 c 1,0,1
385 175.5 m 128,-1,39
 437 105 437 105 522 105 c 128,-1,40
 607 105 607 105 689 186 c 0,41,42
 799 294 799 294 837 470 c 0,43,44
 848 522 848 522 848 572 c 0,45,46
 848 675 848 675 790.5 739 c 128,-1,47
 733 803 733 803 651.5 803 c 128,-1,48
 570 803 570 803 511 761 c 128,-1,49
 452 719 452 719 412 654 c 0,50,51
 333 525 333 525 333 385.5 c 128,-1,38
 333 246 333 246 385 175.5 c 128,-1,39
EndSplineSet
EndChar

StartChar: Delta
Encoding: 8710 8710 403
Width: 1607
GlyphClass: 2
Flags: W
LayerCount: 2
Fore
SplineSet
73 108 m 1,0,-1
 742 1500 l 1,1,-1
 886 1500 l 1,2,-1
 1534 108 l 1,3,-1
 1534 0 l 1,4,-1
 73 0 l 1,5,-1
 73 108 l 1,0,-1
1281 108 m 1,6,-1
 759 1224 l 1,7,-1
 225 108 l 1,8,-1
 1281 108 l 1,6,-1
EndSplineSet
EndChar

StartChar: product
Encoding: 8719 8719 404
Width: 1587
GlyphClass: 2
Flags: W
LayerCount: 2
Fore
SplineSet
125 110 m 1,0,1
 220 110 220 110 249 128.5 c 128,-1,2
 278 147 278 147 286 168 c 128,-1,3
 294 189 294 189 294 219 c 2,4,-1
 293 1281 l 2,5,6
 293 1346 293 1346 270 1362 c 0,7,8
 231 1390 231 1390 125 1390 c 1,9,-1
 125 1500 l 1,10,-1
 1462 1500 l 1,11,-1
 1462 1390 l 1,12,13
 1367 1390 1367 1390 1338 1371.5 c 128,-1,14
 1309 1353 1309 1353 1301 1332 c 128,-1,15
 1293 1311 1293 1311 1293 1281 c 2,16,-1
 1294 219 l 2,17,18
 1294 154 1294 154 1316 138 c 0,19,20
 1356 110 1356 110 1462 110 c 1,21,-1
 1462 0 l 1,22,-1
 895 0 l 1,23,-1
 895 110 l 1,24,25
 990 110 990 110 1019 128.5 c 128,-1,26
 1048 147 1048 147 1056 168 c 128,-1,27
 1064 189 1064 189 1064 219 c 2,28,-1
 1063 1390 l 1,29,-1
 523 1390 l 1,30,-1
 524 219 l 2,31,32
 524 154 524 154 546 138 c 0,33,34
 586 110 586 110 692 110 c 1,35,-1
 692 0 l 1,36,-1
 125 0 l 1,37,-1
 125 110 l 1,0,1
EndSplineSet
EndChar

StartChar: summation
Encoding: 8721 8721 405
Width: 1324
GlyphClass: 2
Flags: W
LayerCount: 2
Fore
SplineSet
111 190 m 1,0,-1
 614 736 l 1,1,-1
 112 1388 l 1,2,-1
 112 1498 l 1,3,-1
 1160 1500 l 1,4,-1
 1209 1127 l 1,5,-1
 1064 1126 l 1,6,-1
 1037 1239 l 2,7,8
 1017 1320 1017 1320 996 1341 c 0,9,10
 959 1378 959 1378 871 1378 c 2,11,-1
 421 1378 l 1,12,-1
 853 792 l 1,13,-1
 317 200 l 1,14,-1
 920 200 l 2,15,16
 1043 200 1043 200 1070 272 c 0,17,18
 1079 296 1079 296 1086 328 c 2,19,-1
 1103 401 l 1,20,-1
 1238 401 l 1,21,-1
 1159 0 l 1,22,-1
 111 0 l 1,23,-1
 111 190 l 1,0,-1
EndSplineSet
EndChar

StartChar: minus
Encoding: 8722 8722 406
Width: 1341
GlyphClass: 2
Flags: W
LayerCount: 2
Fore
SplineSet
120 761 m 1,0,-1
 1221 761 l 1,1,-1
 1221 598 l 1,2,-1
 120 598 l 1,3,-1
 120 761 l 1,0,-1
EndSplineSet
EndChar

StartChar: radical
Encoding: 8730 8730 407
Width: 1512
GlyphClass: 2
Flags: W
LayerCount: 2
Fore
SplineSet
326 854 m 1,0,-1
 90 854 l 1,1,-1
 90 964 l 1,2,-1
 510 964 l 1,3,-1
 778 258 l 1,4,-1
 1345 1821 l 1,5,-1
 1497 1821 l 1,6,-1
 823 0 l 1,7,-1
 679 0 l 1,8,-1
 326 854 l 1,0,-1
EndSplineSet
EndChar

StartChar: infinity
Encoding: 8734 8734 408
Width: 1786
GlyphClass: 2
Flags: W
LayerCount: 2
Fore
SplineSet
886 456 m 1,0,1
 752 251 752 251 519 251 c 0,2,3
 393 251 393 251 278.5 344 c 128,-1,4
 164 437 164 437 164 592 c 128,-1,5
 164 747 164 747 270.5 852 c 128,-1,6
 377 957 377 957 538.5 957 c 128,-1,7
 700 957 700 957 831 829 c 0,8,9
 869 792 869 792 904 751 c 1,10,11
 1008 897 1008 897 1162 942 c 0,12,13
 1213 957 1213 957 1268 957 c 0,14,15
 1394 957 1394 957 1509 863.5 c 128,-1,16
 1624 770 1624 770 1624 615.5 c 128,-1,17
 1624 461 1624 461 1517.5 356 c 128,-1,18
 1411 251 1411 251 1249 251 c 128,-1,19
 1087 251 1087 251 959 378 c 0,20,21
 921 415 921 415 886 456 c 1,0,1
984 650 m 1,22,23
 1071 539 1071 539 1108 506 c 0,24,25
 1183 438 1183 438 1247 438 c 0,26,27
 1325 438 1325 438 1379.5 491.5 c 128,-1,28
 1434 545 1434 545 1434 633.5 c 128,-1,29
 1434 722 1434 722 1380 774 c 128,-1,30
 1326 826 1326 826 1263 826 c 0,31,32
 1161 826 1161 826 1102.5 780.5 c 128,-1,33
 1044 735 1044 735 984 650 c 1,22,23
684.5 427 m 128,-1,35
 744 473 744 473 804 558 c 1,36,37
 717 669 717 669 680 702 c 0,38,39
 605 770 605 770 541 770 c 0,40,41
 465 770 465 770 410.5 715.5 c 128,-1,42
 356 661 356 661 356 572.5 c 128,-1,43
 356 484 356 484 409.5 432.5 c 128,-1,44
 463 381 463 381 544 381 c 128,-1,34
 625 381 625 381 684.5 427 c 128,-1,35
EndSplineSet
EndChar

